Merriweather-RegularDisplayWideItalic.ufo
<glyph name="dollar" format="2">
  <advance width="1293.2717391304348"/>
  <unicode hex="0024"/>
  <outline>
    <contour>
      <point x="477.40217391304344" y="-254.5217391304348" type="line"/>
      <point x="569.0760869565216" y="-254.5217391304348" type="line"/>
      <point x="607.3913043478261" y="-21.57608695652174" type="line"/>
      <point x="918.9456521739131" y="1.2065217391304348"/>
      <point x="1126.554347826087" y="186.31521739130432"/>
      <point x="1126.554347826087" y="418.92391304347825" type="curve" smooth="yes"/>
      <point x="1126.554347826087" y="623.2391304347827"/>
      <point x="966.1739130434783" y="724.1304347826086"/>
      <point x="788.4891304347827" y="822.8152173913044" type="curve"/>
      <point x="600.9239130434784" y="928.8043478260869"/>
      <point x="477.7934782608696" y="1005.4239130434783"/>
      <point x="477.7934782608696" y="1154.021739130435" type="curve" smooth="yes"/>
      <point x="477.7934782608696" y="1316.8804347826087"/>
      <point x="627.8152173913044" y="1449.4239130434783"/>
      <point x="802.3804347826086" y="1449.4239130434783" type="curve" smooth="yes"/>
      <point x="883.7173913043478" y="1450.1086956521738"/>
      <point x="980.7282608695651" y="1423.6847826086957"/>
      <point x="1017.3260869565217" y="1391.6304347826085" type="curve"/>
      <point x="1034.1739130434783" y="1164.9239130434783" type="line"/>
      <point x="1154.9347826086955" y="1164.9239130434783" type="line"/>
      <point x="1196.9130434782608" y="1427.8913043478262" type="line"/>
      <point x="1144.7065217391305" y="1444.2173913043478"/>
      <point x="1010.0108695652176" y="1491.945652173913"/>
      <point x="855.054347826087" y="1502.3152173913043" type="curve"/>
      <point x="890.0000000000001" y="1725.6739130434783" type="line"/>
      <point x="797.3260869565217" y="1725.6739130434785" type="line"/>
      <point x="762.3804347826087" y="1500.945652173913" type="line"/>
      <point x="475.84782608695656" y="1481.086956521739"/>
      <point x="273.6086956521739" y="1314.8913043478262"/>
      <point x="273.60869565217394" y="1085.7173913043478" type="curve" smooth="yes"/>
      <point x="273.60869565217394" y="858.4239130434781"/>
      <point x="473.2934782608695" y="744.7826086956522"/>
      <point x="606.1956521739131" y="673.7826086956522" type="curve"/>
      <point x="754.5978260869566" y="594.2717391304349"/>
      <point x="912.1195652173913" y="511.6956521739131"/>
      <point x="912.1195652173913" y="344.7173913043478" type="curve" smooth="yes"/>
      <point x="912.1195652173913" y="176.17391304347828"/>
      <point x="751.6195652173914" y="32.89130434782608"/>
      <point x="553.836956521739" y="32.89130434782608" type="curve" smooth="yes"/>
      <point x="463.70652173913044" y="32.89130434782608"/>
      <point x="352.9456521739131" y="62.108695652173914"/>
      <point x="300.9021739130435" y="109.1086956521739" type="curve"/>
      <point x="295.9021739130435" y="349.8152173913044" type="line"/>
      <point x="179.3913043478261" y="349.8152173913044" type="line"/>
      <point x="124.40217391304347" y="67.05434782608695" type="line"/>
      <point x="175.33695652173913" y="47.98913043478261"/>
      <point x="331.96739130434776" y="-9.945652173913045"/>
      <point x="516.0326086956521" y="-21.26086956521739" type="curve"/>
    </contour>
  </outline>
</glyph>
<glyph name="percent" format="2">
  <advance width="1913.923913043478"/>
  <unicode hex="0025"/>
  <outline>
    <contour>
      <point x="506.4347826086957" y="718.5978260869565" type="curve" smooth="yes"/>
      <point x="707.2282608695651" y="718.5978260869565"/>
      <point x="917.5652173913044" y="888.2065217391306"/>
      <point x="917.5652173913044" y="1156.054347826087" type="curve" smooth="yes"/>
      <point x="917.5652173913044" y="1328.2065217391303"/>
      <point x="831.25" y="1446.4673913043478"/>
      <point x="645.9021739130434" y="1446.4673913043478" type="curve" smooth="yes"/>
      <point x="418.03260869565213" y="1446.4673913043478"/>
      <point x="224.45652173913044" y="1276.163043478261"/>
      <point x="224.45652173913044" y="1023.3804347826085" type="curve" smooth="yes"/>
      <point x="224.45652173913044" y="823.4239130434783"/>
      <point x="346.6304347826087" y="718.5978260869565"/>
    </contour>
    <contour>
      <point x="528.913043478261" y="760.6956521739131" type="curve" smooth="yes"/>
      <point x="449.054347826087" y="760.6956521739131"/>
      <point x="389.1304347826087" y="838.3913043478261"/>
      <point x="389.1304347826087" y="1009.8913043478262" type="curve" smooth="yes"/>
      <point x="389.1304347826087" y="1252.5652173913043"/>
      <point x="500.2065217391304" y="1405.3152173913043"/>
      <point x="613.4239130434783" y="1405.3152173913043" type="curve" smooth="yes"/>
      <point x="690.9130434782609" y="1405.3152173913043"/>
      <point x="753.2608695652173" y="1332.358695652174"/>
      <point x="753.2608695652173" y="1161.5434782608697" type="curve" smooth="yes"/>
      <point x="753.2608695652173" y="921.8695652173913"/>
      <point x="638.2826086956521" y="760.6956521739131"/>
    </contour>
    <contour>
      <point x="1390.695652173913" y="1496.5217391304348" type="line"/>
      <point x="450.42391304347825" y="0.0" type="line"/>
      <point x="552.4891304347826" y="0.0" type="line"/>
      <point x="1493.4456521739132" y="1497.2065217391305" type="line"/>
    </contour>
    <contour>
      <point x="1328.5652173913043" y="58.84782608695652" type="curve" smooth="yes"/>
      <point x="1529.3586956521738" y="58.84782608695652"/>
      <point x="1734.9021739130433" y="228.45652173913044"/>
      <point x="1734.9021739130433" y="496.30434782608694" type="curve" smooth="yes"/>
      <point x="1734.9021739130433" y="668.4565217391305"/>
      <point x="1651.3260869565217" y="786.7173913043479"/>
      <point x="1466.663043478261" y="786.7173913043479" type="curve" smooth="yes"/>
      <point x="1239.4782608695652" y="786.7173913043479"/>
      <point x="1041.7934782608697" y="615.7282608695651"/>
      <point x="1041.7934782608697" y="364.3152173913044" type="curve" smooth="yes"/>
      <point x="1041.7934782608697" y="163.67391304347825"/>
      <point x="1167.391304347826" y="58.84782608695652"/>
    </contour>
    <contour>
      <point x="1351.0434782608695" y="100.94565217391305" type="curve" smooth="yes"/>
      <point x="1270.5" y="100.94565217391305"/>
      <point x="1206.4673913043478" y="177.95652173913047"/>
      <point x="1206.4673913043478" y="350.82608695652175" type="curve" smooth="yes"/>
      <point x="1206.4673913043478" y="592.8152173913043"/>
      <point x="1321.6521739130433" y="745.5652173913044"/>
      <point x="1434.8695652173913" y="745.5652173913044" type="curve" smooth="yes"/>
      <point x="1512.358695652174" y="745.5652173913044"/>
      <point x="1570.5978260869567" y="671.9239130434784"/>
      <point x="1570.5978260869567" y="502.47826086956525" type="curve" smooth="yes"/>
      <point x="1570.5978260869567" y="262.11956521739125"/>
      <point x="1459.7282608695652" y="100.94565217391305"/>
    </contour>
  </outline>
</glyph>
<glyph name="ampersand" format="2">
  <advance width="1514.6630434782608"/>
  <unicode hex="0026"/>
  <outline>
    <contour>
      <point x="580.1195652173911" y="-16.315217391304348" type="curve" smooth="yes"/>
      <point x="748.858695652174" y="-16.315217391304348"/>
      <point x="856.7717391304346" y="11.891304347826088"/>
      <point x="952.6413043478261" y="59.84782608695652" type="curve"/>
      <point x="1023.3804347826085" y="14.467391304347824"/>
      <point x="1103.9130434782608" y="-18.108695652173914"/>
      <point x="1205.0434782608697" y="-18.108695652173914" type="curve" smooth="yes"/>
      <point x="1278.0869565217392" y="-18.108695652173914"/>
      <point x="1348.021739130435" y="-7.586956521739129"/>
      <point x="1386.9347826086955" y="11.467391304347826" type="curve"/>
      <point x="1391.5652173913045" y="51.04347826086956" type="line"/>
      <point x="1352.8369565217392" y="50.456521739130444"/>
      <point x="1309.7499999999998" y="58.22826086956522"/>
      <point x="1270.8695652173913" y="74.93478260869566" type="curve"/>
      <point x="1212.521739130435" y="80.92391304347825"/>
      <point x="1168.0326086956522" y="116.51086956521739"/>
      <point x="1122.2826086956522" y="171.57608695652175" type="curve"/>
      <point x="1248.6521739130433" y="274.72826086956525"/>
      <point x="1351.5434782608695" y="432.5"/>
      <point x="1353.7500000000002" y="602.804347826087" type="curve" smooth="yes"/>
      <point x="1354.3804347826087" y="657.4021739130435"/>
      <point x="1351.6413043478262" y="688.9891304347826"/>
      <point x="1349.586956521739" y="702.6739130434783" type="curve"/>
      <point x="1364.804347826087" y="700.6195652173913"/>
      <point x="1383.6521739130435" y="701.304347826087"/>
      <point x="1400.1847826086955" y="701.304347826087" type="curve" smooth="yes"/>
      <point x="1419.8152173913045" y="701.304347826087"/>
      <point x="1461.554347826087" y="707.6195652173913"/>
      <point x="1499.1847826086957" y="726.9891304347826" type="curve"/>
      <point x="1498.8695652173915" y="770.3043478260869" type="line"/>
      <point x="1464.5543478260868" y="750.3043478260869"/>
      <point x="1396.3478260869565" y="753.304347826087"/>
      <point x="1362.3478260869565" y="753.304347826087" type="curve" smooth="yes"/>
      <point x="1242.9239130434785" y="753.304347826087"/>
      <point x="1213.3478260869563" y="775.304347826087"/>
      <point x="1109.3478260869565" y="775.304347826087" type="curve" smooth="yes"/>
      <point x="1067.3478260869565" y="775.304347826087"/>
      <point x="1033.3478260869567" y="763.304347826087"/>
      <point x="1017.3478260869565" y="747.304347826087" type="curve"/>
      <point x="1017.3478260869566" y="704.9891304347826" type="line"/>
      <point x="1041.3478260869567" y="720.3043478260869"/>
      <point x="1077.3478260869567" y="723.3043478260869"/>
      <point x="1107.3478260869567" y="723.3043478260869" type="curve" smooth="yes"/>
      <point x="1139.3478260869563" y="723.3043478260869"/>
      <point x="1168.3478260869565" y="719.3043478260869"/>
      <point x="1182.3478260869563" y="712.304347826087" type="curve"/>
      <point x="1193.3478260869565" y="697.304347826087"/>
      <point x="1200.032608695652" y="652.9456521739131"/>
      <point x="1200.032608695652" y="577.6195652173914" type="curve" smooth="yes"/>
      <point x="1200.032608695652" y="386.25"/>
      <point x="1132.923913043478" y="299.1630434782609"/>
      <point x="1067.7608695652175" y="230.09782608695653" type="curve"/>
      <point x="968.1521739130435" y="342.8152173913043"/>
      <point x="807.5108695652174" y="584.7282608695651"/>
      <point x="675.4891304347827" y="783.8586956521739" type="curve"/>
      <point x="928.5217391304348" y="908.4347826086956"/>
      <point x="1137.7282608695655" y="1038.7717391304348"/>
      <point x="1137.7282608695655" y="1232.7934782608697" type="curve" smooth="yes"/>
      <point x="1137.7282608695655" y="1378.0434782608695"/>
      <point x="1031.6304347826087" y="1504.3152173913043"/>
      <point x="809.445652173913" y="1504.3152173913043" type="curve" smooth="yes"/>
      <point x="547.8478260869565" y="1504.3152173913043"/>
      <point x="328.5652173913043" y="1343.9347826086955"/>
      <point x="328.5652173913043" y="1084.858695652174" type="curve" smooth="yes"/>
      <point x="328.5652173913043" y="976.0108695652174"/>
      <point x="374.50000000000006" y="847.8586956521739"/>
      <point x="454.65217391304344" y="725.1304347826087" type="curve"/>
      <point x="233.82608695652172" y="657.9021739130434"/>
      <point x="56.46739130434783" y="519.5326086956522"/>
      <point x="56.46739130434783" y="310.21739130434787" type="curve" smooth="yes"/>
      <point x="56.46739130434783" y="85.77173913043478"/>
      <point x="281.70652173913044" y="-16.315217391304348"/>
    </contour>
    <contour>
      <point x="636.1086956521739" y="42.00000000000001" type="curve" smooth="yes"/>
      <point x="425.1086956521739" y="42.00000000000001"/>
      <point x="270.10869565217394" y="167.0"/>
      <point x="270.10869565217394" y="362.5" type="curve" smooth="yes"/>
      <point x="270.10869565217394" y="513.1086956521739"/>
      <point x="333.95652173913044" y="635.1195652173915"/>
      <point x="475.9130434782609" y="693.3369565217391" type="curve"/>
      <point x="639.5108695652174" y="427.8369565217391"/>
      <point x="757.358695652174" y="263.8152173913043"/>
      <point x="893.9565217391304" y="112.53260869565219" type="curve"/>
      <point x="819.8478260869566" y="75.64130434782608"/>
      <point x="739.7717391304349" y="42.00000000000001"/>
    </contour>
    <contour>
      <point x="654.1739130434781" y="816.9130434782609" type="curve"/>
      <point x="588.2934782608695" y="930.1195652173913"/>
      <point x="545.8695652173913" y="1034.2717391304348"/>
      <point x="545.8695652173913" y="1156.2282608695652" type="curve" smooth="yes"/>
      <point x="545.8695652173913" y="1352.771739130435"/>
      <point x="652.5760869565217" y="1453.1630434782608"/>
      <point x="786.913043478261" y="1453.1630434782608" type="curve" smooth="yes"/>
      <point x="878.1304347826089" y="1453.1630434782608"/>
      <point x="951.2717391304349" y="1397.0108695652173"/>
      <point x="951.2717391304349" y="1252.5543478260868" type="curve" smooth="yes"/>
      <point x="951.2717391304349" y="1034.8804347826087"/>
      <point x="785.5108695652174" y="904.2282608695652"/>
    </contour>
  </outline>
</glyph>
<glyph name="parenleft" format="2">
  <advance width="790.1739130434781"/>
  <unicode hex="0028"/>
  <outline>
    <contour>
      <point x="122.91304347826087" y="544.3369565217391" type="curve" smooth="yes"/>
      <point x="122.91304347826087" y="40.77173913043478"/>
      <point x="455.2608695652174" y="-207.25"/>
      <point x="540.2934782608695" y="-254.45652173913044" type="curve"/>
      <point x="594.2934782608695" y="-226.34782608695653" type="line"/>
      <point x="515.1304347826086" y="-169.98913043478262"/>
      <point x="315.4891304347826" y="98.6413043478261"/>
      <point x="315.48913043478257" y="509.8804347826087" type="curve" smooth="yes"/>
      <point x="315.4891304347826" y="929.2826086956522"/>
      <point x="518.7065217391305" y="1439.3260869565215"/>
      <point x="879.7717391304348" y="1625.1630434782608" type="curve"/>
      <point x="838.358695652174" y="1652.0" type="line"/>
      <point x="407.2717391304348" y="1475.804347826087"/>
      <point x="122.91304347826087" y="1008.0217391304346"/>
    </contour>
  </outline>
</glyph>
<glyph name="plus" format="2">
  <advance width="1160.0"/>
  <unicode hex="002B"/>
  <outline>
    <contour>
      <point x="511.99999999999994" y="320.0" type="line"/>
      <point x="480.00000000000006" y="117.00000000000001" type="line"/>
      <point x="572.0" y="117.00000000000001" type="line"/>
      <point x="604.0" y="320.0" type="line"/>
      <point x="633.0" y="527.0" type="line"/>
      <point x="850.0" y="527.0" type="line"/>
      <point x="1023.0" y="527.0" type="line"/>
      <point x="1033.0" y="607.0" type="line"/>
      <point x="860.0" y="607.0" type="line"/>
      <point x="640.0" y="607.0" type="line"/>
      <point x="672.0" y="816.0" type="line"/>
      <point x="702.0" y="1013.9999999999999" type="line"/>
      <point x="610.0" y="1013.9999999999999" type="line"/>
      <point x="580.0" y="816.0" type="line"/>
      <point x="551.0" y="607.0" type="line"/>
      <point x="305.0" y="607.0" type="line"/>
      <point x="154.0" y="607.0" type="line"/>
      <point x="144.0" y="527.0" type="line"/>
      <point x="295.0" y="527.0" type="line"/>
      <point x="540.9999999999999" y="527.0" type="line"/>
    </contour>
  </outline>
</glyph>
<glyph name="comma" format="2">
  <advance width="393.38043478260875"/>
  <unicode hex="002C"/>
  <outline>
    <contour>
      <point x="42.163043478260875" y="105.8913043478261" type="line"/>
      <point x="40.42391304347827" y="72.83695652173914" type="line"/>
      <point x="87.94565217391305" y="52.51086956521739"/>
      <point x="120.94565217391305" y="-26.684782608695652"/>
      <point x="120.94565217391305" y="-110.47826086956522" type="curve" smooth="yes"/>
      <point x="120.94565217391305" y="-198.95652173913044"/>
      <point x="88.09782608695652" y="-340.8478260869565"/>
      <point x="-13.739130434782611" y="-403.3152173913043" type="curve"/>
      <point x="-15.793478260869572" y="-420.0" type="line"/>
      <point x="6.043478260869568" y="-443.35869565217394" type="line"/>
      <point x="159.14130434782606" y="-385.0"/>
      <point x="275.35869565217394" y="-198.88043478260872"/>
      <point x="275.35869565217394" y="-38.77173913043478" type="curve" smooth="yes"/>
      <point x="275.35869565217394" y="67.3804347826087"/>
      <point x="242.73913043478262" y="150.2608695652174"/>
      <point x="161.81521739130437" y="213.1086956521739" type="curve"/>
    </contour>
  </outline>
</glyph>
<glyph name="period" format="2">
  <advance width="422.67391304347825"/>
  <unicode hex="002E"/>
  <outline>
    <contour>
      <point x="50.913043478260875" y="76.0217391304348" type="curve" smooth="yes"/>
      <point x="50.91304347826086" y="16.304347826086953"/>
      <point x="87.94565217391303" y="-22.0"/>
      <point x="138.93478260869566" y="-22.0" type="curve" smooth="yes"/>
      <point x="204.7608695652174" y="-22.0"/>
      <point x="267.10869565217394" y="32.04347826086956"/>
      <point x="267.108695652174" y="116.80434782608697" type="curve" smooth="yes"/>
      <point x="267.10869565217394" y="171.41304347826087"/>
      <point x="235.5" y="212.8804347826087"/>
      <point x="173.56521739130437" y="212.8804347826087" type="curve" smooth="yes"/>
      <point x="109.26086956521739" y="212.8804347826087"/>
      <point x="50.913043478260875" y="155.57608695652178"/>
    </contour>
  </outline>
</glyph>
<glyph name="slash" format="2">
  <advance width="748.7934782608695"/>
  <unicode hex="002F"/>
  <outline>
    <contour>
      <point x="-107.58695652173913" y="-354.0" type="line"/>
      <point x="-16.097826086956527" y="-354.0" type="line"/>
      <point x="803.8913043478261" y="1560.6304347826087" type="line"/>
      <point x="712.3478260869565" y="1560.6304347826087" type="line"/>
    </contour>
  </outline>
</glyph>
<glyph name="zero" format="2">
  <advance width="1356.0760869565217"/>
  <unicode hex="0030"/>
  <outline>
    <contour>
      <point x="586.2826086956521" y="-21.26086956521739" type="curve" smooth="yes"/>
      <point x="1023.532608695652" y="-21.26086956521739"/>
      <point x="1321.6521739130435" y="398.858695652174"/>
      <point x="1321.6521739130435" y="888.4673913043479" type="curve" smooth="yes"/>
      <point x="1321.6521739130435" y="1233.7282608695652"/>
      <point x="1164.7065217391305" y="1503.6304347826085"/>
      <point x="837.5326086956521" y="1503.6304347826085" type="curve" smooth="yes"/>
      <point x="399.5978260869565" y="1503.6304347826085"/>
      <point x="100.42391304347827" y="1084.195652173913"/>
      <point x="100.42391304347825" y="594.9021739130435" type="curve" smooth="yes"/>
      <point x="100.42391304347825" y="250.01086956521738"/>
      <point x="256.3695652173913" y="-21.26086956521739"/>
    </contour>
    <contour>
      <point x="612.8152173913045" y="31.945652173913043" type="curve" smooth="yes"/>
      <point x="435.3695652173913" y="31.945652173913043"/>
      <point x="338.195652173913" y="226.15217391304344"/>
      <point x="338.195652173913" y="560.8260869565219" type="curve" smooth="yes"/>
      <point x="338.195652173913" y="994.8586956521738"/>
      <point x="527.1630434782609" y="1450.423913043478"/>
      <point x="804.7826086956522" y="1450.423913043478" type="curve" smooth="yes"/>
      <point x="984.2826086956521" y="1450.423913043478"/>
      <point x="1082.5108695652173" y="1257.5869565217392"/>
      <point x="1082.5108695652175" y="921.9130434782608" type="curve" smooth="yes"/>
      <point x="1082.5108695652175" y="486.82608695652175"/>
      <point x="892.1739130434783" y="31.945652173913043"/>
    </contour>
  </outline>
</glyph>
<glyph name="one" format="2">
  <advance width="800.9130434782609"/>
  <unicode hex="0031"/>
  <anchor x="477.66304347826076" y="1660.0" name="top"/>
  <outline>
    <contour>
      <point x="38.228260869565226" y="36.94565217391305" type="line"/>
      <point x="33.22826086956522" y="0.0" type="line"/>
      <point x="701.1739130434783" y="0.0" type="line"/>
      <point x="705.4891304347827" y="36.94565217391305" type="line"/>
      <point x="493.2391304347826" y="68.57608695652173" type="line"/>
      <point x="680.3369565217391" y="1470.5434782608697" type="line"/>
      <point x="549.3586956521739" y="1504.3152173913043" type="line"/>
      <point x="461.3478260869565" y="1420.7826086956522"/>
      <point x="309.3152173913044" y="1323.6630434782612"/>
      <point x="133.17391304347825" y="1276.4456521739132" type="curve"/>
      <point x="140.48913043478262" y="1227.445652173913" type="line"/>
      <point x="254.89130434782612" y="1242.717391304348"/>
      <point x="363.15217391304344" y="1266.7826086956522"/>
      <point x="430.5326086956522" y="1297.0" type="curve"/>
      <point x="265.27173913043475" y="68.57608695652175" type="line"/>
    </contour>
  </outline>
</glyph>
<glyph name="two" format="2">
  <advance width="1097.0652173913047"/>
  <unicode hex="0032"/>
  <outline>
    <contour>
      <point x="13.717391304347826" y="0.0" type="line"/>
      <point x="942.9565217391304" y="0.0" type="line"/>
      <point x="1040.3695652173915" y="344.92391304347825" type="line"/>
      <point x="972.4782608695652" y="367.55434782608694" type="line"/>
      <point x="861.8913043478261" y="186.96739130434784" type="line"/>
      <point x="139.78260869565221" y="113.19565217391305" type="line"/>
      <point x="484.4565217391305" y="333.6195652173913"/>
      <point x="1052.152173913043" y="744.5434782608696"/>
      <point x="1051.20652173913" y="1145.9891304347827" type="curve" smooth="yes"/>
      <point x="1050.5760869565215" y="1381.2608695652175"/>
      <point x="857.0108695652174" y="1498.5760869565217"/>
      <point x="648.1086956521739" y="1498.5760869565217" type="curve" smooth="yes"/>
      <point x="439.6521739130435" y="1498.5760869565217"/>
      <point x="243.3913043478261" y="1394.0326086956522"/>
      <point x="133.84782608695653" y="1276.3804347826087" type="curve"/>
      <point x="160.79347826086956" y="1231.75" type="line"/>
      <point x="256.8478260869565" y="1308.3804347826087"/>
      <point x="410.40217391304344" y="1380.2934782608697"/>
      <point x="541.0000000000001" y="1380.2934782608697" type="curve" smooth="yes"/>
      <point x="708.7608695652175" y="1380.2934782608697"/>
      <point x="812.9782608695652" y="1273.4347826086957"/>
      <point x="813.6086956521739" y="1105.5869565217392" type="curve" smooth="yes"/>
      <point x="814.8695652173913" y="750.5"/>
      <point x="343.8369565217391" y="298.0978260869565"/>
      <point x="-13.565217391304348" y="70.30434782608695" type="curve"/>
    </contour>
  </outline>
</glyph>
<glyph name="three" format="2">
  <advance width="1021.3260869565215"/>
  <unicode hex="0033"/>
  <outline>
    <contour>
      <point x="249.7826086956522" y="-15.369565217391305" type="curve" smooth="yes"/>
      <point x="602.6739130434783" y="-15.369565217391305"/>
      <point x="964.891304347826" y="156.77173913043478"/>
      <point x="964.891304347826" y="469.9130434782609" type="curve" smooth="yes"/>
      <point x="964.891304347826" y="653.804347826087"/>
      <point x="828.3043478260868" y="819.4782608695652"/>
      <point x="473.7934782608695" y="777.4239130434783" type="curve"/>
      <point x="802.3804347826087" y="852.1630434782609"/>
      <point x="980.7826086956521" y="1044.2934782608695"/>
      <point x="980.7826086956521" y="1231.3695652173915" type="curve" smooth="yes"/>
      <point x="980.7826086956521" y="1403.8695652173915"/>
      <point x="822.2282608695652" y="1496.6847826086955"/>
      <point x="609.9021739130435" y="1496.6847826086955" type="curve" smooth="yes"/>
      <point x="422.5760869565217" y="1496.6847826086955"/>
      <point x="237.70652173913044" y="1403.7608695652175"/>
      <point x="126.95652173913044" y="1304.130434782609" type="curve"/>
      <point x="150.90217391304347" y="1257.8152173913045" type="line"/>
      <point x="247.054347826087" y="1328.5543478260868"/>
      <point x="392.3478260869565" y="1380.7717391304348"/>
      <point x="521.6739130434783" y="1380.771739130435" type="curve" smooth="yes"/>
      <point x="646.9130434782609" y="1380.7717391304348"/>
      <point x="748.6956521739131" y="1325.7608695652173"/>
      <point x="748.6956521739131" y="1182.1847826086957" type="curve" smooth="yes"/>
      <point x="748.6956521739131" y="1006.4347826086956"/>
      <point x="567.1739130434781" y="840.1739130434783"/>
      <point x="252.88043478260866" y="768.5978260869565" type="curve"/>
      <point x="245.25" y="707.1195652173914" type="line"/>
      <point x="274.7173913043478" y="715.7500000000001"/>
      <point x="336.0978260869565" y="727.9130434782608"/>
      <point x="361.8369565217391" y="737.2826086956521" type="curve"/>
      <point x="631.4673913043479" y="744.5543478260869"/>
      <point x="718.8260869565217" y="624.4565217391305"/>
      <point x="718.8260869565217" y="472.80434782608694" type="curve" smooth="yes"/>
      <point x="718.8260869565217" y="211.8260869565217"/>
      <point x="439.5000000000001" y="52.51086956521739"/>
      <point x="190.31521739130437" y="52.51086956521739" type="curve" smooth="yes"/>
      <point x="124.96739130434783" y="52.51086956521739"/>
      <point x="41.16304347826086" y="61.08695652173914"/>
      <point x="-15.413043478260871" y="77.6086956521739" type="curve"/>
      <point x="-24.250000000000004" y="27.293478260869566" type="line"/>
      <point x="49.52173913043479" y="-0.9565217391304341"/>
      <point x="144.52173913043478" y="-15.369565217391305"/>
    </contour>
  </outline>
</glyph>
<glyph name="four" format="2">
  <advance width="1207.4891304347827"/>
  <unicode hex="0034"/>
  <outline>
    <contour>
      <point x="679.0326086956522" y="0.0" type="line"/>
      <point x="892.1739130434784" y="0.0" type="line"/>
      <point x="942.2282608695651" y="341.9673913043478" type="line"/>
      <point x="1155.3695652173913" y="341.96739130434787" type="line"/>
      <point x="1174.9456521739132" y="486.94565217391306" type="line"/>
      <point x="956.9021739130435" y="468.20652173913044" type="line"/>
      <point x="1015.7934782608696" y="878.3152173913044" type="line"/>
      <point x="806.4347826086956" y="832.3695652173913" type="line"/>
      <point x="739.445652173913" y="454.8478260869565" type="line"/>
      <point x="122.42391304347827" y="404.05434782608694" type="line"/>
      <point x="169.5326086956522" y="446.27173913043475"/>
      <point x="238.90217391304347" y="520.8152173913043"/>
      <point x="291.54347826086956" y="580.6739130434783" type="curve"/>
      <point x="446.27173913043475" y="756.1630434782609"/>
      <point x="728.445652173913" y="1164.0000000000002"/>
      <point x="865.2934782608696" y="1405.1739130434783" type="curve"/>
      <point x="707.1739130434783" y="1493.9347826086957" type="line"/>
      <point x="646.7391304347826" y="1493.9347826086957" type="line"/>
      <point x="441.30434782608694" y="1091.4130434782608"/>
      <point x="205.30434782608697" y="666.8695652173914"/>
      <point x="40.47826086956522" y="426.8804347826087" type="curve"/>
      <point x="84.44565217391305" y="341.96739130434787" type="line"/>
      <point x="728.2934782608695" y="341.9673913043478" type="line"/>
    </contour>
  </outline>
</glyph>
<glyph name="five" format="2">
  <advance width="1055.9891304347827"/>
  <unicode hex="0035"/>
  <outline>
    <contour>
      <point x="40.08695652173913" y="65.6086956521739" type="curve"/>
      <point x="33.51086956521739" y="13.293478260869566" type="line"/>
      <point x="85.32608695652175" y="-5.163043478260869"/>
      <point x="156.19565217391306" y="-15.891304347826086"/>
      <point x="239.7173913043478" y="-15.891304347826086" type="curve" smooth="yes"/>
      <point x="661.2717391304348" y="-15.891304347826086"/>
      <point x="992.9130434782609" y="228.02173913043475"/>
      <point x="992.9130434782609" y="567.8369565217391" type="curve" smooth="yes"/>
      <point x="992.9130434782609" y="807.0108695652174"/>
      <point x="820.7500000000001" y="924.1195652173914"/>
      <point x="609.5978260869565" y="924.1195652173914" type="curve" smooth="yes"/>
      <point x="456.4130434782608" y="924.1195652173914"/>
      <point x="309.14130434782606" y="865.9782608695651"/>
      <point x="173.6304347826087" y="776.6739130434783" type="curve"/>
      <point x="377.05434782608694" y="1301.6847826086955" type="line"/>
      <point x="1030.260869565217" y="1301.6847826086957" type="line"/>
      <point x="1089.9239130434783" y="1512.6304347826087" type="line"/>
      <point x="1020.5760869565217" y="1512.6304347826087" type="line"/>
      <point x="989.8369565217392" y="1486.0" type="line"/>
      <point x="282.6304347826087" y="1486.0" type="line"/>
      <point x="111.06521739130434" y="775.4673913043479" type="line"/>
      <point x="173.16304347826087" y="730.6739130434783" type="line"/>
      <point x="284.39130434782606" y="787.6847826086956"/>
      <point x="371.4673913043478" y="820.5217391304348"/>
      <point x="482.2173913043478" y="820.5217391304348" type="curve" smooth="yes"/>
      <point x="646.2826086956522" y="820.5217391304348"/>
      <point x="762.5217391304348" y="714.2065217391305"/>
      <point x="755.6739130434783" y="535.1195652173913" type="curve" smooth="yes"/>
      <point x="745.4021739130435" y="230.60869565217394"/>
      <point x="489.2608695652173" y="46.413043478260875"/>
      <point x="209.3804347826087" y="46.413043478260875" type="curve" smooth="yes"/>
      <point x="135.54347826086953" y="46.413043478260875"/>
      <point x="81.8586956521739" y="55.19565217391304"/>
    </contour>
  </outline>
</glyph>
<glyph name="seven" format="2">
  <advance width="1071.9565217391303"/>
  <unicode hex="0037"/>
  <outline>
    <contour>
      <point x="1040.304347826087" y="1312.3695652173913" type="line"/>
      <point x="315.2065217391305" y="2.7391304347826084" type="line"/>
      <point x="569.7717391304348" y="-0.6304347826086957" type="line"/>
      <point x="1149.586956521739" y="1440.108695652174" type="line"/>
      <point x="1120.913043478261" y="1486.0" type="line"/>
      <point x="229.47826086956522" y="1486.0" type="line"/>
      <point x="150.4891304347826" y="1085.0434782608697" type="line"/>
      <point x="209.31521739130437" y="1076.0978260869567" type="line"/>
      <point x="309.2608695652174" y="1312.3695652173913" type="line"/>
    </contour>
  </outline>
</glyph>
<glyph name="eight" format="2">
  <advance width="1146.2391304347825"/>
  <unicode hex="0038"/>
  <outline>
    <contour>
      <point x="497.59782608695645" y="-18.630434782608695" type="curve" smooth="yes"/>
      <point x="875.1630434782609" y="-18.630434782608695"/>
      <point x="1069.6521739130435" y="180.05434782608694"/>
      <point x="1071.9673913043475" y="386.9347826086957" type="curve" smooth="yes"/>
      <point x="1074.2826086956522" y="576.5108695652174"/>
      <point x="921.7826086956522" y="697.8695652173914"/>
      <point x="749.1195652173913" y="807.2391304347825" type="curve"/>
      <point x="989.5652173913043" y="878.5217391304348"/>
      <point x="1130.1847826086957" y="1029.1739130434783"/>
      <point x="1131.8152173913045" y="1193.8369565217392" type="curve" smooth="yes"/>
      <point x="1133.445652173913" y="1400.7934782608697"/>
      <point x="925.8804347826087" y="1505.4239130434783"/>
      <point x="726.3260869565219" y="1505.4239130434783" type="curve" smooth="yes"/>
      <point x="457.1413043478261" y="1505.4239130434783"/>
      <point x="222.8586956521739" y="1354.5760869565217"/>
      <point x="218.8586956521739" y="1108.9891304347827" type="curve" smooth="yes"/>
      <point x="216.8586956521739" y="976.8260869565216"/>
      <point x="303.0326086956522" y="846.6739130434783"/>
      <point x="457.9347826086957" y="737.3478260869565" type="curve"/>
      <point x="170.6630434782609" y="675.8586956521739"/>
      <point x="37.58695652173914" y="513.9347826086957"/>
      <point x="36.217391304347814" y="339.1086956521739" type="curve" smooth="yes"/>
      <point x="34.847826086956516" y="133.34782608695653"/>
      <point x="256.5326086956522" y="-18.630434782608695"/>
    </contour>
    <contour>
      <point x="719.2826086956521" y="828.4456521739131" type="curve"/>
      <point x="531.8260869565217" y="936.4021739130435"/>
      <point x="426.2826086956522" y="1035.1847826086955"/>
      <point x="427.6521739130435" y="1188.5434782608697" type="curve" smooth="yes"/>
      <point x="429.70652173913044" y="1368.0978260869565"/>
      <point x="570.7282608695652" y="1455.9565217391305"/>
      <point x="714.0108695652174" y="1455.9565217391305" type="curve" smooth="yes"/>
      <point x="856.0760869565219" y="1455.9565217391305"/>
      <point x="954.1847826086957" y="1337.7934782608695"/>
      <point x="952.5543478260869" y="1192.7934782608695" type="curve" smooth="yes"/>
      <point x="951.2391304347826" y="1058.1413043478262"/>
      <point x="872.1630434782609" y="907.8152173913044"/>
    </contour>
    <contour>
      <point x="513.8152173913045" y="31.152173913043477" type="curve" smooth="yes"/>
      <point x="357.4782608695652" y="31.152173913043477"/>
      <point x="227.73913043478265" y="172.3804347826087"/>
      <point x="228.4239130434783" y="351.2608695652174" type="curve" smooth="yes"/>
      <point x="229.1086956521739" y="496.641304347826"/>
      <point x="287.17391304347825" y="648.141304347826"/>
      <point x="484.4130434782609" y="715.3478260869565" type="curve"/>
      <point x="649.6086956521739" y="607.7826086956522"/>
      <point x="847.2934782608696" y="497.90217391304344"/>
      <point x="845.9239130434783" y="306.8152173913044" type="curve" smooth="yes"/>
      <point x="844.5543478260869" y="120.46739130434781"/>
      <point x="719.3152173913045" y="31.152173913043477"/>
    </contour>
  </outline>
</glyph>
<glyph name="equal" format="2">
  <advance width="1168.0"/>
  <unicode hex="003D"/>
  <outline>
    <contour>
      <point x="190.0" y="862.0" type="line"/>
      <point x="178.0" y="778.0" type="line"/>
      <point x="1064.9999999999998" y="778.0" type="line"/>
      <point x="1077.0" y="862.0" type="line"/>
    </contour>
    <contour>
      <point x="119.99999999999999" y="351.0" type="line"/>
      <point x="108.0" y="267.0" type="line"/>
      <point x="995.0000000000001" y="267.0" type="line"/>
      <point x="1007.0" y="351.0" type="line"/>
    </contour>
  </outline>
</glyph>
<glyph name="at" format="2">
  <advance width="1918.141304347826"/>
  <unicode hex="0040"/>
  <outline>
    <contour>
      <point x="67.8695652173913" y="318.8478260869565" type="curve" smooth="yes"/>
      <point x="67.8695652173913" y="-224.91304347826085"/>
      <point x="417.7173913043478" y="-500.0"/>
      <point x="858.4347826086956" y="-500.0" type="curve" smooth="yes"/>
      <point x="1074.2500000000002" y="-500.0"/>
      <point x="1262.5108695652177" y="-442.7826086956522"/>
      <point x="1372.5" y="-358.0" type="curve"/>
      <point x="1351.1304347826087" y="-303.0" type="line"/>
      <point x="1247.5000000000002" y="-387.0"/>
      <point x="1054.5108695652177" y="-445.6847826086956"/>
      <point x="872.6956521739131" y="-445.3695652173913" type="curve" smooth="yes"/>
      <point x="480.9239130434782" y="-444.7391304347826"/>
      <point x="197.0108695652174" y="-139.27173913043478"/>
      <point x="197.0108695652174" y="344.84782608695656" type="curve" smooth="yes"/>
      <point x="197.0108695652174" y="861.7826086956522"/>
      <point x="581.4021739130434" y="1380.0"/>
      <point x="1107.5978260869567" y="1380.0" type="curve" smooth="yes"/>
      <point x="1433.9239130434785" y="1380.0"/>
      <point x="1756.554347826087" y="1180.467391304348"/>
      <point x="1756.554347826087" y="771.1521739130435" type="curve" smooth="yes"/>
      <point x="1756.554347826087" y="335.79347826086956"/>
      <point x="1480.336956521739" y="49.28260869565217"/>
      <point x="1386.2391304347827" y="49.28260869565217" type="curve" smooth="yes"/>
      <point x="1342.2391304347827" y="49.28260869565217"/>
      <point x="1331.1956521739132" y="89.61956521739131"/>
      <point x="1331.195652173913" y="155.52173913043478" type="curve" smooth="yes"/>
      <point x="1331.1956521739132" y="216.08695652173913"/>
      <point x="1340.7282608695655" y="304.61956521739137"/>
      <point x="1354.684782608696" y="394.7826086956522" type="curve" smooth="yes"/>
      <point x="1381.3695652173913" y="565.7934782608696"/>
      <point x="1430.1304347826085" y="813.7282608695652"/>
      <point x="1467.6847826086957" y="941.891304347826" type="curve"/>
      <point x="1289.1304347826085" y="915.9456521739131" type="line"/>
      <point x="1208.0108695652175" y="945.6847826086956"/>
      <point x="1113.75" y="965.9999999999999"/>
      <point x="1026.7065217391303" y="965.9999999999999" type="curve" smooth="yes"/>
      <point x="693.0978260869565" y="965.9999999999999"/>
      <point x="490.6304347826087" y="639.4239130434784"/>
      <point x="490.63043478260875" y="348.5869565217391" type="curve" smooth="yes"/>
      <point x="490.63043478260863" y="95.53260869565217"/>
      <point x="650.7391304347825" y="-33.68478260869565"/>
      <point x="781.7173913043479" y="-33.68478260869565" type="curve" smooth="yes"/>
      <point x="983.0326086956524" y="-33.68478260869565"/>
      <point x="1083.4891304347827" y="181.40217391304347"/>
      <point x="1186.5652173913045" y="403.0760869565217" type="curve"/>
      <point x="1153.6956521739132" y="277.8586956521739"/>
      <point x="1146.9130434782608" y="194.10869565217394"/>
      <point x="1146.9130434782608" y="131.56521739130434" type="curve" smooth="yes"/>
      <point x="1146.9130434782608" y="28.02173913043478"/>
      <point x="1186.0543478260868" y="-31.0"/>
      <point x="1273.6847826086957" y="-31.0" type="curve" smooth="yes"/>
      <point x="1492.6630434782608" y="-31.0"/>
      <point x="1870.3804347826085" y="267.38043478260863"/>
      <point x="1870.3804347826085" y="792.4673913043479" type="curve" smooth="yes"/>
      <point x="1870.3804347826085" y="1205.4673913043478"/>
      <point x="1549.5652173913043" y="1434.0"/>
      <point x="1162.489130434783" y="1434.0" type="curve" smooth="yes"/>
      <point x="569.4456521739132" y="1434.0"/>
      <point x="67.8695652173913" y="938.6739130434783"/>
    </contour>
    <contour>
      <point x="692.3695652173914" y="386.38043478260875" type="curve" smooth="yes"/>
      <point x="692.6847826086957" y="692.0108695652174"/>
      <point x="822.0978260869565" y="915.054347826087"/>
      <point x="999.7499999999999" y="915.054347826087" type="curve" smooth="yes"/>
      <point x="1091.2608695652175" y="915.054347826087"/>
      <point x="1183.7065217391303" y="878.4239130434783"/>
      <point x="1258.1847826086957" y="804.945652173913" type="curve"/>
      <point x="1201.8260869565217" y="499.2173913043478"/>
      <point x="1017.7499999999999" y="75.26086956521739"/>
      <point x="856.3152173913043" y="75.26086956521739" type="curve" smooth="yes"/>
      <point x="761.1304347826086" y="75.26086956521739"/>
      <point x="692.6847826086957" y="182.19565217391303"/>
    </contour>
  </outline>
</glyph>
<glyph name="A" format="2">
  <advance width="1277.6304347826087"/>
  <unicode hex="0041"/>
  <anchor x="515.0869565217391" y="0.0" name="bottom"/>
  <anchor x="1049.0217391304345" y="0.0" name="ogonek"/>
  <anchor x="765.6630434782608" y="1486.0" name="top"/>
  <outline>
    <contour>
      <point x="-155.41304347826085" y="0.0" type="line"/>
      <point x="261.5108695652174" y="0.0" type="line"/>
      <point x="265.82608695652175" y="36.00000000000001" type="line"/>
      <point x="83.1086956521739" y="62.41304347826087" type="line"/>
      <point x="602.3804347826086" y="1204.195652173913" type="line"/>
      <point x="700.2065217391304" y="1423.717391304348" type="line"/>
      <point x="670.8369565217392" y="1417.0978260869565" type="line"/>
      <point x="695.6195652173914" y="1203.8804347826087" type="line"/>
      <point x="904.5760869565217" y="62.413043478260875" type="line"/>
      <point x="755.6304347826086" y="36.630434782608695" type="line"/>
      <point x="748.5760869565217" y="0.0" type="line"/>
      <point x="1265.3804347826085" y="0.0" type="line"/>
      <point x="1269.3804347826087" y="36.630434782608695" type="line"/>
      <point x="1149.2717391304348" y="62.413043478260875" type="line"/>
      <point x="862.7499999999999" y="1495.4782608695652" type="line"/>
      <point x="665.5108695652175" y="1495.5326086956522" type="line"/>
      <point x="-27.108695652173914" y="63.35869565217392" type="line"/>
      <point x="-150.67391304347828" y="36.0" type="line"/>
    </contour>
    <contour>
      <point x="230.60869565217394" y="487.7391304347826" type="line"/>
      <point x="945.9891304347825" y="487.7391304347826" type="line"/>
      <point x="945.9891304347826" y="552.7934782608695" type="line"/>
      <point x="238.48913043478257" y="552.7934782608695" type="line"/>
    </contour>
  </outline>
</glyph>
<glyph name="B" format="2">
  <advance width="1283.0"/>
  <unicode hex="0042"/>
  <anchor x="536.0434782608696" y="0.0" name="bottom"/>
  <anchor x="734.445652173913" y="1486.0" name="top"/>
  <outline>
    <contour>
      <point x="159.90217391304347" y="1486.0" type="line"/>
      <point x="154.90217391304347" y="1450.0" type="line"/>
      <point x="278.3804347826087" y="1417.7934782608695" type="line"/>
      <point x="93.01086956521738" y="68.57608695652173" type="line"/>
      <point x="-41.09782608695652" y="36.630434782608695" type="line"/>
      <point x="-46.097826086956516" y="0.0" type="line"/>
      <point x="204.27173913043478" y="0.0" type="line" smooth="yes"/>
      <point x="290.66304347826093" y="0.0"/>
      <point x="416.04347826086956" y="-15.891304347826086"/>
      <point x="559.4130434782608" y="-15.891304347826086" type="curve" smooth="yes"/>
      <point x="945.0434782608696" y="-15.891304347826086"/>
      <point x="1233.0978260869565" y="130.27173913043478"/>
      <point x="1233.0978260869565" y="457.35869565217394" type="curve" smooth="yes"/>
      <point x="1233.0978260869565" y="648.108695652174"/>
      <point x="1089.978260869565" y="760.9347826086957"/>
      <point x="868.6847826086956" y="770.8369565217391" type="curve"/>
      <point x="1090.7173913043478" y="819.0543478260871"/>
      <point x="1231.4021739130437" y="977.2608695652175"/>
      <point x="1231.4021739130437" y="1180.945652173913" type="curve" smooth="yes"/>
      <point x="1231.4021739130437" y="1362.3586956521738"/>
      <point x="1099.5217391304348" y="1502.0"/>
      <point x="760.4021739130435" y="1502.0" type="curve" smooth="yes"/>
      <point x="624.7282608695652" y="1502.0"/>
      <point x="522.8369565217392" y="1486.0"/>
      <point x="416.85869565217394" y="1486.0" type="curve" smooth="yes"/>
    </contour>
    <contour>
      <point x="318.51086956521743" y="38.641304347826086" type="line"/>
      <point x="417.19565217391306" y="754.3804347826086" type="line"/>
      <point x="379.22826086956525" y="729.4782608695652" type="line"/>
      <point x="453.3369565217392" y="733.5326086956521"/>
      <point x="514.7391304347827" y="732.7391304347826"/>
      <point x="647.0217391304349" y="732.7391304347826" type="curve" smooth="yes"/>
      <point x="849.695652173913" y="732.7391304347826"/>
      <point x="987.032608695652" y="652.9456521739131"/>
      <point x="987.032608695652" y="460.4565217391305" type="curve" smooth="yes"/>
      <point x="987.0326086956521" y="193.18478260869568"/>
      <point x="817.054347826087" y="37.315217391304344"/>
      <point x="559.5760869565216" y="37.315217391304344" type="curve" smooth="yes"/>
      <point x="435.76086956521743" y="37.315217391304344"/>
      <point x="315.14130434782606" y="63.00000000000001"/>
      <point x="307.9891304347826" y="70.42391304347827" type="curve"/>
    </contour>
    <contour>
      <point x="419.4565217391304" y="777.2608695652173" type="line"/>
      <point x="515.195652173913" y="1469.9565217391305" type="line"/>
      <point x="487.6630434782609" y="1427.6847826086957" type="line"/>
      <point x="512.9673913043479" y="1434.8913043478262"/>
      <point x="648.8478260869566" y="1448.7934782608697"/>
      <point x="697.3586956521739" y="1448.7934782608697" type="curve" smooth="yes"/>
      <point x="907.6086956521739" y="1448.7934782608697"/>
      <point x="992.3804347826087" y="1333.9347826086957"/>
      <point x="992.3804347826086" y="1173.413043478261" type="curve" smooth="yes"/>
      <point x="992.3804347826086" y="932.6304347826086"/>
      <point x="831.1521739130435" y="796.7391304347826"/>
      <point x="668.7173913043478" y="796.7391304347825" type="curve" smooth="yes"/>
      <point x="537.2499999999999" y="796.7391304347826"/>
      <point x="450.2717391304348" y="795.0543478260869"/>
      <point x="394.3369565217391" y="797.7391304347826" type="curve"/>
    </contour>
  </outline>
</glyph>
<glyph name="C" format="2">
  <advance width="1309.413043478261"/>
  <unicode hex="0043"/>
  <anchor x="641.6413043478261" y="0.0" name="bottom"/>
  <anchor x="823.1304347826087" y="1486.0" name="top"/>
  <outline>
    <contour>
      <point x="704.2934782608695" y="-22.315217391304348" type="curve" smooth="yes"/>
      <point x="940.3804347826086" y="-22.315217391304348"/>
      <point x="1067.3804347826087" y="49.09782608695652"/>
      <point x="1151.586956521739" y="68.27173913043477" type="curve"/>
      <point x="1199.9347826086957" y="413.01086956521743" type="line"/>
      <point x="1093.7934782608697" y="413.01086956521743" type="line"/>
      <point x="1077.0" y="340.0652173913044"/>
      <point x="1034.880434782609" y="213.44565217391303"/>
      <point x="1013.5108695652171" y="153.16304347826087" type="curve"/>
      <point x="973.5543478260869" y="90.20652173913044"/>
      <point x="835.9673913043478" y="30.576086956521742"/>
      <point x="726.9891304347826" y="30.576086956521742" type="curve" smooth="yes"/>
      <point x="475.445652173913" y="30.576086956521742"/>
      <point x="320.60869565217394" y="227.2934782608695"/>
      <point x="320.6086956521739" y="613.1413043478261" type="curve" smooth="yes"/>
      <point x="320.6086956521739" y="1022.5326086956521"/>
      <point x="485.1086956521738" y="1449.7391304347825"/>
      <point x="867.2826086956522" y="1449.7391304347825" type="curve" smooth="yes"/>
      <point x="1013.945652173913" y="1449.7391304347825"/>
      <point x="1071.3260869565217" y="1403.2608695652173"/>
      <point x="1111.1847826086955" y="1373.6847826086955" type="curve"/>
      <point x="1133.9673913043478" y="1063.5217391304348" type="line"/>
      <point x="1253.5108695652173" y="1063.5217391304348" type="line"/>
      <point x="1317.663043478261" y="1444.5217391304348" type="line"/>
      <point x="1231.4347826086957" y="1451.3695652173913"/>
      <point x="1093.4782608695652" y="1503.2608695652175"/>
      <point x="876.25" y="1503.2608695652175" type="curve" smooth="yes"/>
      <point x="400.9673913043478" y="1503.2608695652175"/>
      <point x="72.85869565217392" y="1127.8913043478262"/>
      <point x="72.17391304347827" y="614.0" type="curve" smooth="yes"/>
      <point x="71.48913043478261" y="243.94565217391303"/>
      <point x="277.804347826087" y="-22.315217391304348"/>
    </contour>
  </outline>
</glyph>
<glyph name="D" format="2">
  <advance width="1403.8152173913043"/>
  <unicode hex="0044"/>
  <anchor x="344.8667282608696" y="748.0" name="bar"/>
  <anchor x="578.695652173913" y="0.0" name="bottom"/>
  <anchor x="781.195652173913" y="1484.6304347826087" name="top"/>
  <outline>
    <contour>
      <point x="159.90217391304347" y="1486.0" type="line"/>
      <point x="154.90217391304347" y="1450.0" type="line"/>
      <point x="278.3804347826087" y="1417.7934782608695" type="line"/>
      <point x="93.01086956521738" y="68.57608695652173" type="line"/>
      <point x="-41.09782608695652" y="36.630434782608695" type="line"/>
      <point x="-46.097826086956516" y="0.0" type="line"/>
      <point x="208.47826086956525" y="0.0" type="line" smooth="yes"/>
      <point x="361.1630434782609" y="0.0"/>
      <point x="436.8586956521739" y="-18.206521739130434"/>
      <point x="569.0108695652175" y="-18.206521739130434" type="curve" smooth="yes"/>
      <point x="1108.782608695652" y="-18.206521739130434"/>
      <point x="1400.0108695652173" y="409.9347826086957"/>
      <point x="1400.0108695652175" y="893.0108695652175" type="curve" smooth="yes"/>
      <point x="1400.0108695652175" y="1238.358695652174"/>
      <point x="1213.9782608695652" y="1502.945652173913"/>
      <point x="770.0217391304348" y="1502.945652173913" type="curve" smooth="yes"/>
      <point x="672.9673913043478" y="1502.945652173913"/>
      <point x="556.9891304347826" y="1487.3695652173913"/>
      <point x="441.2826086956522" y="1486.0" type="curve"/>
    </contour>
    <contour>
      <point x="317.77173913043475" y="25.478260869565226" type="line"/>
      <point x="514.7173913043479" y="1461.0434782608695" type="line"/>
      <point x="474.40217391304344" y="1407.217391304348" type="line"/>
      <point x="526.6304347826086" y="1425.4239130434783"/>
      <point x="638.6630434782609" y="1448.3695652173913"/>
      <point x="726.25" y="1448.3695652173913" type="curve" smooth="yes"/>
      <point x="1022.0434782608695" y="1448.3695652173913"/>
      <point x="1153.4673913043478" y="1245.3804347826085"/>
      <point x="1153.467391304348" y="888.3586956521739" type="curve" smooth="yes"/>
      <point x="1153.4673913043478" y="507.6413043478261"/>
      <point x="964.2608695652177" y="36.05434782608696"/>
      <point x="556.0108695652174" y="36.05434782608696" type="curve" smooth="yes"/>
      <point x="441.9673913043479" y="36.05434782608696"/>
      <point x="357.9130434782608" y="60.42391304347828"/>
      <point x="289.23913043478257" y="81.01086956521738" type="curve"/>
    </contour>
  </outline>
</glyph>
<glyph name="G" format="2">
  <advance width="1392.3260869565217"/>
  <unicode hex="0047"/>
  <anchor x="961.6630434782609" y="397.0" name="bar"/>
  <anchor x="676.7826086956522" y="0.0" name="bottom"/>
  <anchor x="882.2499999999999" y="1486.0" name="top"/>
  <outline>
    <contour>
      <point x="690.9456521739129" y="-18.206521739130434" type="curve" smooth="yes"/>
      <point x="829.8695652173913" y="-18.206521739130434"/>
      <point x="956.4891304347827" y="25.108695652173914"/>
      <point x="1049.8913043478258" y="51.42391304347826" type="curve" smooth="yes"/>
      <point x="1122.0108695652175" y="72.6413043478261"/>
      <point x="1165.108695652174" y="82.95652173913044"/>
      <point x="1208.8913043478262" y="85.69565217391305" type="curve"/>
      <point x="1303.5652173913045" y="712.6739130434783" type="line"/>
      <point x="840.4239130434784" y="712.6739130434783" type="line"/>
      <point x="834.0543478260871" y="657.5000000000001" type="line"/>
      <point x="1074.0108695652175" y="634.6739130434784" type="line"/>
      <point x="1001.5" y="135.78260869565216" type="line"/>
      <point x="930.0108695652173" y="82.44565217391305"/>
      <point x="807.7065217391305" y="36.05434782608696"/>
      <point x="697.9456521739131" y="36.05434782608696" type="curve" smooth="yes"/>
      <point x="423.4673913043478" y="36.05434782608696"/>
      <point x="321.14130434782606" y="319.3152173913044"/>
      <point x="321.14130434782606" y="621.7826086956521" type="curve" smooth="yes"/>
      <point x="321.14130434782606" y="1033.3695652173913"/>
      <point x="490.4021739130435" y="1448.3695652173913"/>
      <point x="871.7173913043478" y="1448.3695652173913" type="curve" smooth="yes"/>
      <point x="1030.9782608695652" y="1448.3695652173913"/>
      <point x="1105.032608695652" y="1406.836956521739"/>
      <point x="1151.7934782608695" y="1374.9347826086957" type="curve"/>
      <point x="1166.9347826086957" y="1130.4021739130435" type="line"/>
      <point x="1286.358695652174" y="1130.4021739130435" type="line"/>
      <point x="1343.304347826087" y="1444.5217391304348" type="line"/>
      <point x="1324.7934782608697" y="1445.2065217391303"/>
      <point x="1305.1195652173917" y="1448.521739130435"/>
      <point x="1269.0108695652175" y="1455.891304347826" type="curve"/>
      <point x="1205.9782608695652" y="1468.467391304348"/>
      <point x="1086.8043478260872" y="1503.2608695652175"/>
      <point x="888.5652173913044" y="1503.2608695652175" type="curve" smooth="yes"/>
      <point x="400.1086956521739" y="1503.2608695652175"/>
      <point x="72.54347826086958" y="1126.945652173913"/>
      <point x="72.54347826086958" y="616.5326086956521" type="curve" smooth="yes"/>
      <point x="72.54347826086958" y="302.695652173913"/>
      <point x="217.804347826087" y="-18.206521739130434"/>
    </contour>
  </outline>
</glyph>
<glyph name="H" format="2">
  <advance width="1463.8695652173913"/>
  <unicode hex="0048"/>
  <anchor x="672.858695652174" y="0.0" name="bottom"/>
  <anchor x="1373.8152173913043" y="0.0" name="bottomright"/>
  <anchor x="874.9130434782609" y="1486.0" name="top"/>
  <outline>
    <contour>
      <point x="-46.097826086956516" y="0.0" type="line"/>
      <point x="461.4130434782609" y="0.0" type="line"/>
      <point x="467.04347826086956" y="36.630434782608695" type="line"/>
      <point x="323.40217391304355" y="68.57608695652173" type="line"/>
      <point x="508.7717391304349" y="1417.7934782608695" type="line"/>
      <point x="661.1413043478261" y="1450.0" type="line"/>
      <point x="665.8260869565217" y="1486.0" type="line"/>
      <point x="159.90217391304347" y="1486.0" type="line"/>
      <point x="154.90217391304347" y="1450.0" type="line"/>
      <point x="278.3804347826087" y="1417.7934782608695" type="line"/>
      <point x="93.01086956521738" y="68.57608695652173" type="line"/>
      <point x="-41.09782608695652" y="36.630434782608695" type="line"/>
    </contour>
    <contour>
      <point x="364.3804347826087" y="731.6847826086957" type="line"/>
      <point x="1184.5108695652175" y="731.6847826086957" type="line"/>
      <point x="1184.5108695652173" y="797.6847826086956" type="line"/>
      <point x="364.38043478260875" y="797.6847826086956" type="line"/>
    </contour>
    <contour>
      <point x="875.3586956521739" y="0.0" type="line"/>
      <point x="1370.7065217391305" y="0.0" type="line"/>
      <point x="1376.0217391304348" y="36.94565217391304" type="line"/>
      <point x="1256.6521739130435" y="68.57608695652173" type="line"/>
      <point x="1442.0217391304348" y="1417.7934782608695" type="line"/>
      <point x="1564.804347826087" y="1450.0" type="line"/>
      <point x="1568.858695652174" y="1486.0" type="line"/>
      <point x="1074.25" y="1486.0" type="line"/>
      <point x="1069.25" y="1450.0" type="line"/>
      <point x="1211.6304347826085" y="1417.7934782608695" type="line"/>
      <point x="1026.2608695652175" y="68.57608695652173" type="line"/>
      <point x="880.3586956521739" y="36.94565217391304" type="line"/>
    </contour>
  </outline>
</glyph>
<glyph name="I" format="2">
  <advance width="601.2608695652174"/>
  <unicode hex="0049"/>
  <anchor x="244.6195652173913" y="0.0" name="bottom"/>
  <anchor x="436.26086956521743" y="-164.0" name="btm"/>
  <anchor x="250.3695652173913" y="0.0" name="ogonek"/>
  <anchor x="443.30434782608694" y="1486.0" name="top"/>
  <anchor x="165.6086956521739" y="1486.0" name="topleft"/>
  <outline>
    <contour>
      <point x="-34.630434782608695" y="0.0" type="line"/>
      <point x="504.3695652173913" y="0.0" type="line"/>
      <point x="510.05434782608694" y="36.94565217391304" type="line"/>
      <point x="357.0434782608695" y="68.57608695652173" type="line"/>
      <point x="542.782608695652" y="1417.7934782608695" type="line"/>
      <point x="692.3695652173914" y="1450.0" type="line"/>
      <point x="697.0543478260869" y="1486.0" type="line"/>
      <point x="179.58695652173913" y="1486.0" type="line"/>
      <point x="174.58695652173915" y="1450.0" type="line"/>
      <point x="311.7608695652174" y="1417.7934782608695" type="line"/>
      <point x="126.02173913043477" y="68.57608695652173" type="line"/>
      <point x="-29.630434782608702" y="36.94565217391304" type="line"/>
    </contour>
  </outline>
</glyph>
<glyph name="L" format="2">
  <advance width="1175.021739130435"/>
  <unicode hex="004C"/>
  <anchor x="529.8369565217391" y="0.0" name="bottom"/>
  <anchor x="873.8369565217391" y="1110.0" name="car"/>
  <anchor x="955.1521739130435" y="1618.0" name="caron"/>
  <anchor x="308.2608695652174" y="743.0" name="center"/>
  <anchor x="417.5326086956522" y="1486.0" name="top"/>
  <anchor x="1291.685923913043" y="1486.0" name="topright"/>
  <outline>
    <contour>
      <point x="-46.09782608695652" y="0.0" type="line"/>
      <point x="980.4565217391305" y="0.0" type="line"/>
      <point x="1086.391304347826" y="454.8369565217391" type="line"/>
      <point x="988.7173913043478" y="469.04347826086956" type="line"/>
      <point x="826.9673913043479" y="91.53260869565219" type="line"/>
      <point x="323.82608695652175" y="63.271739130434796" type="line"/>
      <point x="508.7717391304348" y="1417.7934782608695" type="line"/>
      <point x="666.2065217391306" y="1450.0" type="line"/>
      <point x="670.8913043478261" y="1486.0" type="line"/>
      <point x="159.90217391304347" y="1486.0" type="line"/>
      <point x="154.9021739130435" y="1450.0" type="line"/>
      <point x="278.3804347826087" y="1417.7934782608695" type="line"/>
      <point x="93.01086956521738" y="68.57608695652175" type="line"/>
      <point x="-41.097826086956516" y="36.630434782608695" type="line"/>
    </contour>
  </outline>
</glyph>
<glyph name="N" format="2">
  <advance width="1388.3586956521738"/>
  <unicode hex="004E"/>
  <anchor x="719.8260869565217" y="0.0" name="bottom"/>
  <anchor x="885.4782608695652" y="1486.0" name="top"/>
  <outline>
    <contour>
      <point x="-45.152173913043484" y="0.0" type="line"/>
      <point x="372.1630434782608" y="0.0" type="line"/>
      <point x="377.1630434782608" y="35.99999999999999" type="line"/>
      <point x="212.6521739130435" y="67.20652173913044" type="line"/>
      <point x="359.6630434782609" y="1423.8804347826087" type="line"/>
      <point x="325.7282608695652" y="1419.304347826087" type="line"/>
      <point x="452.77173913043487" y="1089.5000000000002" type="line"/>
      <point x="984.2608695652175" y="0.0" type="line"/>
      <point x="1148.5108695652173" y="0.0" type="line"/>
      <point x="1342.0978260869565" y="1417.8478260869565" type="line"/>
      <point x="1489.532608695652" y="1450.0" type="line"/>
      <point x="1493.5869565217392" y="1486.0" type="line"/>
      <point x="1082.5760869565217" y="1486.0" type="line"/>
      <point x="1077.5760869565217" y="1450.0" type="line"/>
      <point x="1238.3586956521738" y="1417.8478260869567" type="line"/>
      <point x="1098.1195652173913" y="119.47826086956523" type="line"/>
      <point x="1135.0108695652175" y="138.3913043478261" type="line"/>
      <point x="1018.4347826086959" y="435.9239130434783" type="line"/>
      <point x="507.4239130434782" y="1486.0" type="line"/>
      <point x="163.79347826086956" y="1486.0" type="line"/>
      <point x="158.47826086956522" y="1449.054347826087" type="line"/>
      <point x="294.7608695652174" y="1417.163043478261" type="line"/>
      <point x="104.18478260869566" y="67.20652173913042" type="line"/>
      <point x="-40.413043478260875" y="35.99999999999999" type="line"/>
    </contour>
  </outline>
</glyph>
<glyph name="T" format="2">
  <advance width="1345.2826086956522"/>
  <unicode hex="0054"/>
  <anchor x="610.1304347826086" y="0.0" name="bottom"/>
  <anchor x="968.8043478260869" y="0.0" name="bottomright"/>
  <anchor x="709.2555217391305" y="743.0" name="center"/>
  <anchor x="804.1304347826086" y="1486.0" name="top"/>
  <outline>
    <contour>
      <point x="263.4021739130435" y="0.0" type="line"/>
      <point x="963.2282608695652" y="0.0" type="line"/>
      <point x="968.5978260869567" y="36.94565217391304" type="line"/>
      <point x="728.7282608695652" y="68.52173913043478" type="line"/>
      <point x="915.4130434782609" y="1424.4130434782608" type="line"/>
      <point x="1229.6521739130433" y="1410.6195652173913" type="line"/>
      <point x="1286.2934782608697" y="1029.1739130434785" type="line"/>
      <point x="1375.8695652173913" y="1030.5434782608695" type="line"/>
      <point x="1404.445652173913" y="1486.0" type="line"/>
      <point x="202.94565217391306" y="1486.0" type="line"/>
      <point x="114.69565217391305" y="1030.5434782608695" type="line"/>
      <point x="211.6304347826087" y="1031.9130434782608" type="line"/>
      <point x="367.1630434782609" y="1410.6195652173913" type="line"/>
      <point x="684.0760869565217" y="1424.4130434782608" type="line"/>
      <point x="497.391304347826" y="68.52173913043478" type="line"/>
      <point x="268.4021739130435" y="36.94565217391304" type="line"/>
    </contour>
  </outline>
</glyph>
<glyph name="V" format="2">
  <advance width="1324.0108695652173"/>
  <unicode hex="0056"/>
  <anchor x="884.8369565217392" y="1660.0" name="top"/>
  <outline>
    <contour>
      <point x="476.75" y="-13.695652173913045" type="line"/>
      <point x="660.9565217391304" y="-8.217391304347826" type="line"/>
      <point x="1341.2173913043478" y="1425.2173913043478" type="line"/>
      <point x="1468.9999999999998" y="1450.6304347826087" type="line"/>
      <point x="1474.0" y="1486.0" type="line"/>
      <point x="1054.6195652173913" y="1486.0" type="line"/>
      <point x="1049.6195652173913" y="1450.6304347826087" type="line"/>
      <point x="1231.326086956522" y="1423.163043478261" type="line"/>
      <point x="721.3260869565217" y="295.92391304347825" type="line"/>
      <point x="620.2065217391304" y="61.51086956521739" type="line"/>
      <point x="658.3152173913044" y="71.10869565217389" type="line"/>
      <point x="627.75" y="304.5434782608696" type="line"/>
      <point x="419.29347826086956" y="1418.108695652174" type="line"/>
      <point x="609.641304347826" y="1449.3695652173913" type="line"/>
      <point x="614.641304347826" y="1486.0" type="line"/>
      <point x="77.26086956521739" y="1486.0" type="line"/>
      <point x="73.26086956521739" y="1449.3695652173913" type="line"/>
      <point x="190.31521739130434" y="1421.5326086956522" type="line"/>
    </contour>
  </outline>
</glyph>
<glyph name="Y" format="2">
  <advance width="1227.5326086956522"/>
  <unicode hex="0059"/>
  <anchor x="561.2282608695652" y="0.0" name="bottom"/>
  <anchor x="617.2934782608696" y="469.0" name="center"/>
  <anchor x="759.7826086956521" y="1486.0" name="top"/>
  <anchor x="164.01086956521738" y="1486.0" name="topleft"/>
  <outline>
    <contour>
      <point x="211.0" y="0.0" type="line"/>
      <point x="909.4565217391305" y="0.0" type="line"/>
      <point x="914.1413043478261" y="36.94565217391305" type="line"/>
      <point x="672.3804347826086" y="71.67391304347827" type="line"/>
      <point x="755.9021739130434" y="677.163043478261" type="line"/>
      <point x="687.445652173913" y="524.0217391304348" type="line"/>
      <point x="1260.9021739130435" y="1427.3260869565217" type="line"/>
      <point x="1388.8369565217392" y="1450.0" type="line"/>
      <point x="1393.8369565217392" y="1486.0" type="line"/>
      <point x="993.054347826087" y="1486.0" type="line"/>
      <point x="988.054347826087" y="1450.0" type="line"/>
      <point x="1145.4347826086955" y="1425.9565217391305" type="line"/>
      <point x="776.9782608695654" y="806.5108695652174" type="line"/>
      <point x="658.2500000000001" y="598.2173913043479" type="line"/>
      <point x="727.0108695652174" y="630.891304347826" type="line"/>
      <point x="661.5869565217392" y="830.0543478260869" type="line"/>
      <point x="428.0869565217391" y="1424.6956521739132" type="line"/>
      <point x="607.9347826086956" y="1450.0" type="line"/>
      <point x="612.9347826086957" y="1486.0" type="line"/>
      <point x="70.69565217391303" y="1486.0" type="line"/>
      <point x="65.69565217391303" y="1450.0" type="line"/>
      <point x="184.804347826087" y="1425.9565217391305" type="line"/>
      <point x="562.8695652173913" y="513.0326086956521" type="line"/>
      <point x="526.0326086956521" y="688.6956521739131" type="line"/>
      <point x="441.04347826086956" y="71.67391304347827" type="line"/>
      <point x="216.00000000000003" y="36.94565217391305" type="line"/>
    </contour>
  </outline>
</glyph>
<glyph name="Z" format="2">
  <advance width="1283.054347826087"/>
  <unicode hex="005A"/>
  <anchor x="593.663043478261" y="0.0" name="bottom"/>
  <anchor x="780.3695652173913" y="1486.0" name="top"/>
  <outline>
    <contour>
      <point x="-3.3152173913043477" y="0.0" type="line"/>
      <point x="1107.8804347826087" y="0.0" type="line"/>
      <point x="1204.7717391304348" y="383.2065217391305" type="line"/>
      <point x="1101.9999999999998" y="402.5217391304348" type="line"/>
      <point x="949.0" y="94.69565217391303" type="line"/>
      <point x="238.4891304347826" y="62.21739130434782" type="line"/>
      <point x="414.7173913043478" y="257.02173913043475" type="line"/>
      <point x="1317.5108695652173" y="1455.3152173913043" type="line"/>
      <point x="1304.1956521739132" y="1486.0" type="line"/>
      <point x="271.90217391304344" y="1486.0" type="line"/>
      <point x="207.02173913043478" y="1123.945652173913" type="line"/>
      <point x="303.57608695652175" y="1117.0978260869567" type="line"/>
      <point x="433.02173913043475" y="1402.2065217391305" type="line"/>
      <point x="1064.0217391304348" y="1423.4673913043478" type="line"/>
      <point x="871.8804347826087" y="1212.3260869565217" type="line"/>
      <point x="-15.630434782608697" y="33.10869565217391" type="line"/>
    </contour>
  </outline>
</glyph>
<glyph name="grave" format="2">
  <advance width="785.358695652174"/>
  <unicode hex="0060"/>
  <anchor x="595.2608695652174" y="1108.6304347826087" name="_top"/>
  <anchor x="675.9891304347826" y="1670.8695652173913" name="top"/>
  <outline>
    <contour>
      <point x="707.0000000000001" y="1126.478260869565" type="curve"/>
      <point x="733.9891304347826" y="1149.836956521739" type="line"/>
      <point x="423.8478260869565" y="1589.9565217391305" type="line"/>
      <point x="272.05434782608694" y="1465.695652173913" type="line"/>
      <point x="372.92391304347825" y="1354.7608695652175"/>
      <point x="553.25" y="1218.663043478261"/>
    </contour>
  </outline>
</glyph>
<glyph name="d" format="2">
  <advance width="1096.967391304348"/>
  <unicode hex="0064"/>
  <anchor x="499.55434782608694" y="0.0" name="bottom"/>
  <anchor x="1213.4782608695652" y="1622.0" name="caron"/>
  <anchor x="366.7608695652174" y="1110.0" name="top"/>
  <outline>
    <contour>
      <point x="899.1630434782608" y="154.55434782608697" type="curve"/>
      <point x="1120.1195652173913" y="1613.2717391304348" type="line"/>
      <point x="1091.032608695652" y="1634.0" type="line"/>
      <point x="750.3260869565217" y="1591.641304347826" type="line"/>
      <point x="745.3260869565217" y="1563.1195652173913" type="line"/>
      <point x="909.2826086956522" y="1531.076086956522" type="line"/>
      <point x="832.0652173913044" y="1003.5652173913043" type="line"/>
      <point x="804.8152173913043" y="1016.6739130434785"/>
      <point x="749.1739130434783" y="1034.6847826086957"/>
      <point x="654.8152173913044" y="1034.6847826086957" type="curve" smooth="yes"/>
      <point x="303.4130434782609" y="1034.6847826086957"/>
      <point x="24.0" y="734.7717391304346"/>
      <point x="24.0" y="334.45652173913044" type="curve" smooth="yes"/>
      <point x="24.0" y="118.5"/>
      <point x="160.81521739130434" y="-21.630434782608695"/>
      <point x="349.67391304347825" y="-21.630434782608695" type="curve" smooth="yes"/>
      <point x="516.2826086956522" y="-21.630434782608695"/>
      <point x="667.3152173913044" y="98.42391304347827"/>
      <point x="724.1086956521739" y="255.0108695652174" type="curve"/>
      <point x="704.2608695652175" y="133.57608695652175" type="line" smooth="yes"/>
      <point x="689.8369565217392" y="43.576086956521735"/>
      <point x="723.4021739130434" y="-21.630434782608695"/>
      <point x="822.5434782608696" y="-21.630434782608695" type="curve" smooth="yes"/>
      <point x="932.891304347826" y="-21.630434782608695"/>
      <point x="1019.1413043478262" y="41.94565217391305"/>
      <point x="1061.5978260869565" y="103.51086956521739" type="curve"/>
      <point x="1041.391304347826" y="139.1304347826087" type="line"/>
      <point x="1006.9130434782609" y="97.22826086956522"/>
      <point x="965.6413043478259" y="79.43478260869566"/>
      <point x="940.5869565217391" y="79.43478260869566" type="curve" smooth="yes"/>
      <point x="898.9999999999999" y="79.43478260869566"/>
      <point x="893.1630434782609" y="111.8695652173913"/>
    </contour>
    <contour>
      <point x="816.0108695652174" y="912.5108695652174" type="curve"/>
      <point x="732.858695652174" y="371.25" type="line"/>
      <point x="691.3695652173913" y="192.17391304347825"/>
      <point x="536.7826086956521" y="63.4891304347826"/>
      <point x="417.9782608695652" y="63.4891304347826" type="curve" smooth="yes"/>
      <point x="318.20652173913044" y="63.4891304347826"/>
      <point x="242.98913043478257" y="159.47826086956522"/>
      <point x="242.98913043478257" y="315.48913043478257" type="curve" smooth="yes"/>
      <point x="242.98913043478257" y="638.3804347826087"/>
      <point x="402.54347826086956" y="988.9021739130434"/>
      <point x="659.7391304347826" y="988.9021739130434" type="curve" smooth="yes"/>
      <point x="734.2826086956521" y="988.9021739130434"/>
      <point x="800.3695652173911" y="954.0000000000001"/>
    </contour>
  </outline>
</glyph>
<glyph name="f" format="2">
  <advance width="641.3369565217392"/>
  <unicode hex="0066"/>
  <anchor x="260.36956521739125" y="1544.0" name="top"/>
  <outline>
    <contour>
      <point x="249.44565217391306" y="1138.0217391304348" type="curve" smooth="yes"/>
      <point x="231.33695652173913" y="1005.6304347826086" type="line"/>
      <point x="57.53260869565218" y="945.0978260869565" type="line"/>
      <point x="51.902173913043484" y="917.0" type="line"/>
      <point x="219.65217391304347" y="917.0" type="line"/>
      <point x="109.66304347826087" y="93.58695652173911" type="line" smooth="yes"/>
      <point x="52.43478260869565" y="-330.8478260869565"/>
      <point x="-6.326086956521735" y="-450.4347826086956"/>
      <point x="-119.3804347826087" y="-450.4347826086956" type="curve" smooth="yes"/>
      <point x="-171.69565217391303" y="-450.4347826086956"/>
      <point x="-220.07608695652178" y="-395.9891304347826"/>
      <point x="-247.90217391304344" y="-356.25000000000006" type="curve"/>
      <point x="-283.5869565217391" y="-473.36956521739125" type="line"/>
      <point x="-238.90217391304347" y="-491.7391304347826"/>
      <point x="-185.16304347826087" y="-503.6847826086957"/>
      <point x="-125.54347826086958" y="-503.6847826086957" type="curve" smooth="yes"/>
      <point x="119.55434782608697" y="-503.6847826086957"/>
      <point x="250.38043478260875" y="-324.4782608695652"/>
      <point x="312.69565217391306" y="138.6086956521739" type="curve" smooth="yes"/>
      <point x="417.22826086956525" y="917.0" type="line"/>
      <point x="657.9021739130435" y="917.0" type="line"/>
      <point x="669.5326086956522" y="1004.9999999999999" type="line"/>
      <point x="429.2826086956522" y="1004.9999999999999" type="line"/>
      <point x="453.75" y="1190.7391304347825" type="line" smooth="yes"/>
      <point x="491.5434782608695" y="1474.9239130434783"/>
      <point x="560.6086956521739" y="1574.4891304347827"/>
      <point x="673.4239130434781" y="1574.4891304347827" type="curve" smooth="yes"/>
      <point x="742.2173913043479" y="1574.4891304347827"/>
      <point x="808.1521739130435" y="1512.782608695652"/>
      <point x="832.0869565217391" y="1463.5108695652173" type="curve"/>
      <point x="877.4565217391304" y="1595.3152173913043" type="line"/>
      <point x="828.4021739130435" y="1616.054347826087"/>
      <point x="764.0434782608695" y="1629.3152173913043"/>
      <point x="678.5217391304348" y="1629.3152173913043" type="curve" smooth="yes"/>
      <point x="445.3369565217392" y="1629.3152173913043"/>
      <point x="292.6630434782609" y="1453.0108695652173"/>
    </contour>
  </outline>
</glyph>
<glyph name="h" format="2">
  <advance width="1110.3369565217395"/>
  <unicode hex="0068"/>
  <anchor x="506.32608695652175" y="0.0" name="bottom"/>
  <anchor x="984.2608695652175" y="0.0" name="bottomright"/>
  <anchor x="193.7608695652174" y="1814.0" name="cap"/>
  <anchor x="362.0434782608695" y="1292.0" name="tbar"/>
  <anchor x="352.88043478260875" y="1543.0326086956522" name="top"/>
  <outline>
    <contour>
      <point x="337.5326086956522" y="623.4021739130435" type="curve"/>
      <point x="485.75" y="1613.2717391304348" type="line"/>
      <point x="456.6630434782609" y="1634.0" type="line"/>
      <point x="130.16304347826087" y="1591.6413043478262" type="line"/>
      <point x="125.16304347826087" y="1563.1195652173913" type="line"/>
      <point x="276.8586956521739" y="1532.7065217391305" type="line"/>
      <point x="45.326086956521735" y="0.0" type="line"/>
      <point x="243.95652173913047" y="0.0" type="line"/>
      <point x="318.1630434782609" y="501.49999999999994" type="line"/>
      <point x="388.9673913043478" y="710.6739130434783"/>
      <point x="574.4891304347825" y="904.8586956521739"/>
      <point x="702.4673913043479" y="904.8586956521739" type="curve" smooth="yes"/>
      <point x="776.6847826086957" y="904.8586956521739"/>
      <point x="812.3913043478261" y="868.3804347826087"/>
      <point x="812.3913043478261" y="798.054347826087" type="curve" smooth="yes"/>
      <point x="812.3913043478261" y="744.5217391304349"/>
      <point x="792.391304347826" y="598.1847826086956"/>
      <point x="768.9130434782609" y="458.6521739130435" type="curve" smooth="yes"/>
      <point x="744.3260869565217" y="313.67391304347825"/>
      <point x="717.3260869565217" y="143.63043478260872"/>
      <point x="717.3260869565217" y="93.20652173913044" type="curve" smooth="yes"/>
      <point x="717.3260869565217" y="8.684782608695652"/>
      <point x="769.6304347826087" y="-21.945652173913043"/>
      <point x="835.141304347826" y="-21.945652173913043" type="curve" smooth="yes"/>
      <point x="953.6195652173913" y="-21.945652173913043"/>
      <point x="1033.9565217391307" y="41.293478260869556"/>
      <point x="1082.8478260869563" y="104.19565217391303" type="curve"/>
      <point x="1061.9565217391303" y="139.8695652173913" type="line"/>
      <point x="1022.7934782608695" y="96.91304347826087"/>
      <point x="991.2173913043478" y="80.80434782608695"/>
      <point x="966.4782608695655" y="80.80434782608695" type="curve" smooth="yes"/>
      <point x="940.945652173913" y="80.80434782608695"/>
      <point x="928.1086956521738" y="95.91304347826087"/>
      <point x="928.1086956521738" y="137.75" type="curve" smooth="yes"/>
      <point x="930.945652173913" y="195.16304347826087"/>
      <point x="953.6847826086956" y="337.79347826086956"/>
      <point x="974.2173913043479" y="465.2391304347826" type="curve" smooth="yes"/>
      <point x="996.4347826086957" y="605.4239130434783"/>
      <point x="1020.5434782608694" y="747.7173913043479"/>
      <point x="1020.5434782608694" y="823.2717391304348" type="curve" smooth="yes"/>
      <point x="1020.5434782608694" y="949.5978260869564"/>
      <point x="947.4782608695651" y="1031.0"/>
      <point x="805.554347826087" y="1031.0" type="curve" smooth="yes"/>
      <point x="603.1413043478261" y="1031.0"/>
      <point x="437.6195652173913" y="841.2934782608696"/>
    </contour>
  </outline>
</glyph>
<glyph name="s" format="2">
  <advance width="798.6847826086957"/>
  <unicode hex="0073"/>
  <anchor x="332.61956521739125" y="0.0" name="bottom"/>
  <anchor x="498.5978260869566" y="1110.0" name="top"/>
  <outline>
    <contour>
      <point x="736.0978260869565" y="787.3369565217392" type="line"/>
      <point x="778.0434782608696" y="985.5760869565217" type="line"/>
      <point x="696.1521739130435" y="1011.6847826086957"/>
      <point x="614.1739130434783" y="1027.0543478260868"/>
      <point x="487.80434782608694" y="1027.0543478260868" type="curve" smooth="yes"/>
      <point x="277.00000000000006" y="1027.0543478260868"/>
      <point x="101.92391304347825" y="913.1630434782609"/>
      <point x="101.92391304347825" y="713.4021739130436" type="curve" smooth="yes"/>
      <point x="101.92391304347825" y="576.5652173913044"/>
      <point x="212.28260869565216" y="501.72826086956525"/>
      <point x="332.2826086956522" y="433.304347826087" type="curve" smooth="yes"/>
      <point x="454.84782608695656" y="363.7826086956522"/>
      <point x="534.2826086956522" y="302.88043478260875"/>
      <point x="534.2826086956522" y="210.6086956521739" type="curve" smooth="yes"/>
      <point x="534.2826086956522" y="102.4782608695652"/>
      <point x="446.42391304347825" y="29.782608695652176"/>
      <point x="338.58695652173907" y="29.782608695652176" type="curve" smooth="yes"/>
      <point x="200.78260869565216" y="29.782608695652176"/>
      <point x="121.04347826086958" y="118.92391304347827"/>
      <point x="84.34782608695652" y="262.77173913043475" type="curve"/>
      <point x="45.69565217391305" y="262.77173913043475" type="line"/>
      <point x="-4.4565217391304355" y="47.47826086956522" type="line"/>
      <point x="63.85869565217392" y="6.8478260869565215"/>
      <point x="181.5217391304348" y="-21.57608695652174"/>
      <point x="321.5217391304348" y="-21.57608695652174" type="curve" smooth="yes"/>
      <point x="538.25" y="-21.57608695652174"/>
      <point x="719.0326086956522" y="98.41304347826087"/>
      <point x="719.0326086956522" y="291.1195652173913" type="curve" smooth="yes"/>
      <point x="719.0326086956522" y="433.38043478260863"/>
      <point x="630.554347826087" y="504.22826086956525"/>
      <point x="479.08695652173924" y="594.3369565217391" type="curve" smooth="yes"/>
      <point x="359.9347826086956" y="665.0760869565216"/>
      <point x="276.60869565217394" y="718.9239130434781"/>
      <point x="276.60869565217394" y="814.7717391304349" type="curve" smooth="yes"/>
      <point x="276.60869565217394" y="914.5108695652174"/>
      <point x="368.66304347826093" y="976.0108695652173"/>
      <point x="470.9565217391304" y="976.0108695652173" type="curve" smooth="yes"/>
      <point x="596.0108695652174" y="976.0108695652173"/>
      <point x="661.9130434782609" y="906.8586956521738"/>
      <point x="697.3369565217392" y="787.3369565217392" type="curve"/>
    </contour>
  </outline>
</glyph>
<glyph name="u" format="2">
  <advance width="1089.6195652173915"/>
  <unicode hex="0075"/>
  <anchor x="502.20652173913044" y="0.0" name="bottom"/>
  <anchor x="960.5434782608697" y="0.0" name="bottomright"/>
  <anchor x="898.0760869565217" y="0.0" name="ogonek"/>
  <anchor x="616.6521739130435" y="1110.0" name="top"/>
  <anchor x="912.3586956521739" y="1005.0" name="topright"/>
  <outline>
    <contour>
      <point x="271.4239130434783" y="-22.57608695652174" type="curve" smooth="yes"/>
      <point x="464.9565217391305" y="-22.57608695652174"/>
      <point x="638.2608695652175" y="173.7173913043478"/>
      <point x="732.8695652173914" y="390.2391304347826" type="curve"/>
      <point x="735.5" y="390.2391304347826" type="line"/>
      <point x="722.8695652173913" y="303.9782608695652"/>
      <point x="692.2826086956522" y="130.93478260869566"/>
      <point x="692.2826086956522" y="94.46739130434783" type="curve" smooth="yes"/>
      <point x="692.2826086956522" y="36.64130434782609"/>
      <point x="721.7391304347826" y="-21.630434782608695"/>
      <point x="814.8804347826086" y="-21.630434782608695" type="curve" smooth="yes"/>
      <point x="927.4347826086957" y="-21.630434782608695"/>
      <point x="1014.3152173913043" y="41.94565217391305"/>
      <point x="1057.4021739130435" y="103.19565217391303" type="curve"/>
      <point x="1037.195652173913" y="139.1304347826087" type="line"/>
      <point x="1002.6086956521739" y="97.48913043478261"/>
      <point x="961.4456521739129" y="79.43478260869566"/>
      <point x="935.7065217391304" y="79.43478260869566" type="curve" smooth="yes"/>
      <point x="894.0652173913043" y="79.43478260869566"/>
      <point x="889.6521739130436" y="108.13043478260869"/>
      <point x="894.9673913043478" y="153.92391304347825" type="curve" smooth="yes"/>
      <point x="1023.8152173913044" y="1005.0000000000001" type="line"/>
      <point x="826.1847826086956" y="1005.0000000000001" type="line"/>
      <point x="751.3478260869565" y="502.0434782608694" type="line"/>
      <point x="666.586956521739" y="279.95652173913044"/>
      <point x="504.2282608695652" y="103.25000000000001"/>
      <point x="368.9347826086957" y="103.25000000000001" type="curve" smooth="yes"/>
      <point x="305.8152173913043" y="103.25000000000001"/>
      <point x="285.11956521739125" y="139.72826086956522"/>
      <point x="285.11956521739125" y="210.6413043478261" type="curve" smooth="yes"/>
      <point x="285.11956521739125" y="244.01086956521735"/>
      <point x="316.7608695652174" y="462.1086956521739"/>
      <point x="329.3369565217391" y="549.7717391304348" type="curve" smooth="yes"/>
      <point x="394.86956521739125" y="1000.9021739130434" type="line"/>
      <point x="359.7717391304348" y="1026.891304347826" type="line"/>
      <point x="60.53260869565217" y="973.3260869565216" type="line"/>
      <point x="56.217391304347835" y="945.4891304347826" type="line"/>
      <point x="182.18478260869563" y="909.4456521739131" type="line"/>
      <point x="129.1304347826087" y="543.1847826086956" type="line" smooth="yes"/>
      <point x="117.18478260869566" y="461.3043478260869"/>
      <point x="82.11956521739131" y="236.1304347826087"/>
      <point x="82.11956521739131" y="176.72826086956522" type="curve" smooth="yes"/>
      <point x="82.11956521739131" y="58.51086956521739"/>
      <point x="145.95652173913044" y="-22.57608695652174"/>
    </contour>
  </outline>
</glyph>
<glyph name="y" format="2">
  <advance width="968.4673913043479"/>
  <unicode hex="0079"/>
  <anchor x="844.0217391304349" y="0.0" name="bottom"/>
  <anchor x="586.695652173913" y="1110.0" name="top"/>
  <outline>
    <contour>
      <point x="157.80434782608697" y="862.641304347826" type="curve" smooth="yes"/>
      <point x="342.04347826086956" y="-40.22826086956522" type="line"/>
      <point x="464.7717391304348" y="-40.22826086956522" type="line"/>
      <point x="346.4347826086957" y="-240.80434782608697"/>
      <point x="257.6739130434783" y="-370.8478260869565"/>
      <point x="150.5326086956522" y="-370.8478260869565" type="curve" smooth="yes"/>
      <point x="83.6521739130435" y="-370.8478260869565"/>
      <point x="28.445652173913047" y="-324.2826086956522"/>
      <point x="-7.826086956521735" y="-290.2717391304348" type="curve"/>
      <point x="-57.11956521739131" y="-448.7391304347826" type="line"/>
      <point x="-9.804347826086959" y="-475.5869565217392"/>
      <point x="34.15217391304348" y="-492.4782608695652"/>
      <point x="98.89130434782608" y="-492.4782608695652" type="curve" smooth="yes"/>
      <point x="195.3586956521739" y="-492.4782608695652"/>
      <point x="270.3695652173913" y="-421.10869565217394"/>
      <point x="421.8152173913043" y="-197.18478260869563" type="curve" smooth="yes"/>
      <point x="527.6195652173913" y="-39.15217391304347"/>
      <point x="675.804347826087" y="217.25"/>
      <point x="772.9239130434783" y="374.9347826086956" type="curve" smooth="yes"/>
      <point x="912.554347826087" y="604.945652173913"/>
      <point x="969.25" y="745.0543478260869"/>
      <point x="969.2500000000002" y="869.9239130434783" type="curve" smooth="yes"/>
      <point x="969.2500000000001" y="967.4456521739131"/>
      <point x="929.0434782608697" y="1038.9456521739132"/>
      <point x="850.0869565217391" y="1038.9456521739132" type="curve" smooth="yes"/>
      <point x="798.0543478260871" y="1038.9456521739132"/>
      <point x="754.2282608695652" y="1000.0108695652175"/>
      <point x="754.2282608695651" y="944.6086956521739" type="curve" smooth="yes"/>
      <point x="754.2282608695652" y="865.6739130434783"/>
      <point x="827.5217391304348" y="823.75"/>
      <point x="829.4130434782609" y="734.9347826086957" type="curve" smooth="yes"/>
      <point x="830.9891304347826" y="639.4565217391304"/>
      <point x="776.6413043478261" y="514.1521739130435"/>
      <point x="638.8586956521739" y="262.9673913043478" type="curve" smooth="yes"/>
      <point x="509.63043478260863" y="26.413043478260875" type="line"/>
      <point x="461.69565217391306" y="282.7391304347826" type="line"/>
      <point x="424.3152173913043" y="500.9347826086956"/>
      <point x="393.6847826086957" y="707.4130434782609"/>
      <point x="366.89130434782606" y="885.4673913043479" type="curve" smooth="yes"/>
      <point x="350.8478260869565" y="982.3260869565217"/>
      <point x="329.9021739130435" y="1037.945652173913"/>
      <point x="225.83695652173913" y="1037.945652173913" type="curve" smooth="yes"/>
      <point x="132.59782608695653" y="1037.945652173913"/>
      <point x="47.72826086956522" y="980.3695652173911"/>
      <point x="4.576086956521737" y="921.4782608695652" type="curve"/>
      <point x="23.097826086956523" y="888.4891304347826" type="line"/>
      <point x="50.31521739130435" y="916.0760869565216"/>
      <point x="83.42391304347825" y="932.554347826087"/>
      <point x="109.90217391304347" y="932.554347826087" type="curve" smooth="yes"/>
      <point x="138.75000000000003" y="932.554347826087"/>
      <point x="147.06521739130437" y="915.8152173913043"/>
    </contour>
  </outline>
</glyph>
<glyph name="braceleft" format="2">
  <advance width="924.2934782608695"/>
  <unicode hex="007B"/>
  <outline>
    <contour>
      <point x="473.05434782608694" y="-243.67391304347825" type="curve" smooth="yes"/>
      <point x="557.2934782608695" y="-243.67391304347825"/>
      <point x="642.858695652174" y="-227.46739130434784"/>
      <point x="717.163043478261" y="-206.5217391304348" type="curve"/>
      <point x="723.4782608695652" y="-162.46739130434787" type="line"/>
      <point x="698.9673913043479" y="-165.5217391304348"/>
      <point x="627.25" y="-168.57608695652175"/>
      <point x="600.6304347826087" y="-168.57608695652175" type="curve" smooth="yes"/>
      <point x="486.9347826086956" y="-168.57608695652175"/>
      <point x="368.8913043478261" y="-124.32608695652175"/>
      <point x="391.3152173913043" y="36.228260869565226" type="curve" smooth="yes"/>
      <point x="409.0" y="160.2391304347826"/>
      <point x="495.63043478260875" y="327.5652173913044"/>
      <point x="515.945652173913" y="468.09782608695656" type="curve" smooth="yes"/>
      <point x="537.0434782608696" y="614.2173913043478"/>
      <point x="435.45652173913044" y="684.0652173913043"/>
      <point x="267.36956521739125" y="705.3804347826086" type="curve"/>
      <point x="441.77173913043475" y="728.3804347826087"/>
      <point x="563.0434782608697" y="784.2282608695651"/>
      <point x="584.8260869565219" y="933.086956521739" type="curve" smooth="yes"/>
      <point x="605.1413043478261" y="1074.25"/>
      <point x="571.5108695652174" y="1247.9782608695652"/>
      <point x="589.1956521739131" y="1371.6739130434785" type="curve" smooth="yes"/>
      <point x="611.6195652173913" y="1528.858695652174"/>
      <point x="744.0326086956521" y="1575.7934782608695"/>
      <point x="856.6739130434784" y="1575.7934782608695" type="curve" smooth="yes"/>
      <point x="880.5" y="1575.7934782608695"/>
      <point x="956.5326086956521" y="1574.108695652174"/>
      <point x="980.0434782608695" y="1571.054347826087" type="curve"/>
      <point x="986.0434782608696" y="1613.8478260869565" type="line"/>
      <point x="909.054347826087" y="1635.7391304347825"/>
      <point x="849.5978260869566" y="1649.6304347826087"/>
      <point x="761.9347826086956" y="1649.6304347826087" type="curve" smooth="yes"/>
      <point x="540.9673913043478" y="1649.6304347826087"/>
      <point x="417.5" y="1550.3260869565217"/>
      <point x="393.2391304347826" y="1386.4347826086957" type="curve" smooth="yes"/>
      <point x="366.29347826086956" y="1201.3804347826087"/>
      <point x="452.75" y="1059.7608695652173"/>
      <point x="432.804347826087" y="919.7608695652175" type="curve" smooth="yes"/>
      <point x="416.4347826086957" y="804.9021739130435"/>
      <point x="333.25" y="738.75"/>
      <point x="98.90217391304347" y="740.1195652173913" type="curve"/>
      <point x="90.21739130434783" y="681.2717391304348" type="line"/>
      <point x="325.24999999999994" y="682.641304347826"/>
      <point x="385.22826086956525" y="601.0217391304348"/>
      <point x="368.1739130434783" y="482.7934782608696" type="curve" smooth="yes"/>
      <point x="347.54347826086956" y="343.10869565217394"/>
      <point x="218.0869565217391" y="204.6304347826087"/>
      <point x="190.45652173913044" y="18.521739130434792" type="curve" smooth="yes"/>
      <point x="166.19565217391303" y="-143.68478260869566"/>
      <point x="262.9891304347826" y="-243.67391304347825"/>
    </contour>
  </outline>
</glyph>
<glyph name="cent" format="2">
  <advance width="1081.7173913043478"/>
  <unicode hex="00A2"/>
  <outline>
    <contour>
      <point x="385.34782608695645" y="-262.27173913043475" type="line"/>
      <point x="464.1304347826088" y="-262.27173913043475" type="line"/>
      <point x="515.2282608695652" y="-19.57608695652174" type="line"/>
      <point x="699.1521739130435" y="-10.206521739130435"/>
      <point x="825.7717391304348" y="71.66304347826087"/>
      <point x="899.4565217391304" y="162.92391304347828" type="curve"/>
      <point x="880.304347826087" y="203.1304347826087" type="line"/>
      <point x="799.9673913043478" y="122.42391304347827"/>
      <point x="685.9673913043478" y="63.858695652173914"/>
      <point x="577.6956521739131" y="63.54347826086957" type="curve" smooth="yes"/>
      <point x="420.8152173913044" y="62.59782608695652"/>
      <point x="355.5652173913044" y="172.41304347826087"/>
      <point x="355.5652173913044" y="364.79347826086956" type="curve" smooth="yes"/>
      <point x="355.5652173913043" y="700.5652173913044"/>
      <point x="546.4130434782609" y="982.9565217391305"/>
      <point x="727.0326086956522" y="982.9565217391305" type="curve" smooth="yes"/>
      <point x="818.7391304347827" y="982.9565217391305"/>
      <point x="840.7826086956522" y="943.445652173913"/>
      <point x="890.1956521739131" y="754.7173913043478" type="curve"/>
      <point x="935.5760869565216" y="754.7173913043479" type="line"/>
      <point x="1000.6739130434784" y="988.1521739130434" type="line"/>
      <point x="940.2065217391304" y="1016.0000000000001"/>
      <point x="840.804347826087" y="1030.6847826086955"/>
      <point x="748.2391304347826" y="1030.6847826086957" type="curve"/>
      <point x="805.5" y="1299.1304347826087" type="line"/>
      <point x="727.0326086956521" y="1299.1304347826087" type="line"/>
      <point x="668.4565217391304" y="1024.6847826086955" type="line"/>
      <point x="333.91304347826093" y="979.945652173913"/>
      <point x="126.43478260869567" y="657.0760869565217"/>
      <point x="126.43478260869566" y="362.44565217391306" type="curve" smooth="yes"/>
      <point x="126.43478260869564" y="138.72826086956522"/>
      <point x="242.78260869565216" y="-0.21739130434782483"/>
      <point x="437.44565217391306" y="-17.26086956521739" type="curve"/>
    </contour>
  </outline>
</glyph>
<glyph name="sterling" format="2">
  <advance width="1492.913043478261"/>
  <unicode hex="00A3"/>
  <outline>
    <contour>
      <point x="901.6630434782608" y="-14.0" type="curve" smooth="yes"/>
      <point x="1166.9239130434783" y="-14.0"/>
      <point x="1384.9456521739132" y="164.67391304347828"/>
      <point x="1384.9456521739132" y="364.8152173913044" type="curve" smooth="yes"/>
      <point x="1384.9456521739132" y="429.1847826086956"/>
      <point x="1362.5760869565217" y="477.8695652173913"/>
      <point x="1330.7717391304345" y="507.6630434782608" type="curve"/>
      <point x="1117.4021739130435" y="507.6630434782609" type="line"/>
      <point x="1160.7282608695652" y="468.34782608695656"/>
      <point x="1182.2065217391303" y="411.7717391304348"/>
      <point x="1182.2065217391303" y="346.51086956521743" type="curve" smooth="yes"/>
      <point x="1182.2065217391303" y="195.08695652173915"/>
      <point x="1099.6739130434783" y="56.326086956521735"/>
      <point x="907.0" y="56.326086956521735" type="curve" smooth="yes"/>
      <point x="751.6739130434784" y="56.326086956521735"/>
      <point x="597.9782608695652" y="141.43478260869563"/>
      <point x="430.304347826087" y="171.82608695652172" type="curve"/>
      <point x="515.1630434782609" y="247.72826086956522"/>
      <point x="575.6195652173914" y="394.70652173913044"/>
      <point x="601.1521739130436" y="574.8913043478262" type="curve" smooth="yes"/>
      <point x="612.5217391304349" y="654.1521739130433"/>
      <point x="621.6304347826087" y="718.2826086956521"/>
      <point x="630.4782608695651" y="775.7934782608696" type="curve"/>
      <point x="948.8043478260869" y="775.7934782608696" type="line"/>
      <point x="957.804347826087" y="846.945652173913" type="line"/>
      <point x="639.8478260869566" y="846.945652173913" type="line"/>
      <point x="650.4239130434783" y="922.1847826086957"/>
      <point x="661.3152173913044" y="1001.5760869565217"/>
      <point x="671.2608695652174" y="1073.3478260869567" type="curve" smooth="yes"/>
      <point x="714.4891304347826" y="1371.5"/>
      <point x="859.2391304347827" y="1450.4239130434783"/>
      <point x="968.0760869565215" y="1450.4239130434783" type="curve" smooth="yes"/>
      <point x="1077.8586956521738" y="1450.4239130434783"/>
      <point x="1158.3478260869565" y="1371.9782608695652"/>
      <point x="1200.7608695652175" y="1272.1304347826087" type="curve"/>
      <point x="1337.8804347826087" y="1398.858695652174" type="line"/>
      <point x="1271.9673913043478" y="1460.3152173913045"/>
      <point x="1166.9021739130433" y="1502.945652173913"/>
      <point x="1034.7717391304348" y="1502.945652173913" type="curve" smooth="yes"/>
      <point x="753.1413043478261" y="1502.945652173913"/>
      <point x="501.1847826086956" y="1309.6304347826085"/>
      <point x="453.76086956521743" y="997.6304347826086" type="curve" smooth="yes"/>
      <point x="447.70652173913044" y="952.054347826087"/>
      <point x="438.76086956521743" y="896.0543478260869"/>
      <point x="431.07608695652175" y="846.945652173913" type="curve"/>
      <point x="232.44565217391306" y="846.945652173913" type="line"/>
      <point x="223.44565217391303" y="775.7934782608696" type="line"/>
      <point x="422.02173913043475" y="775.7934782608696" type="line"/>
      <point x="412.91304347826093" y="712.5108695652175"/>
      <point x="395.0108695652173" y="587.0978260869565"/>
      <point x="377.45652173913044" y="469.57608695652175" type="curve" smooth="yes"/>
      <point x="360.554347826087" y="362.10869565217394"/>
      <point x="321.6413043478261" y="237.25"/>
      <point x="297.9021739130435" y="190.91304347826087" type="curve"/>
      <point x="176.70652173913044" y="189.5"/>
      <point x="45.42391304347826" y="135.81521739130434"/>
      <point x="45.42391304347826" y="62.782608695652186" type="curve" smooth="yes"/>
      <point x="45.42391304347826" y="26.260869565217384"/>
      <point x="83.90217391304347" y="-1.6653345369377348e-16"/>
      <point x="140.78260869565221" y="-1.6653345369377348e-16" type="curve" smooth="yes"/>
      <point x="214.05434782608694" y="-1.6653345369377348e-16"/>
      <point x="286.42391304347825" y="41.54347826086956"/>
      <point x="356.82608695652175" y="108.95652173913044" type="curve"/>
      <point x="515.2934782608696" y="107.58695652173913"/>
      <point x="683.9565217391304" y="-14.0"/>
    </contour>
  </outline>
</glyph>
<glyph name="yen" format="2">
  <advance width="1489.3369565217392"/>
  <unicode hex="00A5"/>
  <outline>
    <contour>
      <point x="239.8695652173913" y="752.7282608695652" type="line"/>
      <point x="231.86956521739134" y="695.1521739130435" type="line"/>
      <point x="685.9130434782608" y="695.1521739130435" type="line"/>
      <point x="650.9130434782609" y="441.67391304347825" type="line"/>
      <point x="196.55434782608694" y="441.67391304347825" type="line"/>
      <point x="188.86956521739128" y="384.09782608695656" type="line"/>
      <point x="643.2282608695652" y="384.09782608695656" type="line"/>
      <point x="601.2282608695652" y="74.41304347826087" type="line"/>
      <point x="375.8260869565217" y="36.6304347826087" type="line"/>
      <point x="371.1413043478261" y="0.0" type="line"/>
      <point x="1045.6086956521738" y="0.0" type="line"/>
      <point x="1051.2934782608695" y="36.6304347826087" type="line"/>
      <point x="820.5217391304348" y="74.41304347826087" type="line"/>
      <point x="862.5217391304348" y="384.09782608695656" type="line"/>
      <point x="1322.0326086956522" y="384.09782608695656" type="line"/>
      <point x="1329.7173913043478" y="441.67391304347825" type="line"/>
      <point x="870.2065217391305" y="441.67391304347825" type="line"/>
      <point x="904.8913043478261" y="695.1521739130435" type="line"/>
      <point x="1365.0326086956522" y="695.1521739130435" type="line"/>
      <point x="1372.717391304348" y="752.7282608695652" type="line"/>
      <point x="925.9456521739131" y="752.7282608695652" type="line"/>
      <point x="1404.5434782608695" y="1424.0108695652175" type="line"/>
      <point x="1542.4891304347825" y="1451.0" type="line"/>
      <point x="1547.173913043478" y="1486.0" type="line"/>
      <point x="1127.1739130434783" y="1486.0" type="line"/>
      <point x="1122.1739130434783" y="1451.0" type="line"/>
      <point x="1305.4891304347827" y="1425.4891304347825" type="line"/>
      <point x="967.1847826086957" y="937.0978260869565" type="line"/>
      <point x="859.108695652174" y="776.695652173913" type="line"/>
      <point x="795.5652173913043" y="937.0978260869565" type="line"/>
      <point x="574.4130434782608" y="1426.75" type="line"/>
      <point x="743.3586956521739" y="1451.0" type="line"/>
      <point x="748.413043478261" y="1486.6847826086957" type="line"/>
      <point x="217.84782608695653" y="1486.0" type="line"/>
      <point x="213.16304347826087" y="1451.0" type="line"/>
      <point x="329.96739130434776" y="1424.0108695652173" type="line"/>
      <point x="668.4347826086957" y="752.7282608695652" type="line"/>
    </contour>
  </outline>
</glyph>
<glyph name="copyright" format="2">
  <advance width="2019.4673913043478"/>
  <unicode hex="00A9"/>
  <outline>
    <contour>
      <point x="262.6304347826087" y="965.9891304347825" type="curve" smooth="yes"/>
      <point x="262.6304347826087" y="489.9891304347826"/>
      <point x="621.1413043478261" y="122.83695652173913"/>
      <point x="1073.3369565217392" y="122.83695652173913" type="curve" smooth="yes"/>
      <point x="1525.7934782608695" y="122.83695652173913"/>
      <point x="1884.0978260869565" y="489.9891304347826"/>
      <point x="1884.0978260869565" y="965.9891304347825" type="curve" smooth="yes"/>
      <point x="1884.0978260869565" y="1439.9891304347825"/>
      <point x="1525.7934782608695" y="1805.4565217391305"/>
      <point x="1073.3369565217392" y="1805.4565217391305" type="curve" smooth="yes"/>
      <point x="621.1413043478261" y="1805.4565217391305"/>
      <point x="262.6304347826087" y="1439.9891304347825"/>
    </contour>
    <contour>
      <point x="329.9347826086957" y="965.6739130434783" type="curve" smooth="yes"/>
      <point x="329.9347826086957" y="1402.3586956521738"/>
      <point x="654.2391304347826" y="1746.7282608695652"/>
      <point x="1073.3369565217392" y="1746.7282608695652" type="curve" smooth="yes"/>
      <point x="1493.0108695652173" y="1746.7282608695652"/>
      <point x="1816.054347826087" y="1403.304347826087"/>
      <point x="1816.054347826087" y="965.9891304347825" type="curve" smooth="yes"/>
      <point x="1816.054347826087" y="526.9891304347826"/>
      <point x="1493.0108695652173" y="183.56521739130437"/>
      <point x="1073.3369565217392" y="183.56521739130437" type="curve" smooth="yes"/>
      <point x="653.6630434782609" y="183.56521739130437"/>
      <point x="329.9347826086957" y="526.9891304347826"/>
    </contour>
    <contour>
      <point x="1071.0108695652175" y="489.9891304347826" type="curve" smooth="yes"/>
      <point x="1216.4347826086955" y="489.9891304347826"/>
      <point x="1326.945652173913" y="565.8804347826087"/>
      <point x="1386.054347826087" y="634.5108695652175" type="curve"/>
      <point x="1363.7934782608695" y="676.8152173913043" type="line"/>
      <point x="1308.054347826087" y="619.5434782608696"/>
      <point x="1216.2608695652175" y="579.0652173913044"/>
      <point x="1132.0" y="579.0652173913044" type="curve" smooth="yes"/>
      <point x="960.1630434782609" y="579.0652173913044"/>
      <point x="839.0543478260869" y="740.9673913043478"/>
      <point x="839.0543478260869" y="998.9891304347826" type="curve" smooth="yes"/>
      <point x="839.0543478260869" y="1228.2065217391305"/>
      <point x="933.2608695652174" y="1392.8369565217392"/>
      <point x="1100.1847826086955" y="1392.8369565217392" type="curve" smooth="yes"/>
      <point x="1164.9347826086957" y="1392.8369565217392"/>
      <point x="1218.6195652173915" y="1370.9347826086957"/>
      <point x="1237.5652173913045" y="1350.8804347826085" type="curve"/>
      <point x="1281.5652173913043" y="1166.3260869565217" type="line"/>
      <point x="1374.586956521739" y="1166.3260869565217" type="line"/>
      <point x="1376.5326086956522" y="1389.25" type="line"/>
      <point x="1339.9021739130435" y="1427.25"/>
      <point x="1219.0652173913043" y="1447.5652173913043"/>
      <point x="1135.804347826087" y="1447.5652173913043" type="curve" smooth="yes"/>
      <point x="862.9782608695652" y="1447.5652173913043"/>
      <point x="664.4565217391304" y="1237.25"/>
      <point x="664.4565217391304" y="948.6086956521739" type="curve" smooth="yes"/>
      <point x="664.4565217391304" y="679.7173913043478"/>
      <point x="819.4130434782609" y="489.9891304347826"/>
    </contour>
  </outline>
</glyph>
<glyph name="ordfeminine" format="2">
  <advance width="870.1413043478261"/>
  <unicode hex="00AA"/>
  <outline>
    <contour>
      <point x="772.7717391304349" y="875.0" type="curve"/>
      <point x="911.3586956521739" y="1584.0" type="line"/>
      <point x="796.445652173913" y="1553.0" type="line"/>
      <point x="750.5543478260869" y="1567.0"/>
      <point x="681.4891304347826" y="1585.0"/>
      <point x="620.9673913043479" y="1585.0" type="curve" smooth="yes"/>
      <point x="320.95652173913044" y="1585.0"/>
      <point x="118.95652173913044" y="1304.586956521739"/>
      <point x="118.95652173913044" y="1042.0" type="curve" smooth="yes"/>
      <point x="118.95652173913044" y="853.8586956521739"/>
      <point x="209.1086956521739" y="731.3152173913045"/>
      <point x="370.46739130434787" y="734.0" type="curve" smooth="yes"/>
      <point x="493.8695652173913" y="736.0"/>
      <point x="559.0869565217391" y="806.0"/>
      <point x="611.3478260869565" y="869.0" type="curve"/>
      <point x="592.0326086956521" y="785.0"/>
      <point x="655.6739130434783" y="733.0"/>
      <point x="715.8804347826087" y="734.0" type="curve" smooth="yes"/>
      <point x="788.4021739130434" y="736.3152173913044"/>
      <point x="874.9239130434783" y="792.0"/>
      <point x="885.5543478260869" y="805.0" type="curve"/>
      <point x="872.9239130434783" y="828.0" type="line"/>
      <point x="839.2934782608695" y="804.0"/>
      <point x="806.7173913043479" y="796.0"/>
      <point x="792.4021739130435" y="796.0" type="curve" smooth="yes"/>
      <point x="768.4565217391304" y="796.0"/>
      <point x="764.0869565217391" y="829.0"/>
    </contour>
    <contour>
      <point x="719.5869565217391" y="1496.9021739130435" type="curve"/>
      <point x="604.6304347826087" y="913.4239130434783" type="line"/>
      <point x="559.5760869565217" y="851.054347826087"/>
      <point x="488.20652173913044" y="805.5652173913044"/>
      <point x="428.1304347826087" y="805.5652173913044" type="curve" smooth="yes"/>
      <point x="339.6847826086957" y="805.5652173913044"/>
      <point x="299.3586956521739" y="906.0"/>
      <point x="299.3586956521739" y="1041.445652173913" type="curve" smooth="yes"/>
      <point x="299.3586956521739" y="1263.7065217391305"/>
      <point x="396.2717391304348" y="1543.7934782608697"/>
      <point x="613.7826086956521" y="1543.7934782608697" type="curve" smooth="yes"/>
      <point x="644.891304347826" y="1543.7934782608697"/>
      <point x="695.1086956521739" y="1528.8478260869565"/>
    </contour>
  </outline>
</glyph>
<glyph name="registered" format="2">
  <advance width="2019.4673913043478"/>
  <unicode hex="00AE"/>
  <outline>
    <contour>
      <point x="262.6304347826087" y="965.9891304347825" type="curve" smooth="yes"/>
      <point x="262.6304347826087" y="489.9891304347826"/>
      <point x="621.1413043478261" y="122.83695652173913"/>
      <point x="1073.3369565217392" y="122.83695652173913" type="curve" smooth="yes"/>
      <point x="1525.7934782608695" y="122.83695652173913"/>
      <point x="1884.0978260869565" y="489.9891304347826"/>
      <point x="1884.0978260869565" y="965.9891304347825" type="curve" smooth="yes"/>
      <point x="1884.0978260869565" y="1439.9891304347825"/>
      <point x="1525.7934782608695" y="1805.4565217391305"/>
      <point x="1073.3369565217392" y="1805.4565217391305" type="curve" smooth="yes"/>
      <point x="621.1413043478261" y="1805.4565217391305"/>
      <point x="262.6304347826087" y="1439.9891304347825"/>
    </contour>
    <contour>
      <point x="329.9347826086957" y="965.6739130434783" type="curve" smooth="yes"/>
      <point x="329.9347826086957" y="1402.3586956521738"/>
      <point x="654.2391304347826" y="1746.7282608695652"/>
      <point x="1073.3369565217392" y="1746.7282608695652" type="curve" smooth="yes"/>
      <point x="1493.0108695652173" y="1746.7282608695652"/>
      <point x="1816.054347826087" y="1403.304347826087"/>
      <point x="1816.054347826087" y="965.9891304347825" type="curve" smooth="yes"/>
      <point x="1816.054347826087" y="526.9891304347826"/>
      <point x="1493.0108695652173" y="183.56521739130437"/>
      <point x="1073.3369565217392" y="183.56521739130437" type="curve" smooth="yes"/>
      <point x="653.6630434782609" y="183.56521739130437"/>
      <point x="329.9347826086957" y="526.9891304347826"/>
    </contour>
    <contour>
      <point x="778.8804347826086" y="556.7173913043478" type="line"/>
      <point x="704.3586956521739" y="530.25" type="line"/>
      <point x="704.3586956521739" y="493.25" type="line"/>
      <point x="1017.9782608695652" y="493.25" type="line"/>
      <point x="1017.9782608695652" y="530.25" type="line"/>
      <point x="937.9347826086957" y="555.1413043478261" type="line"/>
      <point x="937.9347826086957" y="901.3152173913044" type="line"/>
      <point x="1075.2717391304348" y="899.6304347826086" type="line"/>
      <point x="1244.336956521739" y="860.3804347826086"/>
      <point x="1224.5108695652173" y="493.25"/>
      <point x="1345.804347826087" y="493.25" type="curve" smooth="yes"/>
      <point x="1521.0" y="493.25" type="line"/>
      <point x="1521.0" y="539.25" type="line"/>
      <point x="1350.3913043478262" y="553.4130434782609"/>
      <point x="1393.6413043478262" y="839.7934782608695"/>
      <point x="1216.195652173913" y="923.6195652173914" type="curve"/>
      <point x="1357.1847826086957" y="958.7826086956522"/>
      <point x="1434.8369565217392" y="1059.1413043478262"/>
      <point x="1434.8369565217392" y="1187.891304347826" type="curve" smooth="yes"/>
      <point x="1434.8369565217392" y="1344.5217391304348"/>
      <point x="1323.6739130434783" y="1438.6195652173913"/>
      <point x="1093.5434782608697" y="1438.6195652173913" type="curve"/>
      <point x="993.1304347826086" y="1437.25"/>
      <point x="950.7608695652174" y="1432.9347826086957"/>
      <point x="858.5434782608696" y="1432.9347826086957" type="curve" smooth="yes"/>
      <point x="704.3586956521739" y="1432.9347826086957" type="line"/>
      <point x="704.3586956521739" y="1390.9347826086955" type="line"/>
      <point x="778.8804347826086" y="1367.7826086956522" type="line"/>
    </contour>
    <contour>
      <point x="937.9347826086957" y="960.6739130434784" type="curve"/>
      <point x="937.9347826086957" y="1377.8369565217392" type="line"/>
      <point x="990.1086956521738" y="1385.5217391304348"/>
      <point x="1031.0108695652175" y="1386.467391304348"/>
      <point x="1083.5108695652173" y="1386.467391304348" type="curve" smooth="yes"/>
      <point x="1188.8804347826085" y="1386.467391304348"/>
      <point x="1252.6739130434783" y="1314.9456521739132"/>
      <point x="1252.6739130434783" y="1181.3695652173913" type="curve" smooth="yes"/>
      <point x="1252.6739130434783" y="1046.5217391304348"/>
      <point x="1191.7717391304348" y="954.3586956521739"/>
      <point x="1083.3260869565217" y="954.3586956521739" type="curve" smooth="yes"/>
      <point x="1048.6956521739132" y="954.3586956521739"/>
      <point x="963.7717391304349" y="954.3586956521739"/>
    </contour>
  </outline>
</glyph>
<glyph name="micro" format="2">
  <advance width="1119.9565217391305"/>
  <unicode hex="00B5"/>
  <outline>
    <contour>
      <point x="191.79347826086956" y="-364.0" type="line"/>
      <point x="246.3804347826087" y="116.39130434782608" type="line"/>
      <point x="273.2391304347826" y="21.35869565217391"/>
      <point x="361.52173913043475" y="-26.304347826086957"/>
      <point x="430.09782608695645" y="-26.304347826086957" type="curve" smooth="yes"/>
      <point x="573.054347826087" y="-26.304347826086957"/>
      <point x="668.3260869565216" y="100.34782608695652"/>
      <point x="745.6630434782609" y="240.93478260869566" type="curve"/>
      <point x="714.5000000000001" y="79.17391304347827"/>
      <point x="721.4565217391304" y="-21.945652173913043"/>
      <point x="845.6521739130435" y="-21.945652173913043" type="curve" smooth="yes"/>
      <point x="961.554347826087" y="-21.945652173913043"/>
      <point x="1045.3260869565217" y="47.45652173913044"/>
      <point x="1087.7391304347827" y="102.51086956521739" type="curve"/>
      <point x="1066.9021739130435" y="138.5" type="line"/>
      <point x="1028.3695652173913" y="97.54347826086958"/>
      <point x="995.3586956521738" y="79.43478260869566"/>
      <point x="962.9891304347825" y="79.43478260869566" type="curve" smooth="yes"/>
      <point x="928.2934782608695" y="79.43478260869566"/>
      <point x="917.4673913043478" y="107.55434782608697"/>
      <point x="924.0434782608697" y="154.8695652173913" type="curve" smooth="yes"/>
      <point x="1049.891304347826" y="1005.0" type="line"/>
      <point x="851.6847826086957" y="1005.0" type="line"/>
      <point x="749.8804347826086" y="328.05434782608694" type="line"/>
      <point x="689.7608695652174" y="200.0"/>
      <point x="576.6413043478261" y="103.1086956521739"/>
      <point x="464.9782608695652" y="103.7391304347826" type="curve" smooth="yes"/>
      <point x="326.69565217391306" y="104.3695652173913"/>
      <point x="320.7173913043478" y="239.93478260869568"/>
      <point x="327.5652173913043" y="308.1304347826087" type="curve"/>
      <point x="341.2608695652174" y="413.4239130434783"/>
      <point x="361.05434782608694" y="548.8152173913043"/>
      <point x="379.52173913043475" y="668.3043478260869" type="curve" smooth="yes"/>
      <point x="392.6739130434783" y="752.2717391304348"/>
      <point x="408.5652173913044" y="843.5652173913044"/>
      <point x="411.9891304347826" y="898.4673913043479" type="curve"/>
      <point x="415.4673913043478" y="974.6739130434784"/>
      <point x="373.1195652173913" y="1023.3586956521739"/>
      <point x="287.92391304347825" y="1023.3586956521739" type="curve" smooth="yes"/>
      <point x="197.58695652173913" y="1023.3586956521739"/>
      <point x="109.45652173913045" y="973.7934782608695"/>
      <point x="49.84782608695652" y="898.2173913043478" type="curve"/>
      <point x="70.68478260869564" y="862.2282608695652" type="line"/>
      <point x="101.68478260869566" y="897.0217391304348"/>
      <point x="138.2173913043478" y="921.2934782608695"/>
      <point x="174.01086956521738" y="921.2934782608695" type="curve" smooth="yes"/>
      <point x="198.80434782608694" y="921.2934782608695"/>
      <point x="207.68478260869563" y="900.2391304347826"/>
      <point x="205.6304347826087" y="862.2934782608695" type="curve"/>
      <point x="187.14130434782606" y="727.2717391304348"/>
      <point x="162.8695652173913" y="557.1847826086957"/>
      <point x="130.6195652173913" y="343.1521739130435" type="curve"/>
      <point x="23.52173913043478" y="-364.0" type="line"/>
    </contour>
  </outline>
</glyph>
<glyph name="paragraph" format="2">
  <advance width="1452.2608695652175"/>
  <unicode hex="00B6"/>
  <outline>
    <contour>
      <point x="277.3913043478261" y="0.0" type="line"/>
      <point x="659.1956521739131" y="0.0" type="line"/>
      <point x="848.8586956521739" y="1612.1195652173913" type="line"/>
      <point x="1108.7391304347825" y="1602.0108695652175" type="line"/>
      <point x="929.608695652174" y="0.0" type="line"/>
      <point x="1275.1521739130435" y="0.0" type="line"/>
      <point x="1278.8369565217392" y="34.0" type="line"/>
      <point x="1125.4891304347825" y="60.94565217391304" type="line"/>
      <point x="1180.5326086956518" y="570.6847826086956"/>
      <point x="1239.4673913043478" y="1081.1086956521738"/>
      <point x="1294.565217391304" y="1590.8478260869565" type="curve"/>
      <point x="1475.3913043478262" y="1614.0" type="line"/>
      <point x="1480.3913043478262" y="1652.0" type="line"/>
      <point x="1273.4565217391303" y="1652.0" type="line" smooth="yes"/>
      <point x="1077.9673913043478" y="1652.0"/>
      <point x="919.2608695652174" y="1670.0"/>
      <point x="783.6630434782608" y="1670.0" type="curve" smooth="yes"/>
      <point x="383.73913043478257" y="1670.0"/>
      <point x="159.17391304347828" y="1487.0978260869565"/>
      <point x="159.17391304347825" y="1186.0543478260868" type="curve"/>
      <point x="159.17391304347825" y="929.7717391304348"/>
      <point x="318.1304347826087" y="801.8152173913043"/>
      <point x="558.7934782608696" y="792.2282608695651" type="curve"/>
      <point x="481.17391304347825" y="60.94565217391304" type="line"/>
      <point x="281.0760869565217" y="34.0" type="line"/>
    </contour>
  </outline>
</glyph>
<glyph name="guillemetright" format="2">
  <advance width="1153.1195652173915"/>
  <unicode hex="00BB"/>
  <outline>
    <contour>
      <point x="521.2282608695654" y="128.16304347826087" type="line"/>
      <point x="1062.2173913043478" y="558.4782608695652" type="line"/>
      <point x="1089.9565217391303" y="673.1630434782608" type="line"/>
      <point x="703.3260869565219" y="1116.0" type="line"/>
      <point x="672.7499999999999" y="1092.7934782608695" type="line"/>
      <point x="898.2717391304348" y="622.7934782608696" type="line"/>
      <point x="496.91304347826093" y="153.47826086956522" type="line"/>
    </contour>
    <contour>
      <point x="75.30434782608694" y="148.4782608695652" type="line"/>
      <point x="579.2717391304349" y="558.4782608695652" type="line"/>
      <point x="607.0108695652174" y="673.1630434782608" type="line"/>
      <point x="251.09782608695653" y="1096.0" type="line"/>
      <point x="220.83695652173915" y="1072.7934782608695" type="line"/>
      <point x="416.9021739130435" y="622.7934782608696" type="line"/>
      <point x="50.98913043478261" y="173.79347826086956" type="line"/>
    </contour>
  </outline>
</glyph>
<glyph name="AE" format="2">
  <advance width="1953.021739130435"/>
  <unicode hex="00C6"/>
  <anchor x="1141.6521739130433" y="1486.0" name="top"/>
  <outline>
    <contour>
      <point x="-174.55434782608697" y="0.0" type="line"/>
      <point x="317.99999999999994" y="0.0" type="line"/>
      <point x="322.05434782608694" y="36.94565217391305" type="line"/>
      <point x="145.1086956521739" y="63.09782608695652" type="line"/>
      <point x="352.6413043478261" y="466.2391304347826" type="line"/>
      <point x="859.25" y="466.2391304347826" type="line"/>
      <point x="803.4021739130435" y="68.57608695652173" type="line"/>
      <point x="654.5434782608696" y="36.94565217391305" type="line"/>
      <point x="648.9130434782609" y="-0.31521739130434784" type="line"/>
      <point x="1787.2826086956522" y="0.0" type="line"/>
      <point x="1885.5760869565217" y="355.2826086956522" type="line"/>
      <point x="1784.065217391304" y="372.9130434782609" type="line"/>
      <point x="1645.163043478261" y="102.88043478260872" type="line"/>
      <point x="1033.5326086956522" y="63.95652173913044" type="line"/>
      <point x="1126.8478260869563" y="734.2608695652173" type="line"/>
      <point x="1612.2065217391305" y="711.695652173913" type="line"/>
      <point x="1629.6739130434783" y="817.5108695652174" type="line"/>
      <point x="1135.2173913043478" y="795.2173913043479" type="line"/>
      <point x="1220.108695652174" y="1424.413043478261" type="line"/>
      <point x="1722.1304347826087" y="1399.3695652173913" type="line"/>
      <point x="1781.0" y="1160.0434782608695" type="line"/>
      <point x="1863.5217391304348" y="1160.0434782608693" type="line"/>
      <point x="1873.195652173913" y="1486.0" type="line"/>
      <point x="546.6195652173914" y="1486.0" type="line"/>
      <point x="542.304347826087" y="1450.0" type="line"/>
      <point x="782.195652173913" y="1418.4782608695652" type="line"/>
      <point x="-25.08695652173913" y="62.41304347826088" type="line"/>
      <point x="-170.18478260869566" y="36.94565217391305" type="line"/>
    </contour>
    <contour>
      <point x="385.5326086956521" y="532.2391304347826" type="line"/>
      <point x="867.8260869565216" y="1418.478260869565" type="line"/>
      <point x="989.4565217391304" y="1418.4782608695652" type="line"/>
      <point x="867.5652173913044" y="532.2391304347825" type="line"/>
    </contour>
  </outline>
</glyph>
<glyph name="Thorn" format="2">
  <advance width="1142.1739130434785"/>
  <unicode hex="00DE"/>
  <outline>
    <contour>
      <point x="-46.097826086956516" y="0.0" type="line"/>
      <point x="498.4021739130435" y="0.0" type="line"/>
      <point x="504.7173913043478" y="36.63043478260869" type="line"/>
      <point x="338.46739130434787" y="68.57608695652173" type="line"/>
      <point x="377.7282608695653" y="350.34782608695656" type="line"/>
      <point x="429.2608695652174" y="345.7173913043478"/>
      <point x="500.0652173913043" y="342.0326086956522"/>
      <point x="562.804347826087" y="342.0326086956522" type="curve" smooth="yes"/>
      <point x="957.9565217391305" y="342.0326086956522"/>
      <point x="1175.641304347826" y="546.1304347826087"/>
      <point x="1175.641304347826" y="803.0434782608696" type="curve" smooth="yes"/>
      <point x="1175.641304347826" y="1044.3152173913043"/>
      <point x="1015.75" y="1154.2608695652173"/>
      <point x="685.6521739130434" y="1154.2608695652173" type="curve" smooth="yes"/>
      <point x="616.2173913043479" y="1154.2608695652173"/>
      <point x="550.5326086956522" y="1151.945652173913"/>
      <point x="487.1521739130435" y="1144.891304347826" type="curve"/>
      <point x="524.5217391304348" y="1417.7934782608695" type="line"/>
      <point x="677.5760869565219" y="1450.0" type="line"/>
      <point x="682.2608695652175" y="1486.0" type="line"/>
      <point x="160.5869565217391" y="1486.0" type="line"/>
      <point x="155.58695652173913" y="1450.0" type="line"/>
      <point x="294.1304347826087" y="1417.7934782608695" type="line"/>
      <point x="108.07608695652173" y="68.57608695652173" type="line"/>
      <point x="-41.09782608695652" y="36.63043478260869" type="line"/>
    </contour>
    <contour>
      <point x="480.1521739130435" y="1094.2065217391303" type="line"/>
      <point x="527.1195652173914" y="1100.2608695652175"/>
      <point x="590.3586956521739" y="1103.945652173913"/>
      <point x="642.1521739130435" y="1103.945652173913" type="curve" smooth="yes"/>
      <point x="860.0978260869565" y="1103.945652173913"/>
      <point x="936.445652173913" y="987.2717391304349"/>
      <point x="936.4456521739131" y="826.3586956521739" type="curve" smooth="yes"/>
      <point x="936.445652173913" y="597.9782608695652"/>
      <point x="815.9347826086955" y="396.0326086956522"/>
      <point x="541.3260869565217" y="396.0326086956522" type="curve" smooth="yes"/>
      <point x="501.1630434782609" y="396.0326086956522"/>
      <point x="433.22826086956525" y="400.0869565217391"/>
      <point x="385.09782608695656" y="406.5108695652173" type="curve"/>
    </contour>
  </outline>
</glyph>
<glyph name="divide" format="2">
  <advance width="1063.0"/>
  <unicode hex="00F7"/>
  <outline>
    <contour>
      <point x="155.0" y="604.0" type="line"/>
      <point x="143.0" y="524.0" type="line"/>
      <point x="925.0" y="524.0" type="line"/>
      <point x="937.0" y="604.0" type="line"/>
    </contour>
    <contour>
      <point x="371.0" y="214.0" type="curve" smooth="yes"/>
      <point x="371.0" y="152.0"/>
      <point x="422.00000000000006" y="111.0"/>
      <point x="474.0" y="111.0" type="curve" smooth="yes"/>
      <point x="561.0" y="111.0"/>
      <point x="622.0" y="175.00000000000003"/>
      <point x="622.0" y="259.99999999999994" type="curve" smooth="yes"/>
      <point x="622.0" y="316.0"/>
      <point x="581.0" y="364.0"/>
      <point x="516.0" y="364.0" type="curve" smooth="yes"/>
      <point x="437.0" y="364.0"/>
      <point x="371.0" y="294.0"/>
    </contour>
    <contour>
      <point x="565.0" y="779.0" type="curve" smooth="yes"/>
      <point x="653.0" y="779.0"/>
      <point x="712.0" y="843.0"/>
      <point x="712.0" y="928.0" type="curve" smooth="yes"/>
      <point x="712.0" y="983.0"/>
      <point x="673.0" y="1032.0"/>
      <point x="608.0" y="1032.0" type="curve" smooth="yes"/>
      <point x="528.0" y="1032.0"/>
      <point x="461.0000000000001" y="962.0000000000001"/>
      <point x="461.0" y="882.0000000000001" type="curve" smooth="yes"/>
      <point x="461.0" y="820.0"/>
      <point x="513.0" y="779.0"/>
    </contour>
  </outline>
</glyph>
<glyph name="dcroat" format="2">
  <advance width="1096.967391304348"/>
  <unicode hex="0111"/>
  <anchor x="499.55434782608694" y="0.0" name="bottom"/>
  <anchor x="1213.4782608695652" y="1622.0" name="caron"/>
  <anchor x="366.7608695652174" y="1110.0" name="top"/>
  <outline>
    <contour>
      <point x="592.1630434782609" y="1257.0217391304348" type="line"/>
      <point x="1199.1195652173913" y="1257.0217391304348" type="line"/>
      <point x="1210.0652173913045" y="1327.0108695652175" type="line"/>
      <point x="603.108695652174" y="1327.0108695652175" type="line"/>
    </contour>
    <component base="d"/>
  </outline>
</glyph>
<glyph name="Hbar" format="2">
  <advance width="1463.8695652173915"/>
  <unicode hex="0126"/>
  <outline>
    <contour>
      <point x="-46.09782608695652" y="0.0" type="line"/>
      <point x="461.41304347826076" y="0.0" type="line"/>
      <point x="467.0434782608696" y="36.630434782608695" type="line"/>
      <point x="323.4021739130435" y="68.57608695652173" type="line"/>
      <point x="406.14130434782606" y="668.4347826086956" type="line"/>
      <point x="1108.9999999999998" y="668.4347826086956" type="line"/>
      <point x="1026.2608695652173" y="68.57608695652173" type="line"/>
      <point x="880.3586956521739" y="36.94565217391305" type="line"/>
      <point x="875.358695652174" y="0.0" type="line"/>
      <point x="1376.8695652173915" y="0.0" type="line"/>
      <point x="1382.1847826086957" y="36.94565217391305" type="line"/>
      <point x="1256.6521739130435" y="68.57608695652173" type="line"/>
      <point x="1387.3369565217392" y="1018.2608695652174" type="line"/>
      <point x="1538.5434782608695" y="1018.2608695652174" type="line"/>
      <point x="1546.8586956521738" y="1087.3152173913043" type="line"/>
      <point x="1396.336956521739" y="1087.3152173913043" type="line"/>
      <point x="1442.0217391304348" y="1417.7934782608695" type="line"/>
      <point x="1564.804347826087" y="1450.0" type="line"/>
      <point x="1568.858695652174" y="1486.0" type="line"/>
      <point x="1074.25" y="1486.0" type="line"/>
      <point x="1069.2499999999998" y="1450.0" type="line"/>
      <point x="1211.6304347826087" y="1417.7934782608695" type="line"/>
      <point x="1165.945652173913" y="1087.3152173913043" type="line"/>
      <point x="463.0869565217392" y="1087.3152173913043" type="line"/>
      <point x="508.77173913043487" y="1417.7934782608695" type="line"/>
      <point x="661.1413043478261" y="1450.0" type="line"/>
      <point x="665.8260869565217" y="1486.0" type="line"/>
      <point x="159.90217391304344" y="1486.0" type="line"/>
      <point x="154.90217391304347" y="1450.0" type="line"/>
      <point x="278.3804347826087" y="1417.7934782608695" type="line"/>
      <point x="232.69565217391306" y="1087.3152173913043" type="line"/>
      <point x="89.16304347826086" y="1087.3152173913043" type="line"/>
      <point x="80.84782608695652" y="1018.2608695652174" type="line"/>
      <point x="223.695652173913" y="1018.2608695652174" type="line"/>
      <point x="93.01086956521739" y="68.57608695652173" type="line"/>
      <point x="-41.097826086956516" y="36.630434782608695" type="line"/>
    </contour>
    <contour>
      <point x="415.1413043478261" y="734.4347826086956" type="line"/>
      <point x="454.08695652173907" y="1018.2608695652174" type="line"/>
      <point x="1156.945652173913" y="1018.2608695652174" type="line"/>
      <point x="1118.0" y="734.4347826086956" type="line"/>
    </contour>
  </outline>
</glyph>
<glyph name="lslash" format="2">
  <advance width="516.858695652174"/>
  <unicode hex="0142"/>
  <anchor x="231.92391304347822" y="0.0" name="bottom"/>
  <anchor x="616.1739130434783" y="1615.0652173913045" name="caron"/>
  <anchor x="406.75000000000006" y="1589.054347826087" name="top"/>
  <outline>
    <contour>
      <point x="41.423913043478265" y="703.5108695652174" type="line"/>
      <point x="243.75000000000006" y="787.0760869565217" type="line"/>
      <point x="341.35869565217394" y="822.8586956521739" type="line"/>
      <point x="579.8586956521739" y="930.641304347826" type="line"/>
      <point x="577.1195652173913" y="1016.891304347826" type="line"/>
      <point x="344.61956521739137" y="909.4239130434783" type="line"/>
      <point x="251.0108695652174" y="874.5869565217391" type="line"/>
      <point x="38.684782608695656" y="784.3369565217391" type="line"/>
    </contour>
    <component base="l" xOffset="29.94565217391304"/>
  </outline>
</glyph>
<glyph name="OE" format="2">
  <advance width="2311.2826086956525"/>
  <unicode hex="0152"/>
  <outline>
    <contour>
      <point x="1165.3586956521738" y="0.0" type="line"/>
      <point x="2146.2282608695655" y="0.0" type="line"/>
      <point x="2243.836956521739" y="355.28260869565213" type="line"/>
      <point x="2140.95652173913" y="374.2826086956522" type="line"/>
      <point x="2002.7391304347825" y="102.88043478260872" type="line"/>
      <point x="1397.1304347826085" y="63.27173913043478" type="line"/>
      <point x="1489.7608695652175" y="734.2608695652174" type="line"/>
      <point x="1978.0" y="710.3260869565217" type="line"/>
      <point x="1994.0978260869565" y="822.304347826087" type="line"/>
      <point x="1498.1304347826087" y="793.1630434782609" type="line"/>
      <point x="1585.0760869565217" y="1426.4673913043478" type="line"/>
      <point x="2081.760869565217" y="1399.3695652173913" type="line"/>
      <point x="2141.3152173913045" y="1160.0434782608697" type="line"/>
      <point x="2225.8913043478265" y="1160.0434782608697" type="line"/>
      <point x="2235.565217391304" y="1486.0" type="line"/>
      <point x="1369.358695652174" y="1486.0" type="line"/>
      <point x="1332.5543478260872" y="1216.782608695652" type="line"/>
      <point x="1246.663043478261" y="1397.7499999999998"/>
      <point x="1077.0000000000002" y="1503.6304347826087"/>
      <point x="869.7717391304348" y="1503.6304347826087" type="curve" smooth="yes"/>
      <point x="378.19565217391306" y="1503.6304347826087"/>
      <point x="71.17391304347827" y="1108.195652173913"/>
      <point x="71.17391304347825" y="604.891304347826" type="curve" smooth="yes"/>
      <point x="71.17391304347825" y="237.0108695652174"/>
      <point x="282.85869565217394" y="-22.630434782608695"/>
      <point x="666.8695652173913" y="-22.630434782608695" type="curve" smooth="yes"/>
      <point x="883.75" y="-22.630434782608695"/>
      <point x="1069.467391304348" y="75.82608695652173"/>
      <point x="1198.108695652174" y="239.72826086956525" type="curve"/>
    </contour>
    <contour>
      <point x="682.9347826086955" y="30.576086956521742" type="curve" smooth="yes"/>
      <point x="454.65217391304344" y="30.576086956521742"/>
      <point x="317.71739130434787" y="267.95652173913044"/>
      <point x="317.71739130434787" y="597.1304347826087" type="curve" smooth="yes"/>
      <point x="317.71739130434787" y="1084.1847826086957"/>
      <point x="539.6739130434781" y="1450.108695652174"/>
      <point x="849.2934782608696" y="1450.4239130434783" type="curve" smooth="yes"/>
      <point x="1076.945652173913" y="1450.7391304347827"/>
      <point x="1214.195652173913" y="1210.8369565217392"/>
      <point x="1214.195652173913" y="883.8695652173914" type="curve" smooth="yes"/>
      <point x="1214.195652173913" y="396.5"/>
      <point x="992.2391304347826" y="30.576086956521742"/>
    </contour>
  </outline>
</glyph>
<glyph name="florin" format="2">
  <advance width="895.8695652173913"/>
  <unicode hex="0192"/>
  <outline>
    <contour>
      <point x="352.45652173913044" y="1086.7282608695652" type="curve" smooth="yes"/>
      <point x="345.9347826086957" y="1050.4673913043478" type="line"/>
      <point x="161.1413043478261" y="1016.8369565217392" type="line"/>
      <point x="156.61956521739134" y="978.0" type="line"/>
      <point x="334.98913043478257" y="978.0" type="line"/>
      <point x="177.7826086956522" y="-348.0" type="line"/>
      <point x="370.72826086956525" y="-348.0" type="line"/>
      <point x="531.0434782608696" y="978.0" type="line"/>
      <point x="819.3043478260869" y="978.0" type="line"/>
      <point x="828.7717391304346" y="1047.7826086956522" type="line"/>
      <point x="538.3586956521739" y="1047.7826086956522" type="line"/>
      <point x="549.3586956521739" y="1148.0" type="line" smooth="yes"/>
      <point x="580.358695652174" y="1431.3369565217392"/>
      <point x="642.6630434782609" y="1556.5760869565217"/>
      <point x="740.0869565217392" y="1556.5760869565217" type="curve" smooth="yes"/>
      <point x="801.7173913043479" y="1556.5760869565217"/>
      <point x="869.4891304347825" y="1514.2391304347825"/>
      <point x="911.2826086956521" y="1457.3804347826085" type="curve"/>
      <point x="932.6195652173913" y="1625.0" type="line"/>
      <point x="902.9021739130435" y="1639.945652173913"/>
      <point x="870.9673913043478" y="1645.6847826086957"/>
      <point x="842.7065217391304" y="1645.6847826086957" type="curve" smooth="yes"/>
      <point x="618.6739130434783" y="1645.6847826086957"/>
      <point x="404.8913043478261" y="1377.7500000000002"/>
    </contour>
  </outline>
</glyph>
<glyph name="Ezh" format="2">
  <advance width="1246.0108695652175"/>
  <unicode hex="01B7"/>
  <anchor x="747.4565217391305" y="1486.0" name="top"/>
  <outline>
    <contour>
      <point x="782.9565217391305" y="791.6630434782609" type="line"/>
      <point x="1288.804347826087" y="1450.0" type="line"/>
      <point x="1267.1630434782608" y="1486.0" type="line"/>
      <point x="249.64130434782604" y="1486.0" type="line"/>
      <point x="189.43478260869566" y="1122.891304347826" type="line"/>
      <point x="282.52173913043475" y="1116.728260869565" type="line"/>
      <point x="408.8152173913044" y="1406.3152173913043" type="line"/>
      <point x="1039.7065217391305" y="1425.8913043478262" type="line"/>
      <point x="857.1413043478261" y="1216.8478260869563" type="line"/>
      <point x="542.641304347826" y="798.391304347826" type="line"/>
      <point x="573.9021739130436" y="763.1847826086956" type="line"/>
      <point x="599.5760869565217" y="771.1304347826087"/>
      <point x="642.1086956521738" y="776.1847826086957"/>
      <point x="670.5869565217391" y="776.1847826086957" type="curve" smooth="yes"/>
      <point x="844.5217391304348" y="774.8152173913044"/>
      <point x="920.663043478261" y="639.1413043478261"/>
      <point x="920.663043478261" y="464.1304347826087" type="curve" smooth="yes"/>
      <point x="920.663043478261" y="198.41304347826085"/>
      <point x="776.1521739130435" y="37.630434782608695"/>
      <point x="488.0978260869566" y="36.94565217391305" type="curve"/>
      <point x="365.9021739130435" y="37.630434782608695"/>
      <point x="294.21739130434787" y="68.90217391304348"/>
      <point x="242.9565217391304" y="98.52173913043478" type="curve"/>
      <point x="225.13043478260872" y="404.39130434782606" type="line"/>
      <point x="104.82608695652173" y="404.70652173913044" type="line"/>
      <point x="47.60869565217391" y="62.03260869565218" type="line"/>
      <point x="107.4891304347826" y="57.358695652173914"/>
      <point x="263.9891304347826" y="-16.630434782608695"/>
      <point x="483.83695652173907" y="-16.630434782608695" type="curve"/>
      <point x="882.5869565217392" y="-16.630434782608695"/>
      <point x="1160.0" y="141.17391304347825"/>
      <point x="1160.0" y="469.39130434782606" type="curve" smooth="yes"/>
      <point x="1160.0" y="632.8804347826087"/>
      <point x="1034.0978260869565" y="820.5"/>
      <point x="777.4565217391305" y="827.3478260869564" type="curve"/>
    </contour>
  </outline>
</glyph>
<glyph name="ezh" format="2">
  <advance width="901.1086956521739"/>
  <unicode hex="0292"/>
  <anchor x="513.7173913043478" y="1110.0" name="top"/>
  <outline>
    <contour>
      <point x="175.32608695652172" y="-500.16304347826093" type="curve" smooth="yes"/>
      <point x="596.5326086956524" y="-500.16304347826093"/>
      <point x="820.2608695652174" y="-216.39130434782606"/>
      <point x="820.2608695652174" y="65.77173913043478" type="curve" smooth="yes"/>
      <point x="820.2608695652174" y="281.6413043478261"/>
      <point x="691.5543478260869" y="397.6847826086956"/>
      <point x="426.7608695652175" y="397.6847826086956" type="curve" smooth="yes"/>
      <point x="409.9239130434783" y="397.6847826086956"/>
      <point x="378.9347826086957" y="396.42391304347825"/>
      <point x="351.6847826086956" y="390.95652173913044" type="curve"/>
      <point x="895.3260869565217" y="1003.3152173913043" type="line"/>
      <point x="869.4891304347826" y="1029.728260869565" type="line"/>
      <point x="844.3369565217391" y="1008.5217391304346"/>
      <point x="832.445652173913" y="1005.0"/>
      <point x="787.7717391304346" y="1005.0" type="curve" smooth="yes"/>
      <point x="648.5434782608696" y="1005.0"/>
      <point x="388.34782608695645" y="1029.7826086956522"/>
      <point x="239.0760869565217" y="1029.7826086956522" type="curve" smooth="yes"/>
      <point x="169.7391304347826" y="1029.7826086956522"/>
      <point x="143.0108695652174" y="1018.891304347826"/>
      <point x="128.6413043478261" y="1009.8369565217391" type="curve" smooth="yes"/>
      <point x="76.51086956521739" y="978.2173913043478"/>
      <point x="55.02173913043479" y="795.8804347826087"/>
      <point x="65.0108695652174" y="681.9565217391304" type="curve"/>
      <point x="103.05434782608697" y="681.9565217391304" type="line"/>
      <point x="114.21739130434784" y="771.7065217391304"/>
      <point x="141.58695652173913" y="849.8260869565219"/>
      <point x="246.32608695652172" y="851.1956521739129" type="curve" smooth="yes"/>
      <point x="323.9347826086957" y="851.8804347826086"/>
      <point x="602.7934782608696" y="855.304347826087"/>
      <point x="691.108695652174" y="855.304347826087" type="curve"/>
      <point x="578.3369565217391" y="741.1521739130435" type="line"/>
      <point x="242.69565217391303" y="361.4347826086956" type="line"/>
      <point x="270.95652173913044" y="326.2282608695653" type="line"/>
      <point x="298.7934782608696" y="334.3804347826087"/>
      <point x="324.945652173913" y="337.95652173913044"/>
      <point x="358.3152173913044" y="337.95652173913044" type="curve" smooth="yes"/>
      <point x="527.4130434782608" y="337.95652173913044"/>
      <point x="610.4021739130435" y="234.8478260869565"/>
      <point x="610.4021739130435" y="82.17391304347827" type="curve" smooth="yes"/>
      <point x="610.4021739130435" y="-207.1086956521739"/>
      <point x="390.69565217391306" y="-439.28260869565213"/>
      <point x="127.7391304347826" y="-439.28260869565213" type="curve" smooth="yes"/>
      <point x="60.57608695652174" y="-439.28260869565213"/>
      <point x="-2.054347826086957" y="-429.3369565217391"/>
      <point x="-67.7391304347826" y="-407.445652173913" type="curve"/>
      <point x="-83.26086956521738" y="-450.4891304347826" type="line"/>
      <point x="-13.326086956521744" y="-481.5326086956522"/>
      <point x="84.77173913043478" y="-500.16304347826093"/>
    </contour>
  </outline>
</glyph>
<glyph name="dotaccent" format="2">
  <advance width="542.695652173913"/>
  <unicode hex="02D9"/>
  <anchor x="352.4347826086956" y="1110.0" name="_top"/>
  <anchor x="400.2608695652174" y="1439.3695652173915" name="top"/>
  <outline>
    <contour>
      <point x="361.47826086956525" y="1154.4782608695652" type="curve" smooth="yes"/>
      <point x="454.0217391304348" y="1154.4782608695652"/>
      <point x="510.95652173913044" y="1219.717391304348"/>
      <point x="511.9021739130435" y="1312.554347826087" type="curve" smooth="yes"/>
      <point x="512.8478260869566" y="1371.75"/>
      <point x="474.8586956521739" y="1425.6739130434783"/>
      <point x="394.05434782608694" y="1425.6739130434783" type="curve" smooth="yes"/>
      <point x="306.03260869565224" y="1425.6739130434783"/>
      <point x="248.5217391304348" y="1355.9021739130435"/>
      <point x="247.57608695652178" y="1276.9239130434785" type="curve" smooth="yes"/>
      <point x="246.63043478260872" y="1202.4565217391305"/>
      <point x="290.5652173913044" y="1154.4782608695652"/>
    </contour>
  </outline>
</glyph>
<glyph name="ogonek" format="2">
  <advance width="717.2065217391304"/>
  <unicode hex="02DB"/>
  <anchor x="334.9673913043478" y="0.0" name="_ogonek"/>
  <outline>
    <contour>
      <point x="216.2934782608696" y="-432.44565217391306" type="curve" smooth="yes"/>
      <point x="326.4891304347825" y="-432.44565217391306"/>
      <point x="416.3152173913043" y="-362.0326086956522"/>
      <point x="468.63043478260875" y="-291.6630434782609" type="curve"/>
      <point x="448.47826086956525" y="-258.20652173913044" type="line"/>
      <point x="394.5326086956522" y="-305.0"/>
      <point x="342.0" y="-323.09782608695656"/>
      <point x="289.05434782608694" y="-323.09782608695656" type="curve" smooth="yes"/>
      <point x="227.63043478260872" y="-323.09782608695656"/>
      <point x="191.52173913043478" y="-291.4130434782609"/>
      <point x="191.52173913043478" y="-236.3586956521739" type="curve" smooth="yes"/>
      <point x="191.52173913043478" y="-149.15217391304347"/>
      <point x="264.7826086956522" y="-56.684782608695656"/>
      <point x="422.3152173913044" y="30.152173913043477" type="curve"/>
      <point x="364.1195652173913" y="44.30434782608696" type="line"/>
      <point x="307.8804347826087" y="18.206521739130434" type="line"/>
      <point x="146.08695652173913" y="-51.478260869565226"/>
      <point x="35.05434782608695" y="-158.4782608695652"/>
      <point x="35.05434782608695" y="-278.304347826087" type="curve" smooth="yes"/>
      <point x="35.05434782608695" y="-380.7173913043478"/>
      <point x="114.68478260869564" y="-432.44565217391306"/>
    </contour>
  </outline>
</glyph>
<glyph name="tilde" format="2">
  <advance width="885.7282608695652"/>
  <unicode hex="02DC"/>
  <anchor x="531.8478260869566" y="1110.6304347826087" name="_top"/>
  <anchor x="585.4782608695652" y="1497.4239130434783" name="top"/>
  <outline>
    <contour>
      <point x="243.31521739130434" y="1207.1521739130435" type="curve"/>
      <point x="277.51086956521743" y="1196.0" type="line"/>
      <point x="296.34782608695656" y="1269.1521739130435"/>
      <point x="323.97826086956525" y="1306.0"/>
      <point x="383.45652173913044" y="1306.0" type="curve" smooth="yes"/>
      <point x="481.0869565217391" y="1306.0"/>
      <point x="560.3804347826087" y="1179.0"/>
      <point x="682.0108695652174" y="1179.0" type="curve" smooth="yes"/>
      <point x="803.5" y="1179.0"/>
      <point x="870.6195652173913" y="1260.0652173913045"/>
      <point x="862.5652173913044" y="1411.0108695652173" type="curve"/>
      <point x="827.1086956521739" y="1421.8478260869565" type="line"/>
      <point x="809.8478260869565" y="1351.532608695652"/>
      <point x="778.75" y="1318.7826086956522"/>
      <point x="721.1630434782609" y="1318.7826086956522" type="curve" smooth="yes"/>
      <point x="625.5326086956522" y="1318.7826086956522"/>
      <point x="561.3260869565217" y="1441.6847826086957"/>
      <point x="427.02173913043475" y="1441.6847826086957" type="curve" smooth="yes"/>
      <point x="312.46739130434787" y="1441.6847826086957"/>
      <point x="235.26086956521738" y="1363.1413043478262"/>
    </contour>
  </outline>
</glyph>
<glyph name="gravecomb" format="2">
  <unicode hex="0300"/>
  <anchor x="465.26086956521743" y="1108.6304347826087" name="_top"/>
  <anchor x="545.9891304347826" y="1670.8695652173913" name="top"/>
  <outline>
    <contour>
      <point x="577.0000000000001" y="1126.478260869565" type="curve"/>
      <point x="603.9891304347826" y="1149.836956521739" type="line"/>
      <point x="297.0" y="1584.9130434782608" type="line"/>
      <point x="154.66304347826085" y="1468.8478260869565" type="line"/>
      <point x="255.53260869565216" y="1357.913043478261"/>
      <point x="423.25" y="1218.663043478261"/>
    </contour>
  </outline>
</glyph>
<glyph name="acutecomb" format="2">
  <unicode hex="0301"/>
  <anchor x="239.34782608695653" y="1110.0" name="_top"/>
  <anchor x="161.64130434782606" y="1516.3695652173913" name="top"/>
  <outline>
    <contour>
      <point x="102.26086956521739" y="1163.5326086956522" type="line"/>
      <point x="127.93478260869563" y="1140.1739130434783" type="line"/>
      <point x="271.7391304347826" y="1232.6739130434783"/>
      <point x="434.32608695652175" y="1361.3804347826087"/>
      <point x="524.8369565217391" y="1468.8478260869565" type="curve"/>
      <point x="386.0326086956522" y="1585.858695652174" type="line"/>
    </contour>
  </outline>
</glyph>
<glyph name="circumflexcomb" format="2">
  <unicode hex="0302"/>
  <anchor x="392.4347826086957" y="1110.0" name="_top"/>
  <anchor x="460.4347826086957" y="1615.467391304348" name="top"/>
  <outline>
    <contour>
      <point x="127.67391304347825" y="1129.0" type="line"/>
      <point x="258.0978260869565" y="1229.8695652173913"/>
      <point x="355.75" y="1324.7717391304348"/>
      <point x="441.75" y="1417.9347826086957" type="curve"/>
      <point x="512.4347826086956" y="1307.4347826086957"/>
      <point x="575.358695652174" y="1208.9565217391305"/>
      <point x="638.7608695652175" y="1129.0" type="curve"/>
      <point x="671.6956521739132" y="1140.728260869565" type="line"/>
      <point x="540.3695652173914" y="1576.7173913043478" type="line"/>
      <point x="392.1195652173913" y="1576.7173913043478" type="line"/>
      <point x="95.47826086956522" y="1147.413043478261" type="line"/>
    </contour>
  </outline>
</glyph>
<glyph name="macroncomb" format="2">
  <unicode hex="0304"/>
  <anchor x="358.19565217391306" y="1110.0" name="_top"/>
  <anchor x="393.7173913043478" y="1390.804347826087" name="top"/>
  <outline>
    <contour>
      <point x="122.20652173913042" y="1315.3369565217392" type="line"/>
      <point x="104.3695652173913" y="1187.858695652174" type="line"/>
      <point x="631.5" y="1187.858695652174" type="line"/>
      <point x="648.6521739130435" y="1315.3369565217392" type="line"/>
    </contour>
  </outline>
</glyph>
<glyph name="breveinvertedcomb" format="2">
  <unicode hex="0311"/>
  <anchor x="371.22826086956525" y="1065.4347826086955" name="_top"/>
  <anchor x="445.9130434782609" y="1575.945652173913" name="top"/>
  <outline>
    <contour>
      <point x="415.85869565217394" y="1497.5108695652173" type="curve" smooth="yes"/>
      <point x="212.9239130434783" y="1497.5108695652173"/>
      <point x="105.83695652173913" y="1359.6847826086955"/>
      <point x="105.83695652173911" y="1170.4891304347825" type="curve"/>
      <point x="105.83695652173914" y="1149.4891304347827"/>
      <point x="106.83695652173913" y="1141.4891304347825"/>
      <point x="106.83695652173913" y="1129.4891304347827" type="curve"/>
      <point x="162.29347826086953" y="1129.4891304347827" type="line"/>
      <point x="163.55434782608697" y="1261.5108695652175"/>
      <point x="260.0326086956522" y="1352.8695652173913"/>
      <point x="406.9130434782609" y="1352.8695652173913" type="curve" smooth="yes"/>
      <point x="551.1739130434783" y="1352.8695652173913"/>
      <point x="604.9130434782608" y="1277.0760869565217"/>
      <point x="604.9130434782609" y="1180.7065217391305" type="curve" smooth="yes"/>
      <point x="604.913043478261" y="1148.804347826087"/>
      <point x="601.2282608695652" y="1137.4891304347825"/>
      <point x="600.2282608695651" y="1129.4891304347827" type="curve"/>
      <point x="654.6847826086956" y="1129.4891304347827" type="line"/>
      <point x="662.6847826086956" y="1156.4891304347827"/>
      <point x="671.2608695652175" y="1184.75"/>
      <point x="671.2608695652175" y="1237.6304347826087" type="curve" smooth="yes"/>
      <point x="671.2608695652175" y="1383.891304347826"/>
      <point x="590.3152173913044" y="1497.5108695652173"/>
    </contour>
  </outline>
</glyph>
<glyph name="horncomb" format="2">
  <unicode hex="031B"/>
  <anchor x="-54.684782608695656" y="0.0" name="_topright"/>
  <outline>
    <contour>
      <point x="167.43478260869566" y="242.1521739130435" type="line"/>
      <point x="148.95652173913044" y="91.98913043478261"/>
      <point x="104.02173913043478" y="10.206521739130434"/>
      <point x="-58.31521739130435" y="0.0" type="curve"/>
      <point x="-64.31521739130434" y="-41.097826086956516" type="line"/>
      <point x="189.84782608695653" y="-81.91304347826087"/>
      <point x="347.8369565217391" y="10.59782608695652"/>
      <point x="365.6413043478261" y="242.1521739130435" type="curve"/>
    </contour>
  </outline>
</glyph>
<glyph name="commaaccentcomb" format="2">
  <unicode hex="0326"/>
  <anchor x="75.3913043478261" y="0.0" name="_bottom"/>
  <outline>
    <contour>
      <point x="-81.47826086956522" y="-523.8804347826087" type="line"/>
      <point x="1.3913043478260896" y="-560.2934782608696" type="line"/>
      <point x="68.48913043478261" y="-541.6630434782609"/>
      <point x="172.89130434782606" y="-446.4673913043478"/>
      <point x="167.0978260869565" y="-301.14130434782606" type="curve" smooth="yes"/>
      <point x="165.04347826086956" y="-220.67391304347825"/>
      <point x="134.4673913043478" y="-132.67391304347828"/>
      <point x="55.630434782608695" y="-101.8369565217391" type="curve"/>
      <point x="-82.26086956521739" y="-172.5108695652174" type="line"/>
      <point x="-82.26086956521739" y="-233.65217391304344" type="line"/>
      <point x="-42.89130434782609" y="-245.49999999999991"/>
      <point x="-20.043478260869566" y="-291.6630434782609"/>
      <point x="-19.41304347826087" y="-341.25" type="curve" smooth="yes"/>
      <point x="-18.15217391304348" y="-415.8369565217391"/>
      <point x="-42.78260869565217" y="-475.60869565217394"/>
      <point x="-80.84782608695652" y="-503.30434782608694" type="curve"/>
    </contour>
  </outline>
</glyph>
<glyph name="macronbelowcomb" format="2">
  <unicode hex="0331"/>
  <anchor x="195.44565217391306" y="0.0" name="_bottom"/>
  <outline>
    <contour>
      <point x="-83.42391304347825" y="-184.80434782608697" type="line"/>
      <point x="-103.57608695652173" y="-325.9782608695652" type="line"/>
      <point x="404.05434782608694" y="-325.9782608695652" type="line"/>
      <point x="423.5217391304348" y="-184.80434782608697" type="line"/>
    </contour>
  </outline>
</glyph>
<glyph name="strokeshortcomb" format="2">
  <unicode hex="0335"/>
  <anchor x="282.92391304347825" y="555.6847826086957" name="_bar"/>
  <anchor x="381.30434782608694" y="556.0" name="_center"/>
  <outline>
    <contour>
      <point x="254.45652173913044" y="545.804347826087" type="line"/>
      <point x="491.7608695652173" y="545.804347826087" type="line"/>
      <point x="497.51086956521743" y="564.5108695652174" type="line"/>
      <point x="260.20652173913044" y="564.5108695652174" type="line"/>
    </contour>
  </outline>
</glyph>
<glyph name="slashshortcomb" format="2">
  <unicode hex="0337"/>
  <anchor x="317.5434782608696" y="743.0" name="_center"/>
  <outline>
    <contour>
      <point x="63.05434782608696" y="631.641304347826" type="line"/>
      <point x="309.29347826086956" y="727.9999999999999" type="line"/>
      <point x="414.6521739130435" y="769.5543478260869" type="line"/>
      <point x="927.4891304347826" y="971.7826086956522" type="line"/>
      <point x="900.8586956521739" y="1038.6739130434785" type="line"/>
      <point x="416.29347826086956" y="846.554347826087" type="line"/>
      <point x="313.6630434782609" y="805.5760869565219" type="line"/>
      <point x="36.369565217391305" y="695.5326086956521" type="line"/>
    </contour>
  </outline>
</glyph>
<glyph name="slashlongcomb" format="2">
  <unicode hex="0338"/>
  <anchor x="357.6304347826087" y="744.0" name="_center"/>
  <outline>
    <contour>
      <point x="638.6304347826087" y="1607.2608695652175" type="line"/>
      <point x="-87.0" y="-202.6304347826087" type="line"/>
      <point x="68.73913043478261" y="-202.6304347826087" type="line"/>
      <point x="792.2608695652174" y="1607.2608695652175" type="line"/>
    </contour>
  </outline>
</glyph>
<glyph name="Delta" format="2">
  <advance width="1365.391304347826"/>
  <unicode hex="0394"/>
  <outline>
    <contour>
      <point x="-4.521739130434783" y="0.0" type="line"/>
      <point x="1243.0760869565217" y="0.0" type="line"/>
      <point x="1274.9130434782608" y="48.19565217391305" type="line"/>
      <point x="854.7826086956521" y="1497.7934782608695" type="line"/>
      <point x="766.0543478260869" y="1497.7934782608695" type="line"/>
      <point x="-26.782608695652176" y="47.25000000000001" type="line"/>
    </contour>
    <contour>
      <point x="709.3369565217391" y="1252.6195652173913" type="line"/>
      <point x="733.1739130434783" y="1134.2934782608695" type="line"/>
      <point x="1027.4239130434783" y="50.119565217391305" type="line"/>
      <point x="1091.0760869565217" y="128.01086956521738" type="line"/>
      <point x="62.90217391304349" y="128.01086956521738" type="line"/>
      <point x="57.63043478260868" y="33.86956521739131" type="line"/>
      <point x="654.0217391304348" y="1139.9239130434783" type="line"/>
    </contour>
  </outline>
</glyph>
<glyph name="pi" format="2">
  <advance width="1298.3804347826087"/>
  <unicode hex="03C0"/>
  <outline>
    <contour>
      <point x="155.2608695652174" y="-17.26086956521739" type="line"/>
      <point x="348.59782608695656" y="17.804347826086957"/>
      <point x="440.0760869565217" y="181.58695652173913"/>
      <point x="492.23913043478257" y="446.7282608695652" type="curve" smooth="yes"/>
      <point x="568.0869565217391" y="834.0326086956522" type="line"/>
      <point x="899.1521739130434" y="834.0326086956522" type="line"/>
      <point x="800.5108695652174" y="531.9782608695652"/>
      <point x="727.6847826086956" y="326.1847826086956"/>
      <point x="727.6847826086956" y="182.47826086956522" type="curve"/>
      <point x="727.6847826086956" y="69.3804347826087"/>
      <point x="777.5434782608695" y="-17.26086956521739"/>
      <point x="925.1521739130434" y="-17.26086956521739" type="curve" smooth="yes"/>
      <point x="1123.086956521739" y="-17.26086956521739"/>
      <point x="1204.7608695652175" y="152.58695652173913"/>
      <point x="1234.9565217391305" y="313.3369565217391" type="curve"/>
      <point x="1157.1304347826087" y="313.3369565217391" type="line"/>
      <point x="1118.7065217391305" y="193.32608695652172"/>
      <point x="1068.858695652174" y="122.56521739130434"/>
      <point x="1000.8913043478259" y="122.56521739130434" type="curve" smooth="yes"/>
      <point x="915.1630434782609" y="122.56521739130434"/>
      <point x="898.8478260869565" y="181.8695652173913"/>
      <point x="898.8478260869565" y="274.7391304347826" type="curve"/>
      <point x="898.8478260869566" y="355.9347826086957"/>
      <point x="930.0652173913044" y="559.7934782608696"/>
      <point x="996.5108695652174" y="834.0326086956522" type="curve"/>
      <point x="1053.7934782608695" y="834.0326086956522" type="line" smooth="yes"/>
      <point x="1227.5978260869565" y="834.0326086956522"/>
      <point x="1325.0" y="911.9239130434781"/>
      <point x="1344.858695652174" y="1106.25" type="curve"/>
      <point x="1275.6195652173913" y="1106.25" type="line"/>
      <point x="1246.554347826087" y="1028.25"/>
      <point x="1186.1304347826087" y="1004.0"/>
      <point x="1096.5" y="1004.0" type="curve" smooth="yes"/>
      <point x="412.42391304347825" y="1004.0000000000001" type="line" smooth="yes"/>
      <point x="216.63043478260866" y="1004.0"/>
      <point x="79.96739130434781" y="892.5543478260869"/>
      <point x="69.01086956521739" y="719.6304347826086" type="curve"/>
      <point x="138.25" y="709.891304347826" type="line"/>
      <point x="158.5217391304348" y="802.4565217391304"/>
      <point x="230.5434782608696" y="834.0326086956521"/>
      <point x="320.70652173913044" y="834.0326086956522" type="curve" smooth="yes"/>
      <point x="491.67391304347825" y="834.0326086956522" type="line"/>
      <point x="363.52173913043475" y="462.3478260869565" type="line"/>
      <point x="298.8586956521739" y="285.5978260869565"/>
      <point x="206.7282608695652" y="166.8586956521739"/>
      <point x="12.108695652173912" y="104.0" type="curve"/>
    </contour>
  </outline>
</glyph>
<glyph name="E-cy" format="2">
  <advance width="1293.391304347826"/>
  <unicode hex="0404"/>
  <outline>
    <contour>
      <point x="685.1195652173913" y="-18.206521739130434" type="curve" smooth="yes"/>
      <point x="913.6413043478261" y="-18.206521739130434"/>
      <point x="1049.4130434782605" y="49.097826086956516"/>
      <point x="1133.6195652173915" y="68.27173913043477" type="curve"/>
      <point x="1184.4891304347827" y="413.01086956521743" type="line"/>
      <point x="1078.3478260869565" y="413.01086956521743" type="line"/>
      <point x="1057.663043478261" y="340.0652173913044"/>
      <point x="1025.75" y="212.18478260869566"/>
      <point x="1002.8043478260872" y="150.6413043478261" type="curve"/>
      <point x="959.6956521739131" y="87.68478260869566"/>
      <point x="823.7282608695651" y="34.684782608695656"/>
      <point x="708.7608695652174" y="34.684782608695656" type="curve" smooth="yes"/>
      <point x="409.1847826086957" y="34.684782608695656"/>
      <point x="320.29347826086956" y="330.08695652173907"/>
      <point x="320.29347826086956" y="605.5760869565217" type="curve" smooth="yes"/>
      <point x="320.29347826086956" y="641.7717391304348"/>
      <point x="321.60869565217394" y="677.967391304348"/>
      <point x="323.92391304347825" y="713.5326086956521" type="curve"/>
      <point x="498.8586956521739" y="699.3260869565216"/>
      <point x="831.4347826086956" y="684.7173913043479"/>
      <point x="952.7173913043478" y="679.7717391304348" type="curve"/>
      <point x="978.5543478260869" y="831.554347826087" type="line"/>
      <point x="329.1847826086957" y="781.5652173913044" type="line"/>
      <point x="367.4456521739131" y="1134.2391304347827"/>
      <point x="519.4347826086956" y="1449.7391304347825"/>
      <point x="847.8260869565217" y="1449.7391304347825" type="curve" smooth="yes"/>
      <point x="991.0217391304349" y="1449.7391304347825"/>
      <point x="1057.3043478260868" y="1408.619565217391"/>
      <point x="1097.163043478261" y="1379.0434782608695" type="curve"/>
      <point x="1111.6847826086957" y="1063.5217391304348" type="line"/>
      <point x="1229.3260869565217" y="1063.5217391304348" type="line"/>
      <point x="1292.8478260869565" y="1444.5217391304348" type="line"/>
      <point x="1206.9347826086955" y="1451.3695652173913"/>
      <point x="1086.3152173913043" y="1503.2608695652175"/>
      <point x="859.3152173913044" y="1503.2608695652175" type="curve" smooth="yes"/>
      <point x="394.1195652173913" y="1503.2608695652175"/>
      <point x="71.54347826086958" y="1121.5869565217392"/>
      <point x="71.54347826086958" y="608.3260869565216" type="curve" smooth="yes"/>
      <point x="71.54347826086958" y="303.0108695652174"/>
      <point x="215.5" y="-18.206521739130434"/>
    </contour>
  </outline>
</glyph>
<glyph name="Lje-cy" format="2">
  <advance width="1968.4782608695655"/>
  <unicode hex="0409"/>
  <outline>
    <contour>
      <point x="108.6521739130435" y="-19.206521739130434" type="curve" smooth="yes"/>
      <point x="252.89130434782612" y="-19.206521739130434"/>
      <point x="335.2608695652174" y="77.83695652173914"/>
      <point x="405.67391304347825" y="284.44565217391306" type="curve" smooth="yes"/>
      <point x="483.0434782608696" y="510.2391304347826"/>
      <point x="554.358695652174" y="890.1195652173914"/>
      <point x="612.8260869565217" y="1255.586956521739" type="curve" smooth="yes"/>
      <point x="639.0978260869565" y="1417.7391304347827" type="line"/>
      <point x="1036.5760869565217" y="1418.4239130434785" type="line"/>
      <point x="850.5217391304346" y="67.94565217391305" type="line"/>
      <point x="706.4130434782609" y="36.630434782608695" type="line"/>
      <point x="701.4130434782609" y="-1.1102230246251565e-16" type="line"/>
      <point x="968.4565217391305" y="-1.1102230246251565e-16" type="line" smooth="yes"/>
      <point x="1049.4891304347825" y="-1.1102230246251565e-16"/>
      <point x="1149.271739130435" y="-15.89130434782609"/>
      <point x="1268.4565217391305" y="-15.89130434782609" type="curve" smooth="yes"/>
      <point x="1661.7391304347827" y="-15.89130434782609"/>
      <point x="1920.9673913043478" y="161.20652173913044"/>
      <point x="1920.9673913043478" y="501.2717391304348" type="curve" smooth="yes"/>
      <point x="1920.9673913043478" y="779.195652173913"/>
      <point x="1720.836956521739" y="907.0434782608696"/>
      <point x="1432.3260869565217" y="907.0434782608696" type="curve" smooth="yes"/>
      <point x="1352.467391304348" y="907.0434782608696"/>
      <point x="1265.0760869565217" y="898.2499999999999"/>
      <point x="1193.5434782608697" y="887.8804347826087" type="curve"/>
      <point x="1266.9673913043478" y="1417.7934782608695" type="line"/>
      <point x="1402.0217391304348" y="1449.3695652173913" type="line"/>
      <point x="1406.0760869565217" y="1486.0" type="line"/>
      <point x="417.0978260869565" y="1486.6304347826087" type="line"/>
      <point x="412.0978260869565" y="1450.0000000000002" type="line"/>
      <point x="551.836956521739" y="1417.7391304347825" type="line"/>
      <point x="524.9347826086957" y="1262.9565217391305" type="line" smooth="yes"/>
      <point x="449.054347826087" y="829.4999999999999"/>
      <point x="379.05434782608694" y="514.8369565217392"/>
      <point x="298.94565217391306" y="337.85869565217394" type="curve" smooth="yes"/>
      <point x="258.2608695652174" y="248.1086956521739"/>
      <point x="208.84782608695656" y="198.46739130434784"/>
      <point x="128.48913043478262" y="198.46739130434784" type="curve" smooth="yes"/>
      <point x="101.3804347826087" y="198.46739130434784"/>
      <point x="67.69565217391303" y="202.7826086956522"/>
      <point x="26.173913043478258" y="210.72826086956525" type="curve"/>
      <point x="-15.717391304347824" y="2.000000000000001" type="line"/>
      <point x="9.336956521739133" y="-10.630434782608697"/>
      <point x="59.18478260869565" y="-19.206521739130434"/>
    </contour>
    <contour>
      <point x="1280.5326086956522" y="37.945652173913054" type="curve" smooth="yes"/>
      <point x="1202.6195652173913" y="37.945652173913054"/>
      <point x="1132.5978260869565" y="53.94565217391303"/>
      <point x="1081.5978260869565" y="67.94565217391306" type="curve"/>
      <point x="1184.5434782608695" y="822.6195652173913" type="line"/>
      <point x="1227.8260869565217" y="830.0978260869565"/>
      <point x="1277.6847826086955" y="837.5217391304349"/>
      <point x="1342.6521739130435" y="837.5217391304349" type="curve" smooth="yes"/>
      <point x="1568.3804347826087" y="837.5217391304349"/>
      <point x="1677.9456521739128" y="746.6195652173914"/>
      <point x="1677.9456521739128" y="481.9347826086956" type="curve" smooth="yes"/>
      <point x="1677.9456521739128" y="196.46739130434784"/>
      <point x="1526.858695652174" y="37.945652173913054"/>
    </contour>
  </outline>
</glyph>
<glyph name="Nje-cy" format="2">
  <advance width="2065.086956521739"/>
  <unicode hex="040A"/>
  <outline>
    <contour>
      <point x="-46.09782608695652" y="-5.551115123125783e-17" type="line"/>
      <point x="466.89130434782595" y="-5.551115123125783e-17" type="line"/>
      <point x="472.5217391304348" y="36.6304347826087" type="line"/>
      <point x="329.5652173913043" y="68.57608695652173" type="line"/>
      <point x="516.3043478260869" y="1417.7934782608695" type="line"/>
      <point x="669.3586956521739" y="1450.0" type="line"/>
      <point x="674.0434782608696" y="1486.0" type="line"/>
      <point x="159.90217391304353" y="1486.0" type="line"/>
      <point x="154.9021739130435" y="1450.0" type="line"/>
      <point x="285.22826086956525" y="1417.7934782608695" type="line"/>
      <point x="99.85869565217389" y="68.57608695652173" type="line"/>
      <point x="-41.097826086956516" y="36.6304347826087" type="line"/>
    </contour>
    <contour>
      <point x="356.96739130434787" y="732.0" type="line"/>
      <point x="1156.3260869565217" y="732.0" type="line"/>
      <point x="1156.3260869565217" y="798.0" type="line"/>
      <point x="356.96739130434776" y="798.0" type="line"/>
    </contour>
    <contour>
      <point x="1362.695652173913" y="-15.891304347826086" type="curve" smooth="yes"/>
      <point x="1762.282608695652" y="-15.891304347826086"/>
      <point x="2015.2065217391303" y="157.10869565217394"/>
      <point x="2015.2065217391303" y="486.891304347826" type="curve" smooth="yes"/>
      <point x="2015.2065217391303" y="781.25"/>
      <point x="1815.7608695652175" y="907.7282608695652"/>
      <point x="1506.0217391304348" y="907.7282608695652" type="curve" smooth="yes"/>
      <point x="1423.3260869565215" y="907.7282608695652"/>
      <point x="1304.021739130435" y="890.0869565217391"/>
      <point x="1233.1304347826087" y="876.7173913043479" type="curve"/>
      <point x="1233.130434782609" y="812.7717391304348" type="line"/>
      <point x="1284.054347826087" y="821.304347826087"/>
      <point x="1347.0760869565217" y="838.2065217391305"/>
      <point x="1436.8913043478262" y="838.2065217391305" type="curve" smooth="yes"/>
      <point x="1662.6195652173915" y="838.2065217391305"/>
      <point x="1772.1847826086957" y="748.6739130434783"/>
      <point x="1772.1847826086957" y="481.9347826086957" type="curve" smooth="yes"/>
      <point x="1772.1847826086957" y="196.4673913043478"/>
      <point x="1621.0978260869565" y="37.94565217391305"/>
      <point x="1374.771739130435" y="37.94565217391305" type="curve" smooth="yes"/>
      <point x="1296.858695652174" y="37.94565217391305"/>
      <point x="1226.836956521739" y="52.684782608695656"/>
      <point x="1175.836956521739" y="67.94565217391305" type="curve"/>
      <point x="1361.2065217391303" y="1417.7934782608695" type="line"/>
      <point x="1496.2608695652173" y="1449.3695652173913" type="line"/>
      <point x="1500.3152173913045" y="1486.0" type="line"/>
      <point x="1002.3369565217391" y="1486.0" type="line"/>
      <point x="997.3369565217394" y="1449.3695652173913" type="line"/>
      <point x="1130.8152173913045" y="1418.4239130434783" type="line"/>
      <point x="945.445652173913" y="67.94565217391303" type="line"/>
      <point x="801.3369565217391" y="36.63043478260869" type="line"/>
      <point x="796.336956521739" y="0.0" type="line"/>
      <point x="1058.9565217391305" y="0.0" type="line" smooth="yes"/>
      <point x="1144.358695652174" y="0.0"/>
      <point x="1243.5108695652173" y="-15.891304347826086"/>
    </contour>
  </outline>
</glyph>
<glyph name="Tshe-cy" format="2">
  <advance width="1734.25"/>
  <unicode hex="040B"/>
  <anchor x="570.0760869565217" y="-166.0" name="btm"/>
  <anchor x="780.0760869565217" y="1660.0" name="top"/>
  <outline>
    <contour>
      <point x="305.9891304347826" y="0.0" type="line"/>
      <point x="904.1521739130434" y="0.0" type="line"/>
      <point x="908.8369565217392" y="36.94565217391304" type="line"/>
      <point x="724.7934782608695" y="68.57608695652173" type="line"/>
      <point x="820.4239130434781" y="766.6739130434783" type="line"/>
      <point x="894.554347826087" y="804.6304347826086"/>
      <point x="1015.2608695652174" y="825.4130434782609"/>
      <point x="1101.065217391304" y="825.4130434782609" type="curve" smooth="yes"/>
      <point x="1299.586956521739" y="825.4130434782609"/>
      <point x="1353.228260869565" y="742.5978260869565"/>
      <point x="1353.228260869565" y="586.5869565217391" type="curve" smooth="yes"/>
      <point x="1353.228260869565" y="517.4347826086956"/>
      <point x="1343.282608695652" y="443.14130434782606"/>
      <point x="1330.0760869565217" y="350.85869565217394" type="curve" smooth="yes"/>
      <point x="1287.9130434782608" y="68.20652173913044" type="line"/>
      <point x="1157.2717391304348" y="36.0" type="line"/>
      <point x="1152.586956521739" y="0.0" type="line"/>
      <point x="1644.0" y="0.0" type="line"/>
      <point x="1649.0" y="36.0" type="line"/>
      <point x="1518.3586956521735" y="68.20652173913044" type="line"/>
      <point x="1576.467391304348" y="469.5869565217391" type="line" smooth="yes"/>
      <point x="1581.413043478261" y="503.89130434782606"/>
      <point x="1584.3586956521738" y="537.1413043478261"/>
      <point x="1584.3586956521738" y="570.8152173913043" type="curve" smooth="yes"/>
      <point x="1584.3586956521738" y="781.5326086956521"/>
      <point x="1467.8478260869565" y="906.304347826087"/>
      <point x="1195.5217391304348" y="906.304347826087" type="curve" smooth="yes"/>
      <point x="1059.554347826087" y="906.304347826087"/>
      <point x="928.0108695652173" y="881.6739130434783"/>
      <point x="829.4239130434783" y="834.25" type="curve"/>
      <point x="910.7934782608696" y="1425.0978260869565" type="line"/>
      <point x="1242.1521739130433" y="1406.891304347826" type="line"/>
      <point x="1285.554347826087" y="1062.0108695652175" type="line"/>
      <point x="1372.608695652174" y="1063.3804347826087" type="line"/>
      <point x="1408.75" y="1486.6847826086957" type="line"/>
      <point x="193.4891304347826" y="1486.6847826086957" type="line"/>
      <point x="119.1086956521739" y="1063.3804347826085" type="line"/>
      <point x="214.46739130434784" y="1064.75" type="line"/>
      <point x="349.51086956521743" y="1408.1521739130435" type="line"/>
      <point x="679.0326086956521" y="1425.0978260869565" type="line"/>
      <point x="493.0326086956522" y="68.57608695652173" type="line"/>
      <point x="310.98913043478257" y="36.94565217391304" type="line"/>
    </contour>
  </outline>
</glyph>
<glyph name="Be-cy" format="2">
  <advance width="1264.8152173913043"/>
  <unicode hex="0411"/>
  <anchor x="568.1521739130435" y="-166.0" name="btm"/>
  <anchor x="776.2391304347826" y="1486.0" name="top"/>
  <outline>
    <contour>
      <point x="527.641304347826" y="-10.41304347826087" type="curve" smooth="yes"/>
      <point x="911.0326086956521" y="-10.41304347826087"/>
      <point x="1192.608695652174" y="150.28260869565221"/>
      <point x="1192.608695652174" y="495.94565217391306" type="curve" smooth="yes"/>
      <point x="1192.608695652174" y="774.1195652173913"/>
      <point x="985.0108695652174" y="889.3804347826086"/>
      <point x="722.1847826086957" y="894.8586956521739" type="curve" smooth="yes"/>
      <point x="644.4565217391305" y="896.9130434782608"/>
      <point x="542.3804347826087" y="886.695652173913"/>
      <point x="453.51086956521743" y="875.0652173913045" type="curve"/>
      <point x="530.7173913043476" y="1424.4130434782608" type="line"/>
      <point x="1044.532608695652" y="1404.0" type="line"/>
      <point x="1086.9239130434783" y="1058.5326086956522" type="line"/>
      <point x="1174.663043478261" y="1058.5326086956522" type="line"/>
      <point x="1217.2826086956522" y="1486.0" type="line"/>
      <point x="169.2173913043478" y="1486.0" type="line"/>
      <point x="165.58695652173913" y="1449.3695652173913" type="line"/>
      <point x="297.80434782608694" y="1417.7934782608695" type="line"/>
      <point x="113.69565217391303" y="74.05434782608695" type="line"/>
      <point x="-30.413043478260867" y="42.10869565217391" type="line"/>
      <point x="-35.41304347826087" y="5.478260869565217" type="line"/>
      <point x="226.57608695652178" y="5.478260869565217" type="line" smooth="yes"/>
      <point x="312.97826086956525" y="5.478260869565217"/>
      <point x="407.7608695652173" y="-10.41304347826087"/>
    </contour>
    <contour>
      <point x="543.6086956521739" y="43.42391304347826" type="curve" smooth="yes"/>
      <point x="465.3695652173913" y="43.42391304347826"/>
      <point x="394.7717391304348" y="58.79347826086956"/>
      <point x="343.7717391304348" y="72.79347826086958" type="curve"/>
      <point x="444.8804347826087" y="809.8043478260869" type="line"/>
      <point x="487.84782608695656" y="816.5978260869565"/>
      <point x="540.75" y="825.3369565217391"/>
      <point x="614.5108695652174" y="825.3369565217391" type="curve" smooth="yes"/>
      <point x="838.5869565217391" y="825.3369565217391"/>
      <point x="949.8043478260869" y="732.4565217391304"/>
      <point x="949.8043478260869" y="484.6847826086956" type="curve" smooth="yes"/>
      <point x="949.8043478260869" y="206.9891304347826"/>
      <point x="795.2826086956521" y="43.42391304347826"/>
    </contour>
  </outline>
</glyph>
<glyph name="De-cy" format="2">
  <advance width="1383.7065217391305"/>
  <unicode hex="0414"/>
  <outline>
    <contour>
      <point x="-119.66304347826089" y="-375.7608695652174" type="curve"/>
      <point x="0.08695652173913082" y="-375.7608695652174" type="line"/>
      <point x="33.18478260869565" y="-279.945652173913"/>
      <point x="93.29347826086956" y="-107.51086956521738"/>
      <point x="132.85869565217394" y="0.0" type="curve"/>
      <point x="1098.9782608695652" y="0.0" type="line"/>
      <point x="1090.2391304347825" y="-97.83695652173913"/>
      <point x="1072.2282608695652" y="-260.1847826086956"/>
      <point x="1058.6521739130435" y="-375.7608695652174" type="curve"/>
      <point x="1174.304347826087" y="-375.7608695652174" type="line"/>
      <point x="1194.086956521739" y="-322.61956521739125"/>
      <point x="1263.5978260869565" y="-80.57608695652175"/>
      <point x="1294.0217391304348" y="68.57608695652173" type="curve"/>
      <point x="1112.1304347826085" y="68.57608695652173" type="line"/>
      <point x="1305.7173913043478" y="1417.7934782608695" type="line"/>
      <point x="1438.086956521739" y="1449.3695652173915" type="line"/>
      <point x="1442.1413043478262" y="1486.0" type="line"/>
      <point x="396.06521739130443" y="1486.0" type="line"/>
      <point x="391.0652173913043" y="1449.3695652173915" type="line"/>
      <point x="554.054347826087" y="1417.7934782608695" type="line"/>
      <point x="529.4673913043479" y="1263.0108695652175" type="line" smooth="yes"/>
      <point x="467.0978260869565" y="866.5978260869565"/>
      <point x="298.1630434782608" y="266.03260869565213"/>
      <point x="113.96739130434783" y="68.57608695652173" type="curve"/>
      <point x="-36.92391304347826" y="68.57608695652173" type="line"/>
      <point x="-61.23913043478261" y="-42.086956521739125"/>
      <point x="-104.55434782608697" y="-280.44565217391306"/>
    </contour>
    <contour>
      <point x="247.27173913043475" y="68.57608695652173" type="line"/>
      <point x="394.8369565217391" y="267.13043478260875"/>
      <point x="553.9891304347825" y="854.141304347826"/>
      <point x="617.0434782608695" y="1255.641304347826" type="curve" smooth="yes"/>
      <point x="643.0" y="1417.7934782608695" type="line"/>
      <point x="1081.0000000000002" y="1417.7934782608695" type="line"/>
      <point x="887.4130434782609" y="68.57608695652173" type="line"/>
    </contour>
  </outline>
</glyph>
<glyph name="Ze-cy" format="2">
  <advance width="1163.032608695652"/>
  <unicode hex="0417"/>
  <anchor x="522.8260869565217" y="0.0" name="bottom"/>
  <anchor x="693.3478260869565" y="1486.0" name="top"/>
  <outline>
    <contour>
      <point x="440.40217391304344" y="-18.206521739130434" type="curve" smooth="yes"/>
      <point x="810.8369565217392" y="-18.206521739130434"/>
      <point x="1114.1847826086955" y="151.57608695652175"/>
      <point x="1114.1847826086955" y="454.9021739130435" type="curve" smooth="yes"/>
      <point x="1114.1847826086955" y="644.9347826086957"/>
      <point x="963.2608695652174" y="764.2499999999999"/>
      <point x="741.1739130434783" y="778.8369565217391" type="curve"/>
      <point x="959.6304347826087" y="823.3804347826087"/>
      <point x="1149.6195652173913" y="952.0869565217391"/>
      <point x="1149.6195652173913" y="1167.8478260869565" type="curve" smooth="yes"/>
      <point x="1149.6195652173913" y="1365.108695652174"/>
      <point x="980.0434782608695" y="1503.2608695652175"/>
      <point x="671.1304347826087" y="1503.2608695652175" type="curve" smooth="yes"/>
      <point x="471.61956521739125" y="1503.2608695652175"/>
      <point x="352.5869565217391" y="1445.2065217391305"/>
      <point x="244.13043478260866" y="1438.8369565217392" type="curve"/>
      <point x="194.40217391304347" y="1095.608695652174" type="line"/>
      <point x="338.05434782608694" y="1095.608695652174" type="line"/>
      <point x="414.7826086956522" y="1337.1956521739132" type="line"/>
      <point x="455.26086956521743" y="1395.2282608695652"/>
      <point x="530.0760869565217" y="1447.2608695652175"/>
      <point x="652.445652173913" y="1447.2608695652175" type="curve" smooth="yes"/>
      <point x="816.9239130434783" y="1447.2608695652175"/>
      <point x="912.5869565217391" y="1350.5217391304348"/>
      <point x="912.5869565217391" y="1170.5" type="curve" smooth="yes"/>
      <point x="912.5869565217391" y="940.0326086956521"/>
      <point x="745.1630434782609" y="812.8369565217391"/>
      <point x="557.7826086956521" y="817.7826086956522" type="curve" smooth="yes"/>
      <point x="403.0" y="823.304347826087" type="line"/>
      <point x="386.47826086956525" y="712.8043478260869" type="line"/>
      <point x="571.2065217391305" y="724.695652173913" type="line"/>
      <point x="762.0" y="724.695652173913"/>
      <point x="859.5978260869565" y="611.7391304347826"/>
      <point x="859.5978260869565" y="445.33695652173907" type="curve" smooth="yes"/>
      <point x="859.5978260869565" y="185.08695652173915"/>
      <point x="707.0760869565216" y="38.10869565217391"/>
      <point x="443.40217391304344" y="38.10869565217391" type="curve" smooth="yes"/>
      <point x="321.5869565217391" y="38.10869565217391"/>
      <point x="260.3152173913044" y="68.21739130434783"/>
      <point x="212.89130434782612" y="96.94565217391306" type="curve"/>
      <point x="190.05434782608697" y="405.07608695652175" type="line"/>
      <point x="68.28260869565217" y="405.07608695652175" type="line"/>
      <point x="10.119565217391305" y="62.45652173913043" type="line"/>
      <point x="81.75" y="41.40217391304348"/>
      <point x="218.7173913043478" y="-18.206521739130434"/>
    </contour>
  </outline>
</glyph>
<glyph name="Ii-cy" format="2">
  <advance width="1486.7065217391303"/>
  <unicode hex="0418"/>
  <anchor x="1397.5869565217392" y="0.0" name="bottomright"/>
  <anchor x="873.9565217391305" y="1486.0" name="top"/>
  <outline>
    <contour>
      <point x="-36.09782608695652" y="0.0" type="line"/>
      <point x="476.891304347826" y="0.0" type="line"/>
      <point x="482.52173913043487" y="36.63043478260869" type="line"/>
      <point x="339.5652173913043" y="68.57608695652173" type="line"/>
      <point x="366.29347826086956" y="265.46739130434787" type="line"/>
      <point x="296.3695652173913" y="97.95652173913044" type="line"/>
      <point x="1052.771739130435" y="1009.8913043478261" type="line"/>
      <point x="1227.7608695652173" y="1245.0434782608693" type="line"/>
      <point x="1183.8260869565215" y="1238.3478260869565" type="line"/>
      <point x="1023.663043478261" y="68.57608695652173" type="line"/>
      <point x="875.5" y="36.94565217391304" type="line"/>
      <point x="870.5" y="0.0" type="line"/>
      <point x="1383.5434782608695" y="0.0" type="line"/>
      <point x="1388.858695652174" y="36.94565217391304" type="line"/>
      <point x="1253.739130434783" y="68.57608695652173" type="line"/>
      <point x="1439.108695652174" y="1417.7934782608695" type="line"/>
      <point x="1573.5326086956522" y="1449.3695652173915" type="line"/>
      <point x="1577.5869565217392" y="1486.0" type="line"/>
      <point x="1080.869565217391" y="1486.0" type="line"/>
      <point x="1075.8695652173913" y="1449.3695652173915" type="line"/>
      <point x="1209.3478260869565" y="1417.7934782608695" type="line"/>
      <point x="1181.0326086956522" y="1216.4239130434783" type="line"/>
      <point x="1244.9673913043478" y="1359.032608695652" type="line"/>
      <point x="531.6304347826086" y="496.73913043478257" type="line"/>
      <point x="314.20652173913044" y="218.8804347826087" type="line"/>
      <point x="357.8260869565217" y="204.7717391304348" type="line"/>
      <point x="524.9347826086956" y="1417.7934782608697" type="line"/>
      <point x="667.7173913043479" y="1449.3695652173915" type="line"/>
      <point x="672.4021739130434" y="1486.0" type="line"/>
      <point x="171.9565217391304" y="1486.0" type="line"/>
      <point x="166.95652173913044" y="1449.3695652173915" type="line"/>
      <point x="295.2282608695652" y="1417.7934782608697" type="line"/>
      <point x="109.85869565217392" y="68.57608695652173" type="line"/>
      <point x="-31.09782608695652" y="36.63043478260869" type="line"/>
    </contour>
  </outline>
</glyph>
<glyph name="Ka-cy" format="2">
  <advance width="1357.5978260869567"/>
  <unicode hex="041A"/>
  <anchor x="1273.1413043478262" y="0.0" name="bottomright"/>
  <anchor x="364.60869565217394" y="1205.0" name="tbar"/>
  <anchor x="806.1739130434783" y="1486.0" name="top"/>
  <outline>
    <contour>
      <point x="972.8478260869566" y="0.0" type="curve" smooth="yes"/>
      <point x="1270.141304347826" y="0.0" type="line"/>
      <point x="1274.141304347826" y="36.630434782608695" type="line"/>
      <point x="1193.445652173913" y="57.423913043478265" type="line"/>
      <point x="1139.2391304347827" y="92.07608695652175"/>
      <point x="1079.4347826086957" y="236.63043478260875"/>
      <point x="1030.2717391304345" y="346.8369565217391" type="curve" smooth="yes"/>
      <point x="888.5652173913043" y="660.0543478260871"/>
      <point x="826.7282608695654" y="807.5978260869565"/>
      <point x="630.108695652174" y="790.5434782608696" type="curve"/>
      <point x="642.3913043478261" y="742.054347826087" type="line"/>
      <point x="1254.4565217391305" y="1423.2717391304348" type="line"/>
      <point x="1397.7500000000002" y="1449.3695652173913" type="line"/>
      <point x="1403.1195652173913" y="1486.0" type="line"/>
      <point x="992.1413043478261" y="1486.0" type="line"/>
      <point x="986.7717391304349" y="1449.3695652173913" type="line"/>
      <point x="1138.7826086956522" y="1423.271739130435" type="line"/>
      <point x="607.5434782608696" y="806.9782608695652" type="line"/>
      <point x="346.52173913043475" y="806.9782608695652" type="line"/>
      <point x="337.52173913043475" y="731.195652173913" type="line"/>
      <point x="525.7717391304348" y="731.195652173913" type="line" smooth="yes"/>
      <point x="702.4565217391305" y="731.195652173913"/>
      <point x="866.4782608695652" y="0.0"/>
    </contour>
    <contour>
      <point x="-36.09782608695653" y="0.0" type="line"/>
      <point x="472.21739130434776" y="0.0" type="line"/>
      <point x="477.5326086956523" y="36.63043478260869" type="line"/>
      <point x="335.20652173913044" y="68.57608695652173" type="line"/>
      <point x="520.5760869565217" y="1417.7934782608695" type="line"/>
      <point x="661.3043478260869" y="1449.3695652173915" type="line"/>
      <point x="665.9891304347826" y="1486.0" type="line"/>
      <point x="170.2173913043478" y="1486.0" type="line"/>
      <point x="165.2173913043478" y="1449.3695652173915" type="line"/>
      <point x="295.54347826086956" y="1417.7934782608695" type="line"/>
      <point x="110.4891304347826" y="68.57608695652173" type="line"/>
      <point x="-30.782608695652172" y="36.63043478260869" type="line"/>
    </contour>
  </outline>
</glyph>
<glyph name="U-cy" format="2">
  <advance width="1289.945652173913"/>
  <unicode hex="0423"/>
  <anchor x="829.2608695652174" y="1486.0" name="top"/>
  <outline>
    <contour>
      <point x="386.89130434782606" y="-25.152173913043477" type="curve" smooth="yes"/>
      <point x="588.5108695652174" y="-25.152173913043477"/>
      <point x="707.4673913043478" y="167.1195652173913"/>
      <point x="785.2826086956522" y="329.0108695652174" type="curve" smooth="yes"/>
      <point x="1312.5652173913043" y="1430.7391304347827" type="line"/>
      <point x="1427.5108695652173" y="1449.3695652173915" type="line"/>
      <point x="1432.141304347826" y="1486.0" type="line"/>
      <point x="1046.8478260869565" y="1486.0" type="line"/>
      <point x="1041.532608695652" y="1449.3695652173915" type="line"/>
      <point x="1200.0434782608695" y="1428.1086956521738" type="line"/>
      <point x="876.8369565217391" y="679.8586956521738" type="line"/>
      <point x="746.3260869565217" y="394.78260869565213" type="line"/>
      <point x="799.9782608695652" y="431.27173913043475" type="line"/>
      <point x="723.8695652173913" y="694.7826086956522" type="line"/>
      <point x="486.554347826087" y="1428.7391304347825" type="line"/>
      <point x="656.9239130434783" y="1449.3695652173915" type="line"/>
      <point x="662.2391304347826" y="1486.0" type="line"/>
      <point x="129.15217391304347" y="1486.0" type="line"/>
      <point x="123.15217391304348" y="1449.3695652173915" type="line"/>
      <point x="243.64130434782606" y="1429.3695652173915" type="line"/>
      <point x="671.7934782608695" y="221.79347826086956" type="line"/>
      <point x="721.2608695652175" y="379.92391304347825" type="line"/>
      <point x="616.7391304347827" y="177.4021739130435"/>
      <point x="510.8260869565217" y="155.34782608695653"/>
      <point x="418.85869565217394" y="155.34782608695653" type="curve" smooth="yes"/>
      <point x="347.44565217391306" y="155.34782608695653"/>
      <point x="277.8369565217392" y="169.3478260869565"/>
      <point x="225.85869565217388" y="185.6086956521739" type="curve"/>
      <point x="202.23913043478262" y="12.891304347826086" type="line"/>
      <point x="243.8695652173913" y="-5.7391304347826075"/>
      <point x="296.5326086956522" y="-25.152173913043477"/>
    </contour>
  </outline>
</glyph>
<glyph name="Che-cy" format="2">
  <advance width="1340.6739130434783"/>
  <unicode hex="0427"/>
  <anchor x="675.8478260869565" y="0.0" name="bottomleft"/>
  <anchor x="1242.4565217391305" y="0.0" name="bottomright"/>
  <anchor x="787.0869565217391" y="1486.0" name="top"/>
  <outline>
    <contour>
      <point x="677.8478260869564" y="0.0" type="line"/>
      <point x="1237.8260869565215" y="0.0" type="line"/>
      <point x="1243.1413043478262" y="36.630434782608695" type="line"/>
      <point x="1104.5978260869565" y="68.57608695652173" type="line"/>
      <point x="1289.9673913043478" y="1417.7934782608695" type="line"/>
      <point x="1423.7608695652175" y="1449.3695652173915" type="line"/>
      <point x="1429.0760869565215" y="1486.0" type="line"/>
      <point x="931.413043478261" y="1486.0" type="line"/>
      <point x="926.0978260869565" y="1449.3695652173915" type="line"/>
      <point x="1059.576086956522" y="1417.7934782608695" type="line"/>
      <point x="967.2608695652174" y="744.2173913043479" type="line"/>
      <point x="892.9239130434781" y="707.1521739130435"/>
      <point x="770.9891304347825" y="685.7282608695651"/>
      <point x="691.391304347826" y="685.7282608695651" type="curve" smooth="yes"/>
      <point x="484.7282608695653" y="685.7282608695651"/>
      <point x="432.6630434782609" y="765.804347826087"/>
      <point x="432.6630434782609" y="910.9239130434783" type="curve" smooth="yes"/>
      <point x="432.6630434782609" y="972.7065217391305"/>
      <point x="441.9782608695653" y="1047.2717391304348"/>
      <point x="454.55434782608705" y="1135.141304347826" type="curve" smooth="yes"/>
      <point x="496.0869565217391" y="1417.7934782608695" type="line"/>
      <point x="629.8804347826086" y="1449.3695652173915" type="line"/>
      <point x="635.1956521739131" y="1486.0" type="line"/>
      <point x="139.6304347826087" y="1486.0" type="line"/>
      <point x="134.31521739130434" y="1449.3695652173915" type="line"/>
      <point x="265.58695652173907" y="1417.7934782608695" type="line"/>
      <point x="206.84782608695653" y="1016.4130434782609" type="line" smooth="yes"/>
      <point x="202.5326086956522" y="985.5760869565217"/>
      <point x="199.58695652173915" y="954.1086956521739"/>
      <point x="199.58695652173915" y="924.6956521739131" type="curve" smooth="yes"/>
      <point x="199.58695652173915" y="737.4021739130435"/>
      <point x="305.61956521739137" y="611.6847826086956"/>
      <point x="629.5978260869565" y="611.6847826086956" type="curve" smooth="yes"/>
      <point x="714.3695652173914" y="611.6847826086956"/>
      <point x="859.195652173913" y="630.0"/>
      <point x="957.2608695652174" y="675.5869565217391" type="curve"/>
      <point x="874.2065217391305" y="68.57608695652173" type="line"/>
      <point x="683.1630434782608" y="36.6304347826087" type="line"/>
    </contour>
  </outline>
</glyph>
<glyph name="Softsign-cy" format="2">
  <advance width="1232.5978260869565"/>
  <unicode hex="042C"/>
  <outline>
    <contour>
      <point x="523.4130434782608" y="-15.891304347826086" type="curve" smooth="yes"/>
      <point x="915.6847826086957" y="-15.891304347826086"/>
      <point x="1183.4021739130435" y="157.10869565217394"/>
      <point x="1183.4021739130435" y="486.8913043478261" type="curve" smooth="yes"/>
      <point x="1183.4021739130435" y="788.3804347826087"/>
      <point x="969.586956521739" y="914.8586956521739"/>
      <point x="666.7391304347826" y="914.8586956521739" type="curve" smooth="yes"/>
      <point x="584.0434782608695" y="914.8586956521739"/>
      <point x="471.5869565217391" y="897.2173913043479"/>
      <point x="400.69565217391306" y="883.8478260869566" type="curve"/>
      <point x="400.69565217391306" y="819.9021739130435" type="line"/>
      <point x="451.6195652173913" y="828.4347826086956"/>
      <point x="507.7934782608696" y="845.3369565217391"/>
      <point x="597.6086956521739" y="845.3369565217391" type="curve" smooth="yes"/>
      <point x="818.7065217391304" y="845.3369565217391"/>
      <point x="940.3804347826086" y="755.804347826087"/>
      <point x="940.3804347826086" y="481.9347826086957" type="curve" smooth="yes"/>
      <point x="940.3804347826086" y="196.4673913043478"/>
      <point x="775.2391304347825" y="37.94565217391305"/>
      <point x="535.4891304347826" y="37.94565217391305" type="curve" smooth="yes"/>
      <point x="457.57608695652175" y="37.94565217391305"/>
      <point x="394.4021739130435" y="52.684782608695656"/>
      <point x="343.4021739130435" y="67.94565217391305" type="curve"/>
      <point x="528.7717391304349" y="1417.7934782608695" type="line"/>
      <point x="663.8260869565217" y="1449.3695652173913" type="line"/>
      <point x="667.8804347826087" y="1486.0" type="line"/>
      <point x="169.90217391304347" y="1486.0" type="line"/>
      <point x="164.90217391304347" y="1449.3695652173915" type="line"/>
      <point x="298.38043478260863" y="1418.4239130434783" type="line"/>
      <point x="113.01086956521742" y="67.94565217391303" type="line"/>
      <point x="-31.09782608695652" y="36.63043478260869" type="line"/>
      <point x="-36.097826086956516" y="0.0" type="line"/>
      <point x="226.52173913043478" y="0.0" type="line" smooth="yes"/>
      <point x="311.92391304347825" y="0.0"/>
      <point x="404.22826086956525" y="-15.891304347826086"/>
    </contour>
  </outline>
</glyph>
<glyph name="Ereversed-cy" format="2">
  <advance width="1297.5434782608695"/>
  <unicode hex="042D"/>
  <anchor x="786.3369565217391" y="1486.0" name="top"/>
  <outline>
    <contour>
      <point x="487.78260869565213" y="-18.52173913043478" type="curve" smooth="yes"/>
      <point x="939.4239130434784" y="-18.52173913043478"/>
      <point x="1290.0543478260868" y="326.9021739130435"/>
      <point x="1290.0543478260868" y="867.9021739130435" type="curve" smooth="yes"/>
      <point x="1290.0543478260868" y="1187.4021739130435"/>
      <point x="1142.6304347826087" y="1503.2608695652175"/>
      <point x="660.7173913043479" y="1503.2608695652175" type="curve" smooth="yes"/>
      <point x="457.72826086956525" y="1503.2608695652175"/>
      <point x="296.7391304347826" y="1446.3586956521742"/>
      <point x="220.41304347826087" y="1418.358695652174" type="curve"/>
      <point x="176.79347826086956" y="1067.3152173913045" type="line"/>
      <point x="296.4891304347826" y="1067.3152173913045" type="line"/>
      <point x="319.695652173913" y="1146.8804347826087"/>
      <point x="338.3695652173913" y="1245.7608695652175"/>
      <point x="365.09782608695656" y="1318.0217391304348" type="curve"/>
      <point x="411.3586956521739" y="1395.7934782608695"/>
      <point x="550.4782608695651" y="1451.3152173913045"/>
      <point x="649.054347826087" y="1451.3152173913045" type="curve" smooth="yes"/>
      <point x="950.5217391304348" y="1451.3152173913045"/>
      <point x="1051.7065217391307" y="1189.6413043478258"/>
      <point x="1051.7065217391305" y="881.3695652173913" type="curve" smooth="yes"/>
      <point x="1051.7065217391305" y="850.2717391304348"/>
      <point x="1048.5" y="808.8260869565219"/>
      <point x="1046.554347826087" y="775.8369565217391" type="curve"/>
      <point x="853.7065217391304" y="792.6195652173914"/>
      <point x="581.7717391304349" y="814.4021739130434"/>
      <point x="455.13043478260875" y="821.2391304347826" type="curve"/>
      <point x="425.86956521739137" y="663.6086956521739" type="line"/>
      <point x="1038.032608695652" y="704.9021739130435" type="line"/>
      <point x="1000.0869565217392" y="339.67391304347825"/>
      <point x="837.3804347826086" y="34.36956521739131"/>
      <point x="501.47826086956525" y="34.36956521739131" type="curve" smooth="yes"/>
      <point x="373.0978260869565" y="34.36956521739131"/>
      <point x="296.7282608695652" y="71.70652173913042"/>
      <point x="249.30434782608694" y="104.43478260869566" type="curve"/>
      <point x="230.68478260869563" y="416.1739130434783" type="line"/>
      <point x="128.48913043478262" y="416.1739130434783" type="line"/>
      <point x="69.06521739130436" y="54.71739130434783" type="line"/>
      <point x="148.04347826086956" y="33.68478260869565"/>
      <point x="302.70652173913044" y="-18.52173913043478"/>
    </contour>
  </outline>
</glyph>
<glyph name="Ia-cy" format="2">
  <advance width="1325.1739130434783"/>
  <unicode hex="042F"/>
  <anchor x="863.608695652174" y="1490.0" name="top"/>
  <outline>
    <contour>
      <point x="-67.9891304347826" y="0.0" type="line"/>
      <point x="201.14130434782606" y="0.0" type="line" smooth="yes"/>
      <point x="261.554347826087" y="0.0"/>
      <point x="333.2608695652174" y="138.56521739130432"/>
      <point x="427.59782608695656" y="288.7173913043478" type="curve" smooth="yes"/>
      <point x="532.2608695652174" y="452.35869565217394"/>
      <point x="643.7173913043479" y="631.75"/>
      <point x="739.4782608695652" y="664.6086956521739" type="curve"/>
      <point x="803.0108695652173" y="664.6086956521739"/>
      <point x="849.4239130434783" y="665.2934782608696"/>
      <point x="935.9347826086956" y="666.5543478260869" type="curve"/>
      <point x="854.1956521739131" y="68.57608695652173" type="line"/>
      <point x="676.4347826086956" y="36.630434782608695" type="line"/>
      <point x="671.1195652173914" y="0.0" type="line"/>
      <point x="1220.1195652173913" y="0.0" type="line"/>
      <point x="1225.4347826086957" y="36.630434782608695" type="line"/>
      <point x="1086.217391304348" y="68.57608695652173" type="line"/>
      <point x="1267.2173913043478" y="1419.163043478261" type="line"/>
      <point x="1409.9456521739128" y="1449.3695652173913" type="line"/>
      <point x="1413.9456521739132" y="1486.0" type="line"/>
      <point x="1166.5652173913043" y="1486.0" type="line" smooth="yes"/>
      <point x="1053.8369565217392" y="1486.0"/>
      <point x="921.0434782608695" y="1498.217391304348"/>
      <point x="812.1630434782609" y="1498.217391304348" type="curve" smooth="yes"/>
      <point x="426.6847826086957" y="1498.217391304348"/>
      <point x="226.51086956521738" y="1281.8804347826087"/>
      <point x="226.51086956521738" y="1034.445652173913" type="curve" smooth="yes"/>
      <point x="226.51086956521738" y="828.358695652174"/>
      <point x="371.17391304347825" y="677.2391304347826"/>
      <point x="647.7282608695654" y="671.0760869565216" type="curve"/>
      <point x="652.695652173913" y="689.5434782608695" type="line"/>
      <point x="473.32608695652175" y="709.4021739130434"/>
      <point x="309.36956521739125" y="496.41304347826093"/>
      <point x="180.04347826086956" y="302.6847826086957" type="curve" smooth="yes"/>
      <point x="53.07608695652175" y="113.09782608695653"/>
      <point x="25.86956521739131" y="37.2608695652174"/>
      <point x="-61.67391304347827" y="37.260869565217384" type="curve"/>
    </contour>
    <contour>
      <point x="942.9347826086956" y="727.445652173913" type="line"/>
      <point x="903.5652173913044" y="722.8152173913043"/>
      <point x="785.1956521739131" y="722.8152173913043"/>
      <point x="732.3478260869564" y="722.8152173913043" type="curve" smooth="yes"/>
      <point x="598.5217391304348" y="722.8152173913043"/>
      <point x="467.21739130434787" y="835.445652173913"/>
      <point x="467.21739130434787" y="1044.0326086956522" type="curve" smooth="yes"/>
      <point x="467.21739130434787" y="1271.2391304347827"/>
      <point x="622.5108695652175" y="1440.5326086956522"/>
      <point x="818.0217391304346" y="1440.5326086956522" type="curve" smooth="yes"/>
      <point x="931.7717391304348" y="1440.5326086956522"/>
      <point x="1006.5543478260871" y="1438.5326086956522"/>
      <point x="1038.5652173913043" y="1435.4782608695652" type="curve"/>
    </contour>
  </outline>
</glyph>
